<svg width="194" height="200" viewBox="0 0 194 200" fill="none" xmlns="http://www.w3.org/2000/svg">
<mask id="mask0" mask-type="alpha" maskUnits="userSpaceOnUse" x="26" y="18" width="164" height="182">
<path fill-rule="evenodd" clip-rule="evenodd" d="M189.958 18.502H26.9123V199.996H189.958V18.502Z" fill="white"/>
</mask>
<g mask="url(#mask0)">
<path fill-rule="evenodd" clip-rule="evenodd" d="M115.268 44.9895C125.333 28.0493 146.91 8.07231 166.527 24.8187C186.144 41.5651 195.873 75.158 186.144 115.728C176.415 156.297 147.945 201.852 84.2696 199.938C20.594 198.024 14.8524 134.388 43.082 116.717C57.2696 107.837 115.268 44.9895 115.268 44.9895Z" fill="#94EDB8"/>
</g>
<path fill-rule="evenodd" clip-rule="evenodd" d="M47.29 36.053C47.7335 25.031 29.3115 32.5731 26.7 39.4181C24.0885 46.2635 24.8541 52.7549 31.0871 54.4061C37.3196 56.0583 46.8488 47.0104 47.29 36.053Z" fill="#94EDB8"/>
<path fill-rule="evenodd" clip-rule="evenodd" d="M20.751 90.3535C20.751 90.3535 20.751 103.303 29.0443 117.338C37.3381 131.373 52.6491 140.305 52.6491 140.305C52.6491 140.305 63.8946 142.838 64.451 146.046C65.008 149.255 66.3649 158.805 69.874 165.185C73.3826 171.565 77.2104 177.306 82.952 181.772C88.6936 186.238 95.7113 187.513 95.7113 187.513L118.04 170.608C118.04 170.608 124.657 165.109 131.875 164.35C139.092 163.59 159.826 155.934 159.826 155.934C159.826 155.934 168.732 151.645 167.816 150.182C166.899 148.72 137.497 143.468 137.497 143.468C137.497 143.468 126.577 137.115 125.02 136.477C123.463 135.839 91.5644 127.545 83.2711 120.847C74.9773 114.148 53.9247 103.017 53.9247 103.017L34.786 100.432L20.751 90.3535Z" fill="white"/>
<path fill-rule="evenodd" clip-rule="evenodd" d="M160.943 150.63C160.943 150.63 138.454 156.568 123.622 141.979C108.79 127.39 90.3685 131.214 90.3685 131.214L67.1627 120.687L51.6125 115.664C51.6125 115.664 34.4173 115.07 23.8613 99.6161C13.3053 84.1625 27.0077 118.143 27.0077 118.143L37.9761 131.453C37.9761 131.453 52.5694 139.587 54.0048 140.065C55.4402 140.544 65.3804 135.281 65.3804 135.281C65.3804 135.281 70.5723 121.96 70.6048 121.884C68.5297 126.719 77.0206 133.819 80.5599 135.4C94.5589 141.656 103.217 136.127 103.885 137.613C110.265 151.808 102.33 181.214 91.8039 183.606C81.2776 185.998 103.526 185.041 104.483 184.324C105.44 183.606 115.727 168.534 115.727 168.534L121.469 162.274L149.459 161.118L159.507 158.247L163.574 154.734L160.943 150.63Z" fill="#D5E4EC"/>
<path fill-rule="evenodd" clip-rule="evenodd" d="M86.8311 154.735C93.411 154.735 100.334 153.922 106.573 152.858L105.876 148.767C84.5077 152.408 70.1292 150.598 65.3924 143.67L61.9661 146.013C66.4814 152.616 76.2091 154.735 86.8311 154.735Z" fill="#89A1B1"/>
<path fill-rule="evenodd" clip-rule="evenodd" d="M92.1584 191.867C94.0321 191.867 95.9168 191.549 97.7312 190.907C106.14 187.935 117.239 178.651 123.074 164.608L115.409 161.423C109.848 174.805 99.6039 181.441 94.9642 183.081C92.6852 183.887 90.1991 183.679 88.1412 182.511C86.3072 181.47 84.5441 180.251 82.8986 178.884C73.8718 171.383 67.8225 158.529 66.7163 144.5C66.4111 140.63 66.3713 130.995 72.5728 125.13L66.8685 119.099C60.6699 124.962 57.5986 134.458 58.4407 145.152C59.7197 161.369 66.879 176.366 77.5934 185.268C79.6158 186.949 81.7867 188.45 84.045 189.731C86.5393 191.146 89.3364 191.866 92.1584 191.867Z" fill="#28313B"/>
<path fill-rule="evenodd" clip-rule="evenodd" d="M124.862 164.751L128.551 162.85L126.707 163.801L128.554 162.856C128.317 162.388 122.844 151.282 131.875 141.513L128.827 138.695C123.059 144.935 122.281 151.683 122.643 156.246C123.033 161.152 124.787 164.606 124.862 164.751Z" fill="#89A1B1"/>
<path fill-rule="evenodd" clip-rule="evenodd" d="M144.683 161.416L147.778 158.651C142.064 152.256 147.279 143.826 147.333 143.742L143.824 141.524C141.4 145.359 138.461 154.452 144.683 161.416Z" fill="#89A1B1"/>
<path fill-rule="evenodd" clip-rule="evenodd" d="M172.222 152.623C175.564 150.773 176.773 146.564 174.923 143.223C173.073 139.88 168.864 138.671 165.522 140.521C162.18 142.371 160.971 146.58 162.821 149.922C164.672 153.264 168.881 154.473 172.222 152.623Z" fill="#28313B"/>
<mask id="mask1" mask-type="alpha" maskUnits="userSpaceOnUse" x="164" y="125" width="31" height="32">
<path fill-rule="evenodd" clip-rule="evenodd" d="M194 125.13H164.902V156.922H194V125.13Z" fill="white"/>
</mask>
<g mask="url(#mask1)">
<path fill-rule="evenodd" clip-rule="evenodd" d="M180.827 156.922C183.485 156.922 186.113 156.249 188.502 154.926C190.735 153.689 192.585 151.994 194 149.885L189.405 146.802C188.484 148.173 187.279 149.277 185.822 150.084C183.401 151.425 180.603 151.742 177.944 150.978C175.284 150.214 173.081 148.459 171.741 146.038C170.4 143.616 170.082 140.818 170.846 138.158C171.61 135.498 173.364 133.295 175.785 131.955C177.242 131.149 178.818 130.713 180.469 130.661L180.294 125.13C177.756 125.21 175.337 125.877 173.104 127.114C169.39 129.17 166.699 132.55 165.527 136.63C164.355 140.711 164.842 145.005 166.899 148.719C168.956 152.433 172.335 155.124 176.415 156.296C177.871 156.715 179.354 156.922 180.827 156.922Z" fill="#28313B"/>
</g>
<path fill-rule="evenodd" clip-rule="evenodd" d="M131.131 167.665C147.976 167.665 159.756 161.338 167.002 155.556C169.642 153.451 170.603 149.915 169.391 146.759C168.18 143.6 165.102 141.616 161.726 141.815C153.99 142.274 145.662 140.537 136.974 136.655C135.75 136.109 134.53 135.524 133.345 134.914L133.025 134.747L129.242 142.137L129.563 142.302C130.866 142.974 132.228 143.627 133.59 144.235C142.838 148.366 151.837 150.359 160.376 150.175C153.001 155.59 140.924 161.026 123.41 158.882C118.745 158.309 114.635 156.598 111.197 153.795C106.786 150.195 105.383 143.989 107.863 139.038C108.805 137.159 109.965 135.968 111.403 135.406L111.625 135.327C111.781 135.271 111.931 135.226 112.082 135.191L112.077 135.168L113.587 134.641L114.196 132.612L111.284 131.738L111.101 130.947L113.878 129.452L112.563 127.01L110.245 127.243L110.213 127.104C109.93 127.169 109.646 127.245 109.365 127.332L107.043 127.568L106.789 128.415C104.15 129.858 102.02 132.172 100.442 135.318C98.376 139.443 97.8056 144.215 98.8348 148.758C99.8506 153.239 102.377 157.312 105.951 160.228C110.622 164.037 116.157 166.356 122.401 167.12C125.449 167.494 128.359 167.665 131.131 167.665Z" fill="#28313B"/>
<path fill-rule="evenodd" clip-rule="evenodd" d="M40.824 135.574L44.9637 135.276C44.0068 122.006 55.2158 116.747 55.6934 116.529L53.9914 112.744C53.8426 112.811 50.3163 114.414 46.9484 118.003C43.8173 121.342 40.2125 127.1 40.824 135.574Z" fill="#89A1B1"/>
<path fill-rule="evenodd" clip-rule="evenodd" d="M30.2725 118.927C32.2744 110.589 42.1734 110.074 42.2734 110.069L42.0974 105.923C37.5648 106.115 28.4165 108.878 26.2366 117.958L30.2725 118.927Z" fill="#89A1B1"/>
<path fill-rule="evenodd" clip-rule="evenodd" d="M26.9676 84.8037C25.6848 81.2056 21.7283 79.329 18.1302 80.6113C14.5322 81.8946 12.6551 85.8511 13.9379 89.4491C15.2207 93.0472 19.1776 94.9238 22.7752 93.6415C26.3733 92.3587 28.2503 88.4023 26.9676 84.8037Z" fill="#28313B"/>
<path fill-rule="evenodd" clip-rule="evenodd" d="M16.9005 90.3529C18.7 90.3529 20.5058 90.0433 22.2512 89.4208C30.5063 86.4778 34.8273 77.3677 31.8847 69.1127C31.0273 66.7079 29.6541 64.6074 27.8044 62.8701L24.0154 66.9027C25.2187 68.0338 26.1125 69.4027 26.6723 70.9716C27.601 73.5778 27.4599 76.3902 26.2737 78.8902C25.0876 81.3907 22.9991 83.2792 20.3924 84.2084C17.7852 85.1381 14.9723 84.9969 12.4713 83.8108C9.97134 82.6251 8.08234 80.5361 7.15316 77.9299C6.59383 76.361 6.42014 74.7352 6.63689 73.0983L1.15077 72.3716C0.817753 74.8883 1.0833 77.3835 1.94072 79.7883C3.36608 83.7873 6.26416 86.9916 10.1 88.8108C12.2618 89.8366 14.5766 90.3524 16.9005 90.3529Z" fill="#28313B"/>
<path fill-rule="evenodd" clip-rule="evenodd" d="M65.8691 147.012C65.9365 147.012 65.983 147.012 66.0088 147.011L65.8882 138.711H65.8801C65.493 138.711 52.2839 138.62 41.9834 129.443C28.8054 117.703 24.915 105.044 24.1121 95.933C37.9236 112.425 61.3576 120.319 62.3763 120.656L64.983 112.775L63.6796 116.715L64.9858 112.776C64.7528 112.698 41.5475 104.853 29.5035 89.4C27.426 86.7344 23.8997 85.733 20.7279 86.9086C17.5576 88.0832 15.5365 91.1397 15.6973 94.5129C16.2117 105.296 20.2318 121.183 36.4619 135.641C48.8624 146.689 64.1385 147.012 65.8691 147.012Z" fill="#28313B"/>
<path fill-rule="evenodd" clip-rule="evenodd" d="M72.6802 150.63C72.6802 144.2 76.262 138.986 80.6802 138.986C85.0988 138.986 88.6807 144.2 88.6807 150.63C88.6807 157.06 85.0988 162.274 80.6802 162.274C76.262 162.274 72.6802 157.06 72.6802 150.63Z" fill="#2FA9E0"/>
<path fill-rule="evenodd" clip-rule="evenodd" d="M80.6807 141.062C83.8922 141.062 86.6051 145.444 86.6051 150.631C86.6051 155.817 83.8922 160.199 80.6807 160.199C77.4688 160.199 74.7559 155.817 74.7559 150.631C74.7559 145.444 77.4688 141.062 80.6807 141.062ZM80.6807 164.35C86.3305 164.35 90.7559 158.324 90.7559 150.631C90.7559 142.938 86.3305 136.911 80.6807 136.911C75.0305 136.911 70.6051 142.938 70.6051 150.631C70.6051 158.324 75.0305 164.35 80.6807 164.35Z" fill="#28313B"/>
<path fill-rule="evenodd" clip-rule="evenodd" d="M112.381 137.979C100.008 133.32 61.7691 118.364 43.5117 104.877C41.2151 103.181 39.8433 100.512 39.805 97.6566C39.6701 87.5705 40.0773 61.8954 46.7878 41.2461C47.782 38.1867 50.2036 35.8035 53.2887 34.8906C64.6883 31.5169 95.2964 24.2332 132.339 29.871C138.013 30.7346 143.287 33.3131 147.445 37.2705C153.753 43.2734 164.033 53.8982 175.715 69.2719C178.239 72.5939 179.318 76.7906 178.763 80.926C177.408 91.0164 173.82 107.403 165.287 125.233C163.827 128.282 161.003 130.45 157.673 131.035C148.749 132.603 135.588 138.974 120.527 139.367C117.748 139.439 114.982 138.959 112.381 137.979Z" fill="white"/>
<path fill-rule="evenodd" clip-rule="evenodd" d="M144.813 45.2265C143.947 44.5921 142.75 45.3165 142.906 46.3787C143.889 53.0878 145.323 71.0811 138.065 96.1471C133.13 113.192 128.118 122.934 124.498 128.327C121.913 132.177 117.227 134.043 112.694 133.062L96.1106 129.476L115.851 138.968C115.851 138.968 154.773 136.472 157.408 132.427C163.523 117.939 168.16 97.7442 170.557 82.2758C171.764 74.4839 172.535 72.4375 164.447 63.2131C157.488 55.2763 148.95 48.2595 144.813 45.2265Z" fill="#D5E4EC"/>
<path fill-rule="evenodd" clip-rule="evenodd" d="M173.458 104.972L175.678 101.465L145.367 82.2785C142.883 80.7067 140.028 79.6904 137.109 79.3402L40.6505 67.7627L40.1557 71.8837L136.615 83.4613C138.924 83.7383 141.182 84.5421 143.147 85.7857L173.458 104.972Z" fill="#89A1B1"/>
<path fill-rule="evenodd" clip-rule="evenodd" d="M137.192 43.9249C138.341 54.9402 139.908 89.2498 120.554 123.089C119.031 125.751 115.836 126.962 112.933 125.972C99.9691 121.549 64.6935 109.054 48.9705 98.8799C48.3371 98.4704 47.9581 97.7689 47.9567 97.0153C47.9433 90.5459 48.1921 59.5383 54.0112 44.6799C54.5356 43.3407 55.672 42.3388 57.071 42.0058C64.8064 40.1656 93.0705 34.5747 133.176 39.8C135.306 40.078 136.969 41.7881 137.192 43.9249Z" fill="#343A4C"/>
<path fill-rule="evenodd" clip-rule="evenodd" d="M175.358 77.9343C173.652 86.3821 169.995 102.474 164.672 115.337C162.754 119.97 159.18 123.629 154.608 125.637C145.38 129.693 131.554 134.315 120.426 135.126C118.294 135.281 116.211 134.984 114.233 134.241C102.782 129.94 64.0162 114.87 45.965 101.529C44.7272 100.614 43.9755 99.1491 43.9549 97.6108C43.8219 87.7266 44.2176 62.5716 50.7391 42.5142C51.3119 40.7534 52.7013 39.3922 54.4559 38.8726C66.0382 35.4439 96.998 28.1434 134.259 34.3802C138.202 35.0405 141.936 36.6721 145.057 39.0984C148.814 42.019 154.402 46.6018 159.686 51.8472C165.156 57.2797 170.147 63.8683 173.37 68.4386C175.299 71.175 176.024 74.6362 175.358 77.9343ZM119.323 143.468C119.89 143.468 120.458 143.447 121.029 143.405C136.358 142.288 153.163 135.34 157.948 133.237C164.49 130.362 169.601 125.132 172.342 118.511C177.932 105.003 181.729 88.3199 183.495 79.5778C184.611 74.0525 183.393 68.2486 180.154 63.6549C176.74 58.8132 171.432 51.8123 165.534 45.9563C159.956 40.418 154.09 35.6056 150.152 32.5448C145.947 29.2764 140.926 27.0802 135.629 26.1931C96.6645 19.6707 64.2343 27.3209 52.0999 30.9132C47.7233 32.2089 44.2635 35.586 42.8449 39.9467C35.9401 61.1831 35.5162 87.4257 35.6544 97.7223C35.7099 101.839 37.72 105.757 41.031 108.205C59.9463 122.184 99.609 137.615 111.314 142.012C113.892 142.98 116.579 143.468 119.323 143.468Z" fill="#28313B"/>
<path fill-rule="evenodd" clip-rule="evenodd" d="M145.421 90.9623C143.264 100.143 146.199 108.687 151.976 110.044C157.752 111.401 164.185 105.058 166.341 95.8771C168.498 86.6962 165.564 78.1532 159.787 76.7962C154.01 75.4388 147.578 81.7814 145.421 90.9623Z" fill="#29313C"/>
<path fill-rule="evenodd" clip-rule="evenodd" d="M116.528 6.68432C117.446 2.43743 121.633 -0.260654 125.879 0.658007C130.126 1.57619 132.824 5.76327 131.906 10.0097C130.987 14.2566 126.8 16.9547 122.553 16.036C118.307 15.1178 115.609 10.9307 116.528 6.68432Z" fill="#28313B"/>
<path fill-rule="evenodd" clip-rule="evenodd" d="M115.268 26.1233L125.02 28.2324L124.843 15.4343L120.717 14.542L115.268 26.1233Z" fill="#28313B"/>
<path fill-rule="evenodd" clip-rule="evenodd" d="M76.0514 94.3374L62.9942 74.6859L69.9084 70.0918L78.4014 82.8744L111.806 60.9912L116.355 67.9349L76.0514 94.3374Z" fill="#1FCE6D"/>
</svg>
