<svg width="194" height="200" viewBox="0 0 194 200" fill="none" xmlns="http://www.w3.org/2000/svg">
<mask id="mask0" mask-type="alpha" maskUnits="userSpaceOnUse" x="4" y="18" width="164" height="182">
<path fill-rule="evenodd" clip-rule="evenodd" d="M4.04175 18.5018H167.087V199.996H4.04175V18.5018Z" fill="white"/>
</mask>
<g mask="url(#mask0)">
<path fill-rule="evenodd" clip-rule="evenodd" d="M78.7316 44.9894C68.6665 28.0492 47.09 8.07215 27.4727 24.8186C7.8555 41.565 -1.87368 75.1578 7.8555 115.728C17.5847 156.297 46.0546 201.852 109.73 199.938C173.406 198.024 179.147 134.388 150.918 116.717C136.73 107.837 78.7316 44.9894 78.7316 44.9894Z" fill="#94EDB8"/>
</g>
<path fill-rule="evenodd" clip-rule="evenodd" d="M146.71 36.0531C146.267 25.0311 164.689 32.5732 167.3 39.4182C169.912 46.2636 169.146 52.755 162.913 54.4062C156.681 56.0584 147.151 47.0105 146.71 36.0531Z" fill="#94EDB8"/>
<path fill-rule="evenodd" clip-rule="evenodd" d="M173.249 90.3533C173.249 90.3533 173.249 103.303 164.955 117.338C156.662 131.373 141.351 140.304 141.351 140.304C141.351 140.304 130.105 142.838 129.549 146.046C128.992 149.255 127.635 158.805 124.126 165.185C120.617 171.564 116.789 177.306 111.048 181.771C105.306 186.237 98.2884 187.513 98.2884 187.513L75.9602 170.607C75.9602 170.607 69.3425 165.109 62.1248 164.349C54.9076 163.59 34.1736 155.934 34.1736 155.934C34.1736 155.934 25.2674 151.645 26.1841 150.182C27.1009 148.719 56.5023 143.468 56.5023 143.468C56.5023 143.468 67.4224 137.114 68.9798 136.477C70.5372 135.838 102.435 127.545 110.729 120.847C119.022 114.148 140.075 103.016 140.075 103.016L159.214 100.432L173.249 90.3533Z" fill="white"/>
<path fill-rule="evenodd" clip-rule="evenodd" d="M33.0574 150.631C33.0574 150.631 55.5459 156.568 70.3779 141.979C85.21 127.39 103.632 131.214 103.632 131.214L126.837 120.687L142.388 115.664C142.388 115.664 159.583 115.07 170.139 99.6162C180.695 84.1626 166.992 118.143 166.992 118.143L156.024 131.453C156.024 131.453 141.431 139.587 139.995 140.065C138.56 140.544 128.62 135.281 128.62 135.281C128.62 135.281 123.428 121.96 123.395 121.884C125.47 126.72 116.979 133.819 113.44 135.4C99.4411 141.656 90.7827 136.127 90.1148 137.613C83.7354 151.808 91.6698 181.214 102.196 183.606C112.722 185.998 90.4736 185.042 89.5167 184.324C88.5598 183.606 78.2727 168.534 78.2727 168.534L72.531 162.274L44.5406 161.118L34.4928 158.247L30.4258 154.734L33.0574 150.631Z" fill="#D5E4EC"/>
<path fill-rule="evenodd" clip-rule="evenodd" d="M107.169 154.734C100.589 154.734 93.6665 153.922 87.4268 152.858L88.1239 148.767C109.492 152.408 123.871 150.598 128.608 143.67L132.034 146.012C127.519 152.616 117.791 154.734 107.169 154.734Z" fill="#89A1B1"/>
<path fill-rule="evenodd" clip-rule="evenodd" d="M101.842 191.866C99.9684 191.866 98.0837 191.549 96.2693 190.907C87.8602 187.935 76.7617 178.651 70.9263 164.608L78.5918 161.423C84.1526 174.805 94.3966 181.441 99.0363 183.081C101.315 183.887 103.801 183.679 105.859 182.51C107.693 181.47 109.456 180.251 111.102 178.883C120.129 171.383 126.178 158.529 127.284 144.5C127.589 140.629 127.629 130.995 121.428 125.129L127.132 119.098C133.331 124.962 136.402 134.458 135.56 145.152C134.281 161.369 127.121 176.365 116.407 185.268C114.385 186.949 112.214 188.45 109.955 189.73C107.461 191.146 104.664 191.866 101.842 191.866Z" fill="#28313B"/>
<path fill-rule="evenodd" clip-rule="evenodd" d="M69.1384 164.751L65.4489 162.85L67.2934 163.8L65.4456 162.856C65.6834 162.388 71.1561 151.282 62.125 141.513L65.1728 138.695C70.9408 144.934 71.7193 151.683 71.3571 156.245C70.9671 161.152 69.213 164.606 69.1384 164.751Z" fill="#89A1B1"/>
<path fill-rule="evenodd" clip-rule="evenodd" d="M49.3169 161.416L46.2217 158.651C51.9356 152.256 46.7207 143.826 46.6671 143.742L50.1757 141.525C52.5997 145.359 55.5389 154.453 49.3169 161.416Z" fill="#89A1B1"/>
<path fill-rule="evenodd" clip-rule="evenodd" d="M21.7782 152.623C18.4361 150.773 17.227 146.564 19.0773 143.222C20.9275 139.88 25.1366 138.671 28.4782 140.521C31.8203 142.371 33.0294 146.58 31.1792 149.922C29.3289 153.264 25.1198 154.473 21.7782 152.623Z" fill="#28313B"/>
<mask id="mask1" mask-type="alpha" maskUnits="userSpaceOnUse" x="0" y="125" width="30" height="32">
<path fill-rule="evenodd" clip-rule="evenodd" d="M0 125.13H29.0979V156.922H0V125.13Z" fill="white"/>
</mask>
<g mask="url(#mask1)">
<path fill-rule="evenodd" clip-rule="evenodd" d="M13.1727 156.922C10.5153 156.923 7.88708 156.249 5.49761 154.926C3.26459 153.69 1.41483 151.994 0 149.886L4.59522 146.802C5.51579 148.173 6.72105 149.278 8.17847 150.085C10.599 151.425 13.3971 151.743 16.0565 150.978C18.7163 150.214 20.9191 148.459 22.2593 146.039C23.6 143.617 23.9182 140.818 23.1541 138.158C22.39 135.499 20.6359 133.296 18.2153 131.956C16.7584 131.149 15.1823 130.713 13.5311 130.661L13.7057 125.13C16.244 125.21 18.6632 125.878 20.8957 127.114C24.61 129.17 27.301 132.55 28.4732 136.631C29.645 140.711 29.1579 145.005 27.101 148.719C25.0445 152.434 21.6651 155.125 17.5847 156.297C16.1292 156.715 14.6464 156.922 13.1727 156.922Z" fill="#28313B"/>
</g>
<path fill-rule="evenodd" clip-rule="evenodd" d="M62.8692 167.665C46.0238 167.665 34.2444 161.338 26.9984 155.555C24.3587 153.451 23.3975 149.915 24.6089 146.758C25.8204 143.6 28.8984 141.616 32.2745 141.815C40.0099 142.273 48.3381 140.536 57.0267 136.654C58.2501 136.109 59.4702 135.523 60.6549 134.913L60.9755 134.746L64.7578 142.136L64.4377 142.302C63.1338 142.974 61.7726 143.627 60.4104 144.235C51.1625 148.366 42.163 150.359 33.6238 150.175C40.9994 155.589 53.0759 161.026 70.5898 158.881C75.2554 158.309 79.3649 156.598 82.8032 153.795C87.2142 150.195 88.6171 143.989 86.1372 139.038C85.1951 137.159 84.0353 135.968 82.5975 135.405L82.375 135.326C82.219 135.27 82.0697 135.226 81.918 135.191L81.9233 135.167L80.4128 134.641L79.8042 132.611L82.7161 131.737L82.8989 130.947L80.1223 129.451L81.4372 127.009L83.7554 127.243L83.7874 127.103C84.0702 127.168 84.3539 127.245 84.6357 127.332L86.9568 127.568L87.2113 128.415C89.8506 129.858 91.9802 132.171 93.5587 135.318C95.6243 139.443 96.1946 144.215 95.1654 148.758C94.1496 153.238 91.6228 157.312 88.0496 160.227C83.3778 164.037 77.8434 166.355 71.5994 167.12C68.5511 167.493 65.641 167.665 62.8692 167.665Z" fill="#28313B"/>
<path fill-rule="evenodd" clip-rule="evenodd" d="M153.177 135.574L149.037 135.276C149.994 122.006 138.785 116.746 138.307 116.529L140.009 112.744C140.158 112.811 143.684 114.413 147.052 118.003C150.183 121.342 153.788 127.1 153.177 135.574Z" fill="#89A1B1"/>
<path fill-rule="evenodd" clip-rule="evenodd" d="M163.727 118.927C161.725 110.589 151.826 110.074 151.726 110.069L151.902 105.923C156.435 106.115 165.583 108.878 167.763 117.958L163.727 118.927Z" fill="#89A1B1"/>
<path fill-rule="evenodd" clip-rule="evenodd" d="M167.033 84.8032C168.316 81.2051 172.272 79.3286 175.87 80.6109C179.468 81.8941 181.345 85.8506 180.063 89.4487C178.78 93.0467 174.823 94.9233 171.225 93.641C167.627 92.3582 165.75 88.4018 167.033 84.8032Z" fill="#28313B"/>
<path fill-rule="evenodd" clip-rule="evenodd" d="M177.1 90.3533C175.3 90.3533 173.494 90.0437 171.749 89.4212C163.494 86.4781 159.173 77.3681 162.116 69.1131C162.973 66.7083 164.346 64.6078 166.196 62.8705L169.985 66.903C168.782 68.0341 167.888 69.403 167.328 70.9719C166.399 73.5781 166.54 76.3906 167.727 78.8906C168.913 81.3911 171.001 83.2796 173.608 84.2088C176.215 85.1384 179.028 84.9973 181.529 83.8111C184.029 82.6255 185.918 80.5365 186.847 77.9303C187.406 76.3614 187.58 74.7355 187.363 73.0987L192.849 72.3719C193.182 74.8887 192.917 77.3839 192.06 79.7887C190.634 83.7877 187.736 86.992 183.9 88.8111C181.738 89.837 179.424 90.3528 177.1 90.3533Z" fill="#28313B"/>
<path fill-rule="evenodd" clip-rule="evenodd" d="M128.131 147.013C128.064 147.013 128.017 147.012 127.991 147.012L128.112 138.711H128.12C128.507 138.711 141.716 138.62 152.017 129.443C165.195 117.703 169.085 105.044 169.888 95.9332C156.077 112.425 132.643 120.319 131.624 120.656L129.017 112.775L130.321 116.715L129.014 112.776C129.247 112.698 152.453 104.853 164.497 89.4001C166.574 86.7346 170.101 85.7332 173.272 86.9088C176.443 88.0834 178.464 91.1399 178.303 94.5131C177.789 105.296 173.768 121.183 157.538 135.641C145.138 146.689 129.862 147.013 128.131 147.013Z" fill="#28313B"/>
<path fill-rule="evenodd" clip-rule="evenodd" d="M121.32 150.631C121.32 144.2 117.738 138.987 113.32 138.987C108.901 138.987 105.319 144.2 105.319 150.631C105.319 157.061 108.901 162.274 113.32 162.274C117.738 162.274 121.32 157.061 121.32 150.631Z" fill="#2FA9E0"/>
<path fill-rule="evenodd" clip-rule="evenodd" d="M113.319 141.062C110.108 141.062 107.395 145.443 107.395 150.631C107.395 155.817 110.108 160.199 113.319 160.199C116.531 160.199 119.244 155.817 119.244 150.631C119.244 145.443 116.531 141.062 113.319 141.062ZM113.319 164.35C107.669 164.35 103.244 158.323 103.244 150.631C103.244 142.938 107.669 136.911 113.319 136.911C118.969 136.911 123.395 142.938 123.395 150.631C123.395 158.323 118.969 164.35 113.319 164.35Z" fill="#28313B"/>
<path fill-rule="evenodd" clip-rule="evenodd" d="M81.6194 137.979C93.9921 133.32 132.231 118.364 150.488 104.877C152.785 103.18 154.157 100.511 154.195 97.6562C154.33 87.5701 153.923 61.895 147.212 41.2457C146.218 38.1864 143.796 35.8031 140.711 34.8902C129.312 31.5165 98.7036 24.2328 61.6615 29.8706C55.9869 30.7342 50.7132 33.3127 46.5548 37.2701C40.2467 43.273 29.9672 53.8978 18.2849 69.2715C15.7605 72.5935 14.6821 76.7902 15.2371 80.9256C16.5916 91.016 20.1797 107.403 28.7132 125.233C30.1725 128.282 32.9974 130.45 36.3266 131.035C45.2515 132.602 58.4117 138.974 73.4735 139.366C76.2524 139.439 79.018 138.958 81.6194 137.979Z" fill="white"/>
<path fill-rule="evenodd" clip-rule="evenodd" d="M49.1861 45.2263C50.0521 44.5918 51.2492 45.3162 51.0937 46.3784C50.1105 53.0875 48.6765 71.0808 55.9344 96.1468C60.8698 113.192 65.8818 122.934 69.5014 128.326C72.0865 132.177 76.7727 134.043 81.3057 133.062L97.8889 129.476L78.1487 138.968C78.1487 138.968 39.2267 136.472 36.5918 132.426C30.4765 117.939 25.8392 97.744 23.4425 82.2755C22.2358 74.4837 21.4645 72.4373 29.5526 63.2129C36.5119 55.276 45.0497 48.2593 49.1861 45.2263Z" fill="#D5E4EC"/>
<path fill-rule="evenodd" clip-rule="evenodd" d="M20.5426 104.972L18.3225 101.465L48.6335 82.2785C51.1168 80.7067 53.9723 79.6905 56.8909 79.3402L153.35 67.7627L153.845 71.8838L57.3857 83.4613C55.0766 83.7383 52.8182 84.5422 50.8536 85.7857L20.5426 104.972Z" fill="#89A1B1"/>
<path fill-rule="evenodd" clip-rule="evenodd" d="M56.8077 43.9245C55.6589 54.9398 54.0914 89.2494 73.4455 123.089C74.9684 125.751 78.1637 126.962 81.0665 125.971C94.0306 121.548 129.306 109.053 145.029 98.8795C145.663 98.47 146.042 97.7685 146.043 97.0149C146.056 90.5455 145.808 59.5379 139.989 44.6795C139.464 43.3403 138.328 42.3384 136.929 42.0054C129.193 40.1652 100.929 34.5743 60.8239 39.7996C58.6933 40.0776 57.0306 41.7877 56.8077 43.9245Z" fill="#343A4C"/>
<path fill-rule="evenodd" clip-rule="evenodd" d="M18.6415 77.9346C20.3477 86.3824 24.0051 102.475 29.3281 115.337C31.2458 119.97 34.8195 123.629 39.3917 125.637C48.6195 129.693 62.4453 134.315 73.574 135.126C75.7061 135.281 77.7889 134.984 79.7664 134.241C91.218 129.94 129.984 114.87 148.035 101.529C149.273 100.614 150.024 99.1494 150.045 97.6112C150.178 87.7269 149.782 62.5719 143.261 42.5145C142.688 40.7537 141.298 39.3925 139.544 38.8729C127.962 35.4442 97.0018 28.1437 59.741 34.3805C55.798 35.0408 52.064 36.6724 48.9429 39.0987C45.1855 42.0193 39.5975 46.6021 34.3142 51.8475C28.8434 57.2801 23.853 63.8686 20.63 68.4389C18.7003 71.1753 17.9755 74.6365 18.6415 77.9346ZM74.6764 143.468C74.1099 143.468 73.5415 143.447 72.9707 143.405C57.6415 142.288 40.8372 135.34 36.0515 133.237C29.5099 130.362 24.3984 125.133 21.6582 118.511C16.0678 105.003 12.2707 88.3202 10.5051 79.5781C9.38886 74.0528 10.6066 68.2489 13.8458 63.6552C17.2602 58.8135 22.5678 51.8126 28.4654 45.9566C34.0439 40.4183 39.9099 35.6059 43.8482 32.5451C48.0525 29.2767 53.074 27.0805 58.3707 26.1934C97.3353 19.671 129.765 27.3212 141.9 30.9135C146.276 32.2092 149.736 35.5863 151.155 39.947C158.06 61.1834 158.484 87.426 158.345 97.7226C158.29 101.839 156.28 105.758 152.969 108.205C134.053 122.184 94.3908 137.615 82.6855 142.012C80.108 142.98 77.4209 143.468 74.6764 143.468Z" fill="#28313B"/>
<path fill-rule="evenodd" clip-rule="evenodd" d="M48.5787 90.9626C50.7356 100.143 47.8011 108.687 42.0241 110.044C36.2476 111.401 29.8155 105.059 27.6586 95.8774C25.5016 86.6965 28.4361 78.1535 34.2131 76.7966C39.9901 75.4391 46.4217 81.7817 48.5787 90.9626Z" fill="#29313C"/>
<path fill-rule="evenodd" clip-rule="evenodd" d="M77.4724 6.68431C76.5542 2.43742 72.3671 -0.26067 68.1207 0.65799C63.8743 1.57617 61.1762 5.76325 62.0944 10.0097C63.013 14.2566 67.1996 16.9546 71.4465 16.036C75.6929 15.1178 78.3905 10.9307 77.4724 6.68431Z" fill="#28313B"/>
<path fill-rule="evenodd" clip-rule="evenodd" d="M78.7317 26.1235L68.98 28.2326L69.1565 15.4345L73.2824 14.5422L78.7317 26.1235Z" fill="#28313B"/>
<path fill-rule="evenodd" clip-rule="evenodd" d="M106.429 99.6161L85.416 88.8865L89.1911 81.4932L102.859 88.4726L121.251 53.0257L128.619 56.8487L106.429 99.6161Z" fill="#1FCE6D"/>
</svg>
