<svg width="194" height="200" viewBox="0 0 194 200" fill="none" xmlns="http://www.w3.org/2000/svg">
<path fill-rule="evenodd" clip-rule="evenodd" d="M26.5135 124.026C23.2899 152.083 58.0312 183.285 92.2729 183.209C147.799 183.087 174.09 124.43 169.522 68.9943C164.956 13.5593 136.752 -10.3489 108.609 5.06478C80.4643 20.4785 108.522 71.6487 85.7258 87.1262C62.9301 102.604 30.3665 90.4908 26.5135 124.026Z" fill="#F99D9D"/>
<path fill-rule="evenodd" clip-rule="evenodd" d="M33.7163 43.2585C23.7475 45.6798 22.1419 35.1247 23.3438 27.7143C24.6407 19.7153 28.6516 11.7058 36.1329 7.89683C43.4388 4.17721 53.2251 3.86043 57.3173 12.1815C61.8525 21.4037 50.7021 39.1332 33.7163 43.2585Z" fill="#F99D9D"/>
<path fill-rule="evenodd" clip-rule="evenodd" d="M132.279 177.712L137.48 159.509L134.314 138.72L128.787 125.703C128.787 125.703 137.953 130.194 141.735 124.284C145.518 118.374 149.3 99.6978 151.664 92.6056C154.028 85.5134 159.229 63.5276 156.156 55.9626C153.083 48.3976 150.009 41.365 144.809 37.9073C139.608 34.4496 126.842 24.0477 120.222 24.5205C113.603 24.9933 60.157 25.4661 60.157 25.4661L36.7707 45.3243C36.7707 45.3243 31.8062 51.9981 32.5154 58.8269C33.2246 65.6553 33.9338 78.1848 34.1702 84.8042C34.4066 91.4236 38.4256 115.322 41.026 119.212C43.6265 123.102 59.2293 125.741 59.2293 126.668C59.2293 127.594 56.8653 132.622 56.8653 132.622C56.8653 132.622 50.8757 154.229 53.5556 164.946C56.2355 175.663 55.2104 180.076 58.9929 176.53C62.7754 172.984 62.7754 169.438 66.5579 162.109C70.3405 154.781 72.9409 150.289 72.9409 150.289C72.9409 150.289 80.9787 157.19 86.1797 160.241C91.3806 163.291 93.9811 166.601 98.7092 164.473C103.437 162.346 108.875 157.283 108.875 157.283C108.875 157.283 114.548 149.565 115.731 149.573C116.913 149.58 121.877 159.272 121.877 159.272L125.864 169.201C125.864 169.201 128.733 180.785 132.279 177.712Z" fill="white"/>
<path fill-rule="evenodd" clip-rule="evenodd" d="M153.648 63.3231C153.309 59.1912 150.118 55.8682 146.005 55.3538C137.469 54.2857 120.823 52.8105 93.9809 52.8105C68.2159 52.8105 52.0816 54.1694 43.4438 55.2233C38.9487 55.7713 35.6216 59.6644 35.7686 64.1907C36.1573 76.1756 36.8192 97.9812 36.5346 99.4616C36.3932 100.195 43.519 117.429 44.5185 121.684C45.518 125.939 54.6305 127.121 54.6305 127.121L60.648 130.194C60.648 130.194 53.7558 154.308 60.1573 169.438L71.2863 150.998L72.7048 141.906L69.5133 125.466C69.5133 125.466 83.4277 145.206 96.109 143.788C108.79 142.369 117.267 127.594 117.267 127.594L119.986 150.289L127.788 169.438C127.788 169.438 135.825 148.161 130.861 135.632C125.896 123.102 130.861 127.358 130.861 127.358L144.336 124.757L154.659 75.6512L153.648 63.3231Z" fill="#D5E4EC"/>
<mask id="mask0" mask-type="alpha" maskUnits="userSpaceOnUse" x="23" y="0" width="148" height="200">
<path fill-rule="evenodd" clip-rule="evenodd" d="M23 199.723H170.03V0.472813H23V199.723Z" fill="white"/>
</mask>
<g mask="url(#mask0)">
<path fill-rule="evenodd" clip-rule="evenodd" d="M36.8188 93.5017H152.925V90.0969H36.8188V93.5017Z" fill="#89A1B1"/>
</g>
<path fill-rule="evenodd" clip-rule="evenodd" d="M100.083 24.2176C100.083 20.7335 97.258 17.9094 93.7743 17.9094C90.2902 17.9094 87.4656 20.7335 87.4656 24.2176C87.4656 27.7018 90.2902 30.5259 93.7743 30.5259C97.258 30.5259 100.083 27.7018 100.083 24.2176Z" fill="#28313B"/>
<path fill-rule="evenodd" clip-rule="evenodd" d="M93.7743 41.9754C91.1866 41.9754 89.3147 39.5044 90.0154 37.0137L92.0816 29.6666H95.4669L97.5331 37.0137C98.2338 39.5044 96.362 41.9754 93.7743 41.9754Z" fill="#28313B"/>
<path fill-rule="evenodd" clip-rule="evenodd" d="M146.688 63.8416C146.658 62.234 145.458 60.8875 143.865 60.6742C138.836 60.0005 125.606 58.827 94.4944 58.827C63.3152 58.827 50.0954 60.0061 45.0911 60.6785C43.5048 60.8917 42.3105 62.2251 42.2679 63.8251C42.1526 68.1948 42.301 77.765 44.7133 91.635C46.841 103.868 49.024 110.939 50.3554 114.511C51.0467 116.365 52.7289 117.666 54.6963 117.878C60.7034 118.527 75.1578 119.827 94.4944 119.827C113.756 119.827 128.173 118.538 134.222 117.887C136.215 117.672 137.906 116.342 138.591 114.459C139.946 110.73 142.204 103.429 144.272 91.661C146.6 78.4099 146.773 68.3962 146.688 63.8416Z" fill="#343A4C"/>
<path fill-rule="evenodd" clip-rule="evenodd" d="M63.6692 28.7632C49.4555 34.7915 42.054 44.2766 38.3481 51.1755C36.7349 54.1778 35.8715 57.5679 35.8512 60.9783C35.8143 67.1107 36.2852 77.3797 38.7372 91.4771C41.1699 105.467 44.1434 114.4 46.2096 119.43C46.7859 120.834 48.0852 121.801 49.6006 121.953C57.0512 122.705 72.7916 123.966 94.4989 123.966C116.121 123.966 131.953 122.713 139.466 121.965C141.019 121.81 142.335 120.805 142.899 119.342C144.965 113.991 147.917 104.818 150.257 91.5022C152.747 77.3282 153.104 66.2885 153.095 60.9693V60.9688C153.09 57.5201 152.234 54.1145 150.62 51.1216C146.959 44.3282 139.667 34.9646 125.722 28.932L125.521 28.845L125.432 28.792C123.721 28.1599 114.16 27.2615 94.4654 27.3409C78.003 27.4038 65.6989 28.1268 63.6692 28.7632ZM94.4989 130.89C72.4885 130.89 56.4857 129.607 48.9056 128.842C44.8417 128.432 41.3547 125.834 39.8049 122.061C37.6082 116.711 34.4559 107.269 31.9155 92.6639C29.376 78.0625 28.889 67.3513 28.9273 60.9367C28.9543 56.4015 30.1027 51.8922 32.2484 47.8989C36.4857 40.0119 44.9174 29.1797 61.0209 22.3655C61.7533 22.0563 63.2734 21.4147 73.6228 20.9078C79.585 20.6161 87.0763 20.4417 94.716 20.4161C102.702 20.3901 110.206 20.5329 115.842 20.8213C125.686 21.3235 127.747 22.1476 128.66 22.6591C144.306 29.4837 152.55 40.1088 156.715 47.8355C158.869 51.8322 160.012 56.3698 160.02 60.958C160.03 67.7334 159.529 78.7409 157.076 92.6998C154.64 106.565 151.535 116.197 149.359 121.835C147.848 125.75 144.32 128.44 140.151 128.855C132.51 129.615 116.42 130.89 94.4989 130.89Z" fill="#28313B"/>
<path fill-rule="evenodd" clip-rule="evenodd" d="M67.7312 149.865C66.9265 149.865 66.0485 149.82 65.1204 149.705C61.3317 149.234 55.9492 147.464 51.8215 141.703L54.6352 139.687C61.0986 148.707 71.092 146.101 71.5142 145.986L72.4419 149.322C72.3407 149.35 70.4594 149.865 67.7312 149.865Z" fill="#89A1B1"/>
<path fill-rule="evenodd" clip-rule="evenodd" d="M59.1469 163.198C56.7578 163.198 54.2316 162.549 51.8618 160.779L53.9332 158.006C56.2845 159.761 59.0415 160.201 62.1275 159.313C64.5843 158.605 66.3398 157.296 66.3573 157.283L68.4524 160.039C66.5857 161.462 63.0509 163.198 59.1469 163.198Z" fill="#89A1B1"/>
<path fill-rule="evenodd" clip-rule="evenodd" d="M54.919 181.453C55.9114 184.48 59.1705 186.13 62.1979 185.137C65.2253 184.145 66.8755 180.886 65.8826 177.858C64.8901 174.83 61.6315 173.181 58.6036 174.173C55.5762 175.166 53.9265 178.425 54.919 181.453Z" fill="#28313B"/>
<path fill-rule="evenodd" clip-rule="evenodd" d="M53.7511 199.723C52.2456 198.233 51.1463 196.453 50.483 194.43C49.3799 191.065 49.6532 187.472 51.2522 184.312C52.8518 181.154 55.5856 178.806 58.9506 177.703C62.3161 176.6 65.9099 176.873 69.0693 178.472C72.2291 180.071 74.5761 182.805 75.6797 186.17C76.3426 188.193 76.5109 190.279 76.1794 192.371L71.6201 191.648C71.8362 190.287 71.726 188.928 71.2934 187.607C70.5742 185.414 69.0442 183.632 66.9851 182.59C64.9246 181.548 62.5823 181.37 60.3884 182.089C58.195 182.808 56.413 184.338 55.3709 186.397C54.3284 188.457 54.1501 190.798 54.8693 192.992C55.3019 194.312 56.0177 195.473 56.9974 196.441L53.7511 199.723Z" fill="#28313B"/>
<path fill-rule="evenodd" clip-rule="evenodd" d="M58.9922 180.158C56.8703 180.158 54.8878 179.119 53.683 177.299C53.553 177.111 53.4329 176.91 53.3251 176.702C49.335 169.115 45.571 156.636 50.2736 140.244C50.44 139.655 50.6272 139.038 50.8419 138.368C53.413 130.363 58.5374 125.918 62.3837 123.599L65.9587 129.529C63.1265 131.236 59.3487 134.522 57.4348 140.483C57.2447 141.076 57.0802 141.619 56.9317 142.143C53.1346 155.38 55.6561 165.559 58.77 172.113C59.4698 167.524 60.614 163.012 62.1771 158.677C64.3119 152.769 66.7464 148.477 68.413 145.916C69.1918 144.715 69.7062 144.053 69.7625 143.981L75.2112 148.253C75.2112 148.253 74.8263 148.752 74.2187 149.689C73.0145 151.538 70.6996 155.465 68.6896 161.028C67.1469 165.305 66.0561 169.778 65.4476 174.324V174.914L65.2925 175.227C64.7246 177.612 62.8807 179.45 60.4433 179.996C59.9577 180.105 59.4712 180.158 58.9922 180.158Z" fill="#28313B"/>
<path fill-rule="evenodd" clip-rule="evenodd" d="M121.213 149.865C118.485 149.865 116.603 149.35 116.503 149.322L117.435 145.988L116.968 147.655L117.43 145.986C117.853 146.101 127.845 148.707 134.309 139.687L137.123 141.703C132.995 147.464 127.612 149.234 123.824 149.705C122.896 149.82 122.018 149.865 121.213 149.865Z" fill="#89A1B1"/>
<path fill-rule="evenodd" clip-rule="evenodd" d="M129.797 163.198C125.893 163.198 122.359 161.462 120.491 160.039L122.591 157.286L121.541 158.662L122.587 157.283C122.604 157.296 124.36 158.605 126.817 159.313C129.903 160.201 132.66 159.761 135.01 158.006L137.082 160.779C134.713 162.549 132.186 163.198 129.797 163.198Z" fill="#89A1B1"/>
<path fill-rule="evenodd" clip-rule="evenodd" d="M134.026 181.453C133.033 184.48 129.774 186.13 126.746 185.137C123.719 184.145 122.069 180.886 123.062 177.858C124.054 174.83 127.313 173.181 130.34 174.173C133.368 175.166 135.018 178.425 134.026 181.453Z" fill="#28313B"/>
<path fill-rule="evenodd" clip-rule="evenodd" d="M135.193 199.723L131.947 196.441C132.926 195.473 133.642 194.312 134.075 192.992C134.794 190.798 134.616 188.457 133.573 186.397C132.531 184.338 130.749 182.808 128.556 182.089C126.361 181.37 124.019 181.548 121.959 182.59C119.9 183.632 118.37 185.414 117.651 187.607C117.218 188.928 117.108 190.287 117.324 191.648L112.765 192.371C112.433 190.279 112.602 188.193 113.264 186.17C114.367 182.805 116.715 180.071 119.875 178.472C123.034 176.873 126.628 176.6 129.994 177.703C133.359 178.806 136.092 181.154 137.692 184.312C139.291 187.472 139.564 191.065 138.461 194.43C137.798 196.453 136.698 198.233 135.193 199.723Z" fill="#28313B"/>
<path fill-rule="evenodd" clip-rule="evenodd" d="M129.951 180.158C129.472 180.158 128.986 180.105 128.5 179.996C126.064 179.45 124.222 177.616 123.652 175.235L123.497 174.926L123.496 174.329C122.885 169.77 121.794 165.296 120.253 161.028C118.249 155.476 115.933 151.542 114.73 149.691C114.119 148.752 113.732 148.251 113.728 148.247L119.182 143.981C119.238 144.053 119.751 144.713 120.534 145.916C122.203 148.485 124.638 152.782 126.765 158.676C128.327 163.002 129.472 167.517 130.173 172.117C133.288 165.563 135.811 155.382 132.016 142.151C131.865 141.618 131.696 141.061 131.51 140.485C129.599 134.535 125.825 131.245 122.995 129.534L126.579 123.609C130.42 125.932 135.537 130.379 138.102 138.365C138.312 139.017 138.505 139.653 138.674 140.253C143.375 156.639 139.609 169.118 135.618 176.704C135.511 176.912 135.391 177.112 135.263 177.298C134.058 179.118 132.074 180.158 129.951 180.158Z" fill="#28313B"/>
<path fill-rule="evenodd" clip-rule="evenodd" d="M93.9185 143.361C91.614 143.361 89.2509 143.242 86.8363 143.002C77.3469 142.059 70.4769 139.631 70.1895 139.529L71.354 136.269C71.4211 136.292 78.1786 138.674 87.2646 139.566C95.5441 140.378 107.527 140.086 117.587 134.079L119.362 137.052C112.383 141.219 103.687 143.361 93.9185 143.361Z" fill="#89A1B1"/>
<path fill-rule="evenodd" clip-rule="evenodd" d="M95.0503 168.721C93.4872 168.721 91.9161 168.456 90.4026 167.921C84.9851 166.003 79.1151 161.356 74.7 155.49C70.6286 150.08 65.7756 140.913 65.7756 127.963L65.7789 127.807L65.83 126.676L72.7463 126.998L72.6995 128.039C72.7184 139.036 76.8035 146.771 80.2319 151.326C82.9057 154.879 87.7789 159.647 92.7128 161.394C94.6116 162.065 96.6863 161.892 98.4049 160.916C102.532 158.574 106.043 155.293 108.841 151.164C113.178 144.764 115.635 136.522 116.144 126.668L123.059 127.025C122.484 138.159 119.629 147.587 114.573 155.048C111.173 160.065 106.883 164.066 101.822 166.938C99.7392 168.12 97.4049 168.721 95.0503 168.721Z" fill="#28313B"/>
<path fill-rule="evenodd" clip-rule="evenodd" d="M101.913 141.906C101.913 136.542 98.9258 132.194 95.2407 132.194C91.5551 132.194 88.5674 136.542 88.5674 141.906C88.5674 147.27 91.5551 151.618 95.2407 151.618C98.9258 151.618 101.913 147.27 101.913 141.906Z" fill="#2FA9E0"/>
<path fill-rule="evenodd" clip-rule="evenodd" d="M95.2407 133.925C92.5617 133.925 90.2989 137.579 90.2989 141.906C90.2989 146.232 92.5617 149.887 95.2407 149.887C97.9197 149.887 100.183 146.232 100.183 141.906C100.183 137.579 97.9197 133.925 95.2407 133.925ZM95.2407 153.349C90.5282 153.349 86.8369 148.323 86.8369 141.906C86.8369 135.49 90.5282 130.463 95.2407 130.463C99.9532 130.463 103.644 135.49 103.644 141.906C103.644 148.323 99.9532 153.349 95.2407 153.349Z" fill="#28313B"/>
<path fill-rule="evenodd" clip-rule="evenodd" d="M107.861 108.597L73.4727 78.8247L78.0046 73.5902L112.393 103.363L107.861 108.597Z" fill="#E94C35"/>
<path fill-rule="evenodd" clip-rule="evenodd" d="M82.6205 108.597L78.0886 103.363L112.477 73.5902L117.009 78.8247L82.6205 108.597Z" fill="#E94C35"/>
</svg>
