<svg width="194" height="200" viewBox="0 0 194 200" fill="none" xmlns="http://www.w3.org/2000/svg">
<mask id="mask0" mask-type="alpha" maskUnits="userSpaceOnUse" x="45" y="23" width="145" height="177">
<path fill-rule="evenodd" clip-rule="evenodd" d="M45.1577 23.4895H189.182V200H45.1577V23.4895Z" fill="white"/>
</mask>
<g mask="url(#mask0)">
<path fill-rule="evenodd" clip-rule="evenodd" d="M45.205 154.176C43.4312 193.604 91.9159 207.468 132.123 196.234C182.28 182.219 192.591 139.75 188.307 87.7571C184.024 35.7638 157.571 13.3398 131.175 27.7961C104.778 42.2529 131.093 90.2458 109.713 104.763C88.3323 119.28 46.6276 122.547 45.205 154.176Z" fill="#F99D9D"/>
</g>
<path fill-rule="evenodd" clip-rule="evenodd" d="M26.0925 45.7366C16.4739 45.498 17.5936 35.5472 20.4899 29.129C23.6158 22.2009 29.2012 15.9255 36.9058 14.3007C44.43 12.7135 53.3701 14.8142 55.0464 23.3481C56.9041 32.8062 42.4819 46.1432 26.0925 45.7366Z" fill="#F99D9D"/>
<path fill-rule="evenodd" clip-rule="evenodd" d="M135.287 172.571C135.287 172.571 138.994 144.498 138.914 142.794C138.835 141.09 133.735 128.893 133.735 128.893L144.6 125.574C144.6 125.574 155.686 123.184 157.904 113.4C160.121 103.617 166.108 61.7104 159.899 50.6239C153.691 39.5374 141.939 22.6988 135.287 21.9161C128.635 21.1339 65.8858 23.7946 65.8858 23.7946C65.8858 23.7946 43.4912 28.2292 42.826 28.4509C42.1608 28.6727 36.1741 34.6594 36.1741 34.6594C36.1741 34.6594 28.4136 78.3401 28.4136 79.6704C28.4136 81.0008 26.418 95.635 29.3005 99.8478C32.183 104.061 34.1785 108.939 37.7262 110.713C41.2739 112.486 57.4601 121.577 57.4601 121.577C57.4601 121.577 51.03 123.597 43.7129 124.25C36.3958 124.903 14.7227 126.455 14.7227 126.455C14.7227 126.455 26.3976 136.433 28.8468 137.985C31.296 139.537 41.9391 145.012 47.0388 145.49C52.1386 145.968 63.4468 145.709 63.4468 145.709C63.4468 145.709 66.7728 157.054 69.4335 161.489C72.0943 165.923 76.5289 174.127 79.4113 175.679C82.2938 177.231 91.6065 178.562 94.0455 176.123C96.4845 173.684 103.58 163.706 104.245 162.154C104.91 160.602 113.114 152.398 113.558 151.289C114.001 150.18 115.775 146.34 115.775 146.34L135.287 172.571Z" fill="white"/>
<path fill-rule="evenodd" clip-rule="evenodd" d="M44.8446 110.423C44.8446 110.423 37.2228 103.775 39.9794 103.936C42.7364 104.099 66.4131 108.64 78.5754 107.991C90.7381 107.342 124.956 107.18 129.983 106.693C135.01 106.207 139.713 105.234 142.632 109.612C145.551 113.991 152.849 120.316 143.443 121.451C134.037 122.586 126.091 120.478 126.091 120.478L120.902 123.073C120.902 123.073 140.362 151.452 134.199 167.02C128.037 182.588 129.172 164.426 128.362 162.317C127.551 160.209 117.982 146.911 117.334 146.425C116.685 145.938 113.405 150.384 113.405 150.384C113.405 150.384 106.874 158.182 104.928 145.046C103.288 133.978 104.36 126.235 104.36 126.235C104.36 126.235 63.6561 132.23 70.7918 119.218C77.927 106.207 62.7776 126.154 62.7776 126.154L62.8388 131.83C62.8388 131.83 38.0335 132.965 33.8171 128.748C29.6007 124.532 20.9505 124.831 20.735 125.574C20.5191 126.316 36.8982 143.795 37.7093 143.975C38.5199 144.154 60.4126 146.046 60.4126 146.046L62.7776 121.613L44.8446 110.423Z" fill="#D5E4EC"/>
<path fill-rule="evenodd" clip-rule="evenodd" d="M64.7158 142.794C64.7353 142.763 64.7433 142.745 64.7433 142.745L61.5322 141.012C61.9203 140.293 65.8591 133.986 84.3699 133.986C102.648 133.986 111.461 139.463 111.827 139.697L109.873 142.778C109.791 142.726 101.471 137.634 84.3699 137.634C68.1189 137.634 64.7482 142.742 64.7158 142.794Z" fill="#89A1B1"/>
<path fill-rule="evenodd" clip-rule="evenodd" d="M160.872 94.8813L145.523 66.2481C144.529 64.394 142.602 63.2764 140.502 63.3314L28.943 66.2609L28.8472 62.6135L140.407 59.684C143.896 59.5931 147.089 61.4472 148.739 64.5243L164.088 93.1572L160.872 94.8813Z" fill="#89A1B1"/>
<path fill-rule="evenodd" clip-rule="evenodd" d="M88.5301 180.439C85.707 180.439 82.9256 179.622 80.5385 178.044C75.7181 174.853 71.8126 171.179 68.5988 166.811C63.5558 159.958 60.4977 151.697 59.5088 142.259C57.927 127.159 61.3939 116.874 69.8139 111.69L69.848 111.67C76.6152 107.605 85.0587 107.233 90.9505 107.637C96.4627 108.016 106.723 108.72 113.248 115.855C113.475 116.101 113.71 116.373 113.957 116.674L108.311 121.299C108.155 121.108 108.011 120.942 107.872 120.79C103.66 116.185 96.6715 115.345 90.4511 114.918C81.6871 114.317 76.4653 116.213 73.6236 117.915C67.7287 121.555 65.4857 129.27 66.7664 141.499C68.162 154.818 74.1505 165.065 84.5655 171.958C86.3021 173.106 88.472 173.438 90.5181 172.869C92.8613 172.217 104.877 167.748 111.359 143.707L118.405 145.607C111.081 172.771 96.7057 178.723 92.4742 179.9C91.1744 180.261 89.8476 180.439 88.5301 180.439Z" fill="#28313B"/>
<path fill-rule="evenodd" clip-rule="evenodd" d="M43.8251 35.4807C45.4441 34.894 90.3461 23.6643 127.928 29.0005C131.408 29.4945 134.282 31.8812 135.289 35.1162C138.282 44.7251 143.754 64.3552 141.806 93.2076C141.553 96.9557 138.447 99.9406 134.543 100.218C115.263 101.585 59.61 104.6 36.6632 95.8657C35.1732 95.2989 34.1994 93.9144 34.2175 92.3774C34.3071 84.8776 34.9883 63.7082 40.2987 39.7282C40.7124 37.8594 42.0229 36.2914 43.8251 35.4807Z" fill="#343A4C"/>
<path fill-rule="evenodd" clip-rule="evenodd" d="M137.087 128.858C135.007 128.833 132.649 128.804 130.022 128.823L129.971 121.525C132.668 121.507 135.063 121.536 137.176 121.561C140.334 121.599 143.061 121.632 145.754 121.499C151.178 121.232 155.765 117.332 156.909 112.014C161.792 89.338 159.497 74.2343 158.394 66.9757C158.234 65.9243 158.096 65.0161 158.004 64.2489C157.922 63.5633 157.871 62.9048 157.828 62.2963C157.38 55.9292 152.571 43.303 143.071 30.6281C140.423 27.0924 137.523 23.7833 134.258 23.503C100.501 20.6099 54.6012 26.1074 42.5254 31.2276C39.9764 32.3083 38.0558 34.6006 37.117 37.6817C33.4952 49.5726 31.466 65.7602 30.3312 91.809C29.999 99.4001 33.8132 102.526 35.4686 103.517C51.3276 113.011 64.8629 116.457 64.9977 116.491L63.2287 123.571C62.6349 123.423 48.4988 119.823 31.7196 109.778C25.9352 106.313 22.6908 99.4773 23.0403 91.4906C24.2034 64.7948 26.3258 48.0662 30.1365 35.5558C31.6921 30.4462 35.1697 26.4196 39.6771 24.5088C46.3374 21.6848 61.5267 18.8564 79.3174 17.1269C99.2624 15.1886 118.995 14.8706 134.881 16.232C141.854 16.8298 146.621 23.1939 148.911 26.2524C156.434 36.2901 164.361 51.1704 165.108 61.785C165.144 62.2999 165.186 62.8493 165.25 63.3806C165.329 64.0356 165.458 64.8901 165.608 65.8795C166.777 73.5677 169.208 89.5655 164.044 113.55C162.205 122.093 154.832 128.359 146.113 128.788C144.506 128.868 142.925 128.893 141.281 128.893C139.941 128.893 138.56 128.876 137.087 128.858Z" fill="#28313B"/>
<path fill-rule="evenodd" clip-rule="evenodd" d="M149.356 78.2128C149.586 85.7658 151.584 91.8337 153.818 91.7658C156.053 91.6975 157.678 85.5197 157.448 77.9663C157.218 70.4137 155.22 64.3454 152.986 64.4137C150.751 64.4816 149.126 70.6598 149.356 78.2128Z" fill="#28313B"/>
<path fill-rule="evenodd" clip-rule="evenodd" d="M109.511 6.52274C109.654 2.85356 112.745 -0.00497864 116.414 0.138702C120.084 0.281939 122.942 3.37285 122.799 7.04203C122.655 10.7112 119.564 13.5697 115.895 13.4261C112.226 13.2828 109.368 10.1919 109.511 6.52274Z" fill="#28313B"/>
<path fill-rule="evenodd" clip-rule="evenodd" d="M111.357 21.5869L119.783 21.9164L117.713 12.5905L114.148 12.4512L111.357 21.5869Z" fill="#28313B"/>
<path fill-rule="evenodd" clip-rule="evenodd" d="M77.3364 135.81C77.3364 130.156 80.4854 125.574 84.3697 125.574C88.2539 125.574 91.4025 130.156 91.4025 135.81C91.4025 141.464 88.2539 146.046 84.3697 146.046C80.4854 146.046 77.3364 141.464 77.3364 135.81Z" fill="#2FA9E0"/>
<path fill-rule="evenodd" clip-rule="evenodd" d="M84.3699 127.398C81.5464 127.398 79.161 131.25 79.161 135.81C79.161 140.37 81.5464 144.222 84.3699 144.222C87.1934 144.222 89.5787 140.37 89.5787 135.81C89.5787 131.25 87.1934 127.398 84.3699 127.398ZM84.3699 147.871C79.4027 147.871 75.5122 142.573 75.5122 135.81C75.5122 129.047 79.4027 123.749 84.3699 123.749C89.3366 123.749 93.2275 129.047 93.2275 135.81C93.2275 142.573 89.3366 147.871 84.3699 147.871Z" fill="#28313B"/>
<path fill-rule="evenodd" clip-rule="evenodd" d="M118.713 145.709L115.502 143.976C119.049 137.402 124.44 134.834 128.338 133.836C132.531 132.763 135.903 133.239 136.044 133.26L135.519 136.87C135.063 136.806 124.267 135.416 118.713 145.709Z" fill="#89A1B1"/>
<path fill-rule="evenodd" clip-rule="evenodd" d="M124.965 157.935L122.125 155.644C124.625 152.536 131.352 147.503 138.914 150.695L137.495 154.057C134.646 152.854 131.714 153.1 128.78 154.789C126.446 156.134 124.98 157.917 124.965 157.935Z" fill="#89A1B1"/>
<path fill-rule="evenodd" clip-rule="evenodd" d="M139.441 176.104C138.854 179.41 135.697 181.614 132.391 181.027C129.085 180.439 126.881 177.283 127.468 173.977C128.055 170.671 131.212 168.466 134.518 169.054C137.824 169.641 140.029 172.797 139.441 176.104Z" fill="#28313B"/>
<path fill-rule="evenodd" clip-rule="evenodd" d="M143.365 194.997L139.492 192.053C140.371 190.897 140.946 189.58 141.202 188.138C142.081 183.194 138.773 178.457 133.828 177.578C128.883 176.7 124.144 180.007 123.266 184.952C123.01 186.393 123.096 187.828 123.523 189.216L118.873 190.645C118.217 188.512 118.083 186.31 118.476 184.101C119.824 176.515 127.093 171.44 134.679 172.788C142.265 174.136 147.34 181.403 145.992 188.989C145.6 191.199 144.716 193.22 143.365 194.997Z" fill="#28313B"/>
<path fill-rule="evenodd" clip-rule="evenodd" d="M115.509 122.862C114.505 122.862 113.568 122.992 112.772 123.264C111.301 123.767 110.848 124.584 110.636 125.155C108.577 130.691 110.987 136.29 118.447 143.309L118.557 143.413C118.61 143.463 118.662 143.513 118.715 143.564C119.641 144.454 120.572 145.4 121.466 146.36C127.534 152.876 131.757 159.795 134.033 166.948C136.435 159.272 137.519 147.68 130.749 133.723C128.945 130.006 126.352 127.075 123.042 125.014C120.835 123.64 117.968 122.862 115.509 122.862ZM134.011 175.424C133.926 175.424 133.842 175.422 133.757 175.419C130.785 175.311 128.256 173.314 127.463 170.451C125.641 163.888 121.826 157.454 116.124 151.332C115.322 150.471 114.488 149.622 113.643 148.811L113.445 148.621C110.952 146.277 107.373 142.648 105.061 138.221C102.322 132.973 101.896 127.722 103.796 122.612C104.909 119.619 107.197 117.457 110.413 116.358C116.002 114.449 122.719 116.218 126.898 118.818C131.397 121.62 134.901 125.563 137.315 130.539C145.654 147.731 143.592 161.991 140.394 170.927C139.423 173.642 136.878 175.424 134.011 175.424Z" fill="#28313B"/>
<path fill-rule="evenodd" clip-rule="evenodd" d="M55.9885 146.663C50.9819 141.12 50.3663 135.18 50.7317 131.172C51.1242 126.863 52.7016 123.845 52.7686 123.718L55.9929 125.427L54.381 124.572L55.9956 125.422C55.7819 125.831 50.8572 135.538 58.6963 144.218L55.9885 146.663Z" fill="#89A1B1"/>
<path fill-rule="evenodd" clip-rule="evenodd" d="M36.3522 142.342C32.9527 134.869 37.7992 128.007 40.8369 125.422L43.2015 128.201L42.0192 126.812L43.2055 128.198C43.1877 128.213 41.4454 129.728 40.166 132.099C38.5584 135.078 38.393 138.016 39.6733 140.831L36.3522 142.342Z" fill="#89A1B1"/>
<path fill-rule="evenodd" clip-rule="evenodd" d="M20.2869 116.827C16.27 114.277 10.9467 115.465 8.39639 119.482C5.84562 123.498 7.03409 128.822 11.0505 131.372C15.0669 133.923 20.3906 132.734 22.9414 128.718C25.4917 124.701 24.3033 119.378 20.2869 116.827Z" fill="#28313B"/>
<path fill-rule="evenodd" clip-rule="evenodd" d="M21.588 125.348C18.5826 122.497 14.9476 114.681 15.9396 107.422C16.2341 105.269 16.9152 103.261 17.9649 101.453L22.1724 103.895C21.4434 105.151 20.968 106.56 20.76 108.081C19.9835 113.763 23.066 120.045 24.9361 121.819L21.588 125.348Z" fill="#28313B"/>
<path fill-rule="evenodd" clip-rule="evenodd" d="M55.3872 149.145C54.5894 149.145 53.7943 149.12 53.0018 149.068C33.934 147.825 22.5553 138.988 16.3672 131.793C14.4307 129.539 14.1805 126.326 15.7437 123.798C17.306 121.27 20.2905 120.057 23.1708 120.781C39.8754 124.977 60.2036 117.867 60.4072 117.795L62.859 124.668C62.1615 124.918 49.3615 129.411 34.9433 129.412C31.0005 129.412 26.938 129.075 22.9668 128.225C28.4497 134.105 37.993 140.777 53.4772 141.786C56.7668 142.001 60.1375 141.656 63.4972 140.763L65.3734 147.815C62.0475 148.7 58.6981 149.145 55.3872 149.145Z" fill="#28313B"/>
<path fill-rule="evenodd" clip-rule="evenodd" d="M11.9846 116.26L15.0662 121.851C15.0662 121.851 6.91768 124.686 6.12966 124.193C5.34163 123.699 3.33897 119.293 4.21923 118.819" fill="#28313B"/>
<path fill-rule="evenodd" clip-rule="evenodd" d="M106.679 75.9787C96.3558 75.7424 99.0764 49.9765 100.098 50C101.119 50.0235 101.497 67.6559 106.866 67.7787C112.235 67.9016 113.42 50.3047 114.441 50.3282C115.463 50.3517 117.001 76.2151 106.679 75.9787Z" fill="#2FA9E0"/>
<path fill-rule="evenodd" clip-rule="evenodd" d="M69.3573 75.7478C60.5936 75.5474 62.9032 53.6729 63.7706 53.6928C64.6375 53.7128 64.9586 68.6822 69.5165 68.7864C74.0748 68.891 75.0806 53.9518 75.9475 53.9718C76.8145 53.9913 78.1209 75.9487 69.3573 75.7478Z" fill="#2FA9E0"/>
</svg>
