<svg width="194" height="200" viewBox="0 0 194 200" fill="none" xmlns="http://www.w3.org/2000/svg">
<mask id="mask0" mask-type="alpha" maskUnits="userSpaceOnUse" x="4" y="23" width="145" height="177">
<path fill-rule="evenodd" clip-rule="evenodd" d="M148.842 23.4895H4.81757V200H148.842V23.4895Z" fill="white"/>
</mask>
<g mask="url(#mask0)">
<path fill-rule="evenodd" clip-rule="evenodd" d="M148.795 154.176C150.569 193.604 102.084 207.468 61.877 196.234C11.7196 182.219 1.40919 139.75 5.69301 87.7571C9.97638 35.7638 36.4287 13.3398 62.8252 27.7961C89.2216 42.2529 62.9068 90.2458 84.2872 104.763C105.668 119.28 147.372 122.547 148.795 154.176" fill="#D1DADF"/>
</g>
<path fill-rule="evenodd" clip-rule="evenodd" d="M167.908 45.7366C177.527 45.498 176.407 35.5472 173.511 29.129C170.385 22.2009 164.799 15.9255 157.095 14.3007C149.57 12.7135 140.63 14.8142 138.954 23.3481C137.096 32.8062 151.519 46.1432 167.908 45.7366" fill="#D1DADF"/>
<path fill-rule="evenodd" clip-rule="evenodd" d="M58.7128 172.571C58.7128 172.571 55.0064 144.498 55.0858 142.794C55.1651 141.09 60.2649 128.893 60.2649 128.893L49.4002 125.574C49.4002 125.574 38.3137 123.184 36.0964 113.4C33.8791 103.617 27.8924 61.7104 34.1008 50.6239C40.3093 39.5375 52.0609 22.6989 58.7128 21.9162C65.3647 21.1339 128.114 23.7947 128.114 23.7947C128.114 23.7947 150.509 28.2293 151.174 28.451C151.839 28.6727 157.826 34.6594 157.826 34.6594C157.826 34.6594 165.586 78.3401 165.586 79.6705C165.586 81.0009 167.582 95.635 164.7 99.8479C161.817 104.061 159.821 108.939 156.274 110.713C152.726 112.486 136.54 121.577 136.54 121.577C136.54 121.577 142.97 123.597 150.287 124.251C157.604 124.903 179.277 126.455 179.277 126.455C179.277 126.455 167.602 136.433 165.153 137.985C162.704 139.537 152.061 145.012 146.961 145.49C141.861 145.968 130.553 145.709 130.553 145.709C130.553 145.709 127.227 157.054 124.566 161.489C121.906 165.923 117.471 174.127 114.589 175.679C111.706 177.231 102.394 178.562 99.9545 176.123C97.5155 173.684 90.4201 163.706 89.755 162.154C89.0898 160.602 80.8858 152.398 80.4423 151.289C79.9989 150.18 78.225 146.34 78.225 146.34L58.7128 172.571Z" fill="white"/>
<path fill-rule="evenodd" clip-rule="evenodd" d="M149.155 110.423C149.155 110.423 156.777 103.775 154.021 103.937C151.264 104.099 127.587 108.64 115.425 107.991C103.262 107.342 69.0441 107.18 64.0171 106.693C58.9896 106.207 54.2867 105.234 51.3679 109.612C48.4486 113.991 41.151 120.316 50.5568 121.451C59.9625 122.586 67.9089 120.478 67.9089 120.478L73.0982 123.073C73.0982 123.073 53.6379 151.452 59.8007 167.02C65.963 182.588 64.8277 164.426 65.6384 162.317C66.4495 160.209 76.0175 146.911 76.6663 146.425C77.3146 145.938 80.5949 150.384 80.5949 150.384C80.5949 150.384 87.1262 158.182 89.0721 145.046C90.7115 133.978 89.6397 126.235 89.6397 126.235C89.6397 126.235 130.344 132.231 123.208 119.219C116.073 106.207 131.222 126.154 131.222 126.154L131.161 131.83C131.161 131.83 155.967 132.965 160.183 128.748C164.399 124.532 173.049 124.831 173.265 125.574C173.481 126.316 157.102 143.795 156.291 143.975C155.48 144.154 133.587 146.046 133.587 146.046L131.222 121.613L149.155 110.423Z" fill="#D5E4EC"/>
<path fill-rule="evenodd" clip-rule="evenodd" d="M129.285 142.794C129.265 142.763 129.257 142.745 129.257 142.745L132.468 141.012C132.08 140.293 128.141 133.986 109.631 133.986C91.3525 133.986 82.5397 139.463 82.1734 139.697L84.1277 142.778C84.2097 142.726 92.529 137.634 109.631 137.634C125.882 137.634 129.252 142.742 129.285 142.794" fill="#89A1B1"/>
<path fill-rule="evenodd" clip-rule="evenodd" d="M33.1275 94.8813L48.4766 66.2481C49.4708 64.394 51.3976 63.2764 53.4978 63.3314L165.057 66.2609L165.153 62.6135L53.5932 59.684C50.1045 59.5931 46.9107 61.4472 45.261 64.5243L29.9116 93.1572L33.1275 94.8813Z" fill="#89A1B1"/>
<path fill-rule="evenodd" clip-rule="evenodd" d="M105.47 180.439C108.293 180.439 111.074 179.622 113.462 178.044C118.282 174.853 122.187 171.179 125.401 166.811C130.444 159.958 133.502 151.697 134.491 142.259C136.073 127.159 132.606 116.874 124.186 111.69L124.152 111.67C117.385 107.605 108.941 107.233 103.05 107.637C97.5373 108.016 87.2775 108.72 80.7524 115.855C80.5254 116.101 80.2903 116.373 80.0433 116.674L85.6886 121.299C85.8451 121.108 85.9888 120.942 86.128 120.79C90.3396 116.185 97.3285 115.345 103.549 114.918C112.313 114.317 117.535 116.213 120.376 117.915C126.271 121.555 128.514 129.27 127.234 141.499C125.838 154.818 119.85 165.065 109.434 171.958C107.698 173.106 105.528 173.438 103.482 172.869C101.139 172.217 89.1227 167.748 82.6407 143.707L75.5945 145.607C82.9187 172.771 97.2943 178.723 101.526 179.9C102.826 180.261 104.152 180.439 105.47 180.439" fill="#28313B"/>
<path fill-rule="evenodd" clip-rule="evenodd" d="M150.175 35.4807C148.556 34.894 103.654 23.6643 66.0716 29.0005C62.5918 29.4945 59.7182 31.8812 58.7106 35.1162C55.7182 44.7251 50.2463 64.3552 52.194 93.2076C52.4468 96.9557 55.5532 99.9406 59.457 100.218C78.7372 101.585 134.39 104.6 157.337 95.8657C158.827 95.2989 159.801 93.9144 159.782 92.3774C159.693 84.8776 159.012 63.7082 153.701 39.7282C153.288 37.8594 151.977 36.2914 150.175 35.4807" fill="#343A4C"/>
<path fill-rule="evenodd" clip-rule="evenodd" d="M56.9127 128.858C58.993 128.833 61.3513 128.804 63.9779 128.823L64.0289 121.525C61.3318 121.506 58.9371 121.536 56.824 121.561C53.6662 121.599 50.9389 121.632 48.2462 121.499C42.8218 121.232 38.2351 117.332 37.0906 112.014C32.2076 89.338 34.503 74.2342 35.6063 66.9757C35.7664 65.9242 35.9043 65.016 35.9957 64.2488C36.0781 63.5632 36.1291 62.9047 36.1722 62.2963C36.6196 55.9291 41.4289 43.3029 50.9287 30.628C53.577 27.0923 56.4768 23.7832 59.7424 23.5029C93.4994 20.6098 139.399 26.1074 151.475 31.2275C154.024 32.3083 155.944 34.6005 156.883 37.6817C160.505 49.5726 162.534 65.7601 163.669 91.8089C164.001 99.4001 160.187 102.526 158.531 103.517C142.672 113.011 129.137 116.457 129.002 116.491L130.771 123.571C131.365 123.423 145.501 119.823 162.28 109.778C168.065 106.313 171.309 99.4772 170.96 91.4905C169.797 64.7947 167.674 48.0661 163.864 35.5557C162.308 30.4462 158.83 26.4196 154.323 24.5087C147.663 21.6848 132.473 18.8564 114.683 17.1269C94.7376 15.1885 75.005 14.8706 59.1194 16.232C52.146 16.8298 47.3793 23.1938 45.0888 26.2524C37.5655 36.2901 29.6387 51.1703 28.8923 61.785C28.856 62.2998 28.8138 62.8493 28.75 63.3805C28.6715 64.0355 28.542 64.8901 28.3917 65.8794C27.2232 73.5677 24.7917 89.5655 29.9562 113.549C31.7948 122.093 39.1682 128.359 47.8866 128.788C49.4937 128.867 51.075 128.893 52.7194 128.893C54.0591 128.893 55.4405 128.876 56.9127 128.858Z" fill="#28313B"/>
<path fill-rule="evenodd" clip-rule="evenodd" d="M44.6438 78.2128C44.4137 85.7658 42.4163 91.8336 40.1817 91.7658C37.9471 91.6975 36.3219 85.5196 36.552 77.9662C36.7817 70.4137 38.7795 64.3454 41.0141 64.4137C43.2487 64.4815 44.874 70.6598 44.6438 78.2128" fill="#28313B"/>
<path fill-rule="evenodd" clip-rule="evenodd" d="M84.489 6.52277C84.3457 2.85359 81.2548 -0.00494813 77.5857 0.138733C73.9165 0.28197 71.0579 3.37288 71.2012 7.04206C71.3449 10.7112 74.4358 13.5698 78.1049 13.4261C81.7741 13.2829 84.6322 10.1919 84.489 6.52277" fill="#28313B"/>
<path fill-rule="evenodd" clip-rule="evenodd" d="M82.6431 21.587L74.2169 21.9165L76.2865 12.5905L79.8519 12.4513L82.6431 21.587Z" fill="#28313B"/>
<path fill-rule="evenodd" clip-rule="evenodd" d="M116.664 135.81C116.664 130.156 113.515 125.574 109.63 125.574C105.746 125.574 102.597 130.156 102.597 135.81C102.597 141.464 105.746 146.046 109.63 146.046C113.515 146.046 116.664 141.464 116.664 135.81" fill="#2CABE3"/>
<path fill-rule="evenodd" clip-rule="evenodd" d="M109.631 127.398C112.454 127.398 114.84 131.25 114.84 135.81C114.84 140.37 112.454 144.222 109.631 144.222C106.807 144.222 104.422 140.37 104.422 135.81C104.422 131.25 106.807 127.398 109.631 127.398M109.631 147.871C114.598 147.871 118.488 142.573 118.488 135.81C118.488 129.047 114.598 123.749 109.631 123.749C104.664 123.749 100.773 129.047 100.773 135.81C100.773 142.573 104.664 147.871 109.631 147.871" fill="#28313B"/>
<path fill-rule="evenodd" clip-rule="evenodd" d="M75.287 145.709L78.498 143.976C74.9513 137.403 69.5597 134.834 65.6617 133.836C61.4692 132.763 58.0972 133.239 57.9557 133.26L58.4808 136.87C58.9371 136.806 69.7331 135.416 75.287 145.709" fill="#89A1B1"/>
<path fill-rule="evenodd" clip-rule="evenodd" d="M69.0351 157.935L71.875 155.644C69.3752 152.536 62.6484 147.503 55.0856 150.695L56.5047 154.057C59.3539 152.854 62.2856 153.1 65.2196 154.789C67.5544 156.134 69.0205 157.917 69.0351 157.935" fill="#89A1B1"/>
<path fill-rule="evenodd" clip-rule="evenodd" d="M54.5589 176.104C55.1464 179.41 58.3025 181.614 61.609 181.027C64.9154 180.439 67.1194 177.283 66.5323 173.977C65.9447 170.671 62.7881 168.466 59.4821 169.054C56.1757 169.641 53.9713 172.797 54.5589 176.104" fill="#28313B"/>
<path fill-rule="evenodd" clip-rule="evenodd" d="M50.6352 194.997L54.5084 192.053C53.6295 190.897 53.0543 189.58 52.7984 188.138C51.9199 183.194 55.2277 178.457 60.1723 177.578C65.1177 176.7 69.8561 180.007 70.7346 184.952C70.9909 186.393 70.9044 187.828 70.4774 189.216L75.1279 190.645C75.7838 188.512 75.9173 186.31 75.5248 184.101C74.1767 176.515 66.9071 171.44 59.3213 172.788C51.7354 174.136 46.6605 181.403 48.0082 188.989C48.4006 191.199 49.2844 193.22 50.6352 194.997" fill="#28313B"/>
<path fill-rule="evenodd" clip-rule="evenodd" d="M78.491 122.862C79.4954 122.862 80.432 122.992 81.228 123.264C82.6994 123.767 83.1517 124.584 83.3641 125.155V125.155C85.4227 130.691 83.0134 136.29 75.5526 143.309L75.4426 143.413C75.3903 143.463 75.3375 143.513 75.2848 143.564C74.3588 144.454 73.428 145.4 72.5344 146.36C66.4657 152.876 62.2431 159.795 59.9672 166.948C57.5646 159.273 56.4808 147.681 63.2511 133.724C65.0546 130.006 67.6479 127.075 70.9584 125.014C73.1655 123.64 76.032 122.862 78.491 122.862M59.9894 175.424C60.0737 175.424 60.1584 175.422 60.2431 175.419C63.2147 175.311 65.7442 173.314 66.5371 170.451C68.3588 163.888 72.1739 157.454 77.8759 151.332C78.6777 150.471 79.5123 149.622 80.357 148.811L80.5553 148.622C83.0475 146.277 86.6271 142.648 88.9389 138.221C91.6781 132.973 92.1043 127.722 90.2045 122.612C89.0914 119.619 86.8032 117.457 83.5868 116.358C77.9983 114.449 71.2808 116.218 67.1016 118.818C62.6032 121.62 59.0989 125.563 56.6852 130.539C48.3455 147.731 50.4076 161.991 53.6063 170.927C54.5766 173.642 57.1216 175.424 59.9894 175.424" fill="#28313B"/>
<path fill-rule="evenodd" clip-rule="evenodd" d="M138.011 146.663C143.018 141.12 143.634 135.18 143.268 131.172C142.876 126.863 141.298 123.845 141.231 123.718L138.007 125.427L139.619 124.572L138.004 125.422C138.218 125.831 143.143 135.538 135.304 144.218L138.011 146.663Z" fill="#89A1B1"/>
<path fill-rule="evenodd" clip-rule="evenodd" d="M157.648 142.342C161.048 134.869 156.201 128.007 153.164 125.422L150.799 128.202L151.981 126.812L150.795 128.198C150.813 128.213 152.555 129.728 153.835 132.099C155.442 135.078 155.607 138.016 154.327 140.831L157.648 142.342Z" fill="#89A1B1"/>
<path fill-rule="evenodd" clip-rule="evenodd" d="M173.713 116.827C177.73 114.277 183.053 115.465 185.604 119.482C188.154 123.498 186.966 128.822 182.95 131.372C178.933 133.923 173.609 132.734 171.059 128.718C168.508 124.701 169.697 119.378 173.713 116.827" fill="#28313B"/>
<path fill-rule="evenodd" clip-rule="evenodd" d="M172.412 125.348C175.417 122.497 179.052 114.681 178.06 107.422C177.766 105.269 177.085 103.26 176.035 101.453L171.828 103.895C172.557 105.151 173.032 106.56 173.24 108.081C174.016 113.763 170.934 120.045 169.064 121.819L172.412 125.348Z" fill="#28313B"/>
<path fill-rule="evenodd" clip-rule="evenodd" d="M138.613 149.145C139.411 149.145 140.206 149.12 140.998 149.068C160.066 147.825 171.445 138.988 177.633 131.793C179.569 129.539 179.819 126.326 178.256 123.798C176.694 121.27 173.709 120.057 170.829 120.781C154.125 124.977 133.796 117.867 133.593 117.795L131.141 124.668C131.839 124.918 144.639 129.411 159.057 129.412C163 129.412 167.062 129.075 171.033 128.225C165.55 134.105 156.007 140.777 140.523 141.786C137.233 142.001 133.862 141.656 130.503 140.763L128.627 147.815C131.952 148.7 135.302 149.145 138.613 149.145" fill="#28313B"/>
<path fill-rule="evenodd" clip-rule="evenodd" d="M182.015 116.26L178.934 121.851C178.934 121.851 187.082 124.686 187.87 124.193C188.658 123.699 190.661 119.293 189.781 118.819" fill="#28313B"/>
<path fill-rule="evenodd" clip-rule="evenodd" d="M87.3214 75.9787C97.6442 75.7424 94.9236 49.9765 93.9019 50C92.8806 50.0235 92.5028 67.6559 87.1338 67.7787C81.7649 67.9016 80.5799 50.3047 79.5586 50.3282C78.5374 50.3517 76.9986 76.2151 87.3214 75.9787" fill="#2CABE3"/>
<path fill-rule="evenodd" clip-rule="evenodd" d="M124.643 75.7479C133.406 75.5474 131.097 53.6729 130.229 53.6929C129.362 53.7128 129.041 68.6822 124.484 68.7865C119.925 68.8911 118.919 53.9519 118.052 53.9718C117.186 53.9913 115.879 75.9488 124.643 75.7479" fill="#2CABE3"/>
</svg>
