<svg width="47" height="43" viewBox="0 0 47 43" fill="none" xmlns="http://www.w3.org/2000/svg">
<g clip-path="url(#clip0)">
<path d="M25.2278 4.85962C25.2512 5.60764 24.6091 6.38816 23.5784 6.40211C22.5477 6.41606 21.8573 5.65356 21.8339 4.90554C21.8105 4.15752 22.4526 3.377 23.4832 3.36305C24.5139 3.3491 25.2043 4.1116 25.2278 4.85962Z" fill="white" stroke="white" stroke-width="4"/>
<path d="M22.4717 10.0758L23.4696 3.53027L25.2772 10.0378L22.4717 10.0758Z" fill="white" stroke="white" stroke-width="4"/>
<path fill-rule="evenodd" clip-rule="evenodd" d="M9.75618 12.2965C9.49301 12.424 9.3822 12.5188 9.35131 12.5528C9.18677 12.7337 8.97093 13.1232 8.76093 13.7957C8.55825 14.4447 8.38889 15.2647 8.25903 16.2147C7.99958 18.1127 7.91034 20.4359 7.98615 22.7518C8.062 25.0688 8.30171 27.3365 8.68374 29.126C8.87514 30.0227 9.09596 30.7689 9.33489 31.3306C9.58747 31.9244 9.8049 32.1781 9.9106 32.254C9.95433 32.2854 10.0931 32.3618 10.3853 32.4575C10.6631 32.5485 11.0244 32.6396 11.4682 32.7271C12.3554 32.9022 13.506 33.0506 14.8459 33.1674C17.5219 33.4007 20.8751 33.5013 24.2253 33.4569C27.5773 33.4125 30.896 33.2233 33.5068 32.8843C34.815 32.7145 35.9169 32.5106 36.7456 32.2781C37.1601 32.1619 37.483 32.0449 37.7193 31.9329C37.8362 31.8775 37.9217 31.8282 37.9816 31.7875C38.0426 31.7461 38.0638 31.7226 38.0634 31.723C38.2087 31.558 38.4096 31.191 38.6115 30.5475C38.8057 29.9282 38.9735 29.144 39.1077 28.233C39.376 26.4128 39.4978 24.1747 39.4652 21.9207C39.4325 19.6661 39.2457 17.4334 38.911 15.6222C38.7435 14.7158 38.5432 13.9389 38.3175 13.3276C38.0839 12.695 37.8568 12.334 37.6882 12.1676C37.6549 12.1348 37.5374 12.0447 37.2658 11.9268C37.0062 11.8141 36.6609 11.6995 36.2275 11.5882C35.3607 11.3655 34.2236 11.1767 32.8863 11.0276C30.2165 10.73 26.8518 10.6017 23.4741 10.643C20.096 10.6842 16.7391 10.8946 14.0842 11.2645C12.7542 11.4499 11.6277 11.6716 10.7732 11.9224C10.346 12.0478 10.0082 12.1743 9.75618 12.2965ZM38.1153 9.9692C38.4991 10.1358 38.8868 10.3524 39.1871 10.6487C39.6856 11.1406 40.0456 11.8469 40.3194 12.5884C40.601 13.3512 40.8285 14.2552 41.0095 15.2344C41.3717 17.1946 41.565 19.5521 41.5989 21.8898C41.6328 24.2281 41.5077 26.5844 41.2189 28.5441C41.0747 29.523 40.8864 30.4251 40.6476 31.1863C40.4164 31.9232 40.107 32.631 39.6655 33.1328C39.3812 33.4558 39.0003 33.6874 38.6328 33.8615C38.2517 34.042 37.8059 34.1971 37.3219 34.3328C36.3536 34.6044 35.1387 34.8244 33.7815 35.0006C31.0614 35.3537 27.6544 35.5456 24.2536 35.5907C20.8509 35.6358 17.4242 35.5343 14.6606 35.2934C13.2807 35.1731 12.0465 35.0164 11.0551 34.8208C10.5596 34.723 10.1081 34.6123 9.72096 34.4855C9.34833 34.3634 8.97001 34.2058 8.66596 33.9875C8.07609 33.5639 7.66898 32.866 7.37117 32.1659C7.05972 31.4337 6.80431 30.5437 6.59678 29.5716C6.18093 27.6236 5.93194 25.2236 5.8533 22.8216C5.77463 20.4184 5.86513 17.971 6.14471 15.9257C6.28437 14.9039 6.47434 13.9589 6.72395 13.1596C6.96624 12.3837 7.29564 11.6415 7.77244 11.1171C8.06221 10.7985 8.44454 10.5608 8.82548 10.3761C9.21756 10.1861 9.67478 10.0208 10.1721 9.87481C11.1667 9.58285 12.4071 9.34361 13.7897 9.15095C16.56 8.76492 20.0114 8.55113 23.448 8.50916C26.885 8.4672 30.3415 8.59669 33.1227 8.90674C34.5109 9.06149 35.7569 9.264 36.7585 9.52128C37.2592 9.64992 37.7195 9.79743 38.1153 9.9692Z" fill="white" stroke="white" stroke-width="4"/>
<path d="M25.5863 4.88228C25.6195 5.94286 24.7493 6.81478 23.6425 6.82976C22.5358 6.84473 21.6117 5.99709 21.5785 4.93651C21.5453 3.87592 22.4156 3.004 23.5223 2.98903C24.629 2.97405 25.5531 3.82169 25.5863 4.88228Z" fill="#28313B"/>
<path d="M22.4717 11.0758L23.4696 4.53027L25.2772 11.0378L22.4717 11.0758Z" fill="#28313B"/>
<path d="M39.1353 32.4627C41.0326 30.0844 40.8944 14.4073 38.2258 11.7739C35.5572 9.14056 10.9766 9.42878 8.41129 12.25C5.84597 15.0713 6.506 31.123 9.28828 33.1208C12.0706 35.1185 37.2379 34.841 39.1353 32.4627Z" fill="white"/>
<path fill-rule="evenodd" clip-rule="evenodd" d="M40.7507 23.02L6.79702 23.7732L6.77808 22.9199L40.7318 22.1666L40.7507 23.02Z" fill="#89A1B1"/>
<path fill-rule="evenodd" clip-rule="evenodd" d="M9.75618 12.2965C9.49301 12.424 9.3822 12.5188 9.35131 12.5528C9.18677 12.7337 8.97093 13.1232 8.76093 13.7957C8.55825 14.4447 8.38889 15.2647 8.25903 16.2147C7.99958 18.1127 7.91034 20.4359 7.98615 22.7518C8.062 25.0688 8.30171 27.3365 8.68374 29.126C8.87514 30.0227 9.09596 30.7689 9.33489 31.3306C9.58747 31.9244 9.8049 32.1781 9.9106 32.254C9.95433 32.2854 10.0931 32.3618 10.3853 32.4575C10.6631 32.5485 11.0244 32.6396 11.4682 32.7271C12.3554 32.9022 13.506 33.0506 14.8459 33.1674C17.5219 33.4007 20.8751 33.5013 24.2253 33.4569C27.5773 33.4125 30.896 33.2233 33.5068 32.8843C34.815 32.7145 35.9169 32.5106 36.7456 32.2781C37.1601 32.1619 37.483 32.0449 37.7193 31.9329C37.8362 31.8775 37.9217 31.8282 37.9816 31.7875C38.0426 31.7461 38.0638 31.7226 38.0634 31.723C38.2087 31.558 38.4096 31.191 38.6115 30.5475C38.8057 29.9282 38.9735 29.144 39.1077 28.233C39.376 26.4128 39.4978 24.1747 39.4652 21.9207C39.4325 19.6661 39.2457 17.4334 38.911 15.6222C38.7435 14.7158 38.5432 13.9389 38.3175 13.3276C38.0839 12.695 37.8568 12.334 37.6882 12.1676C37.6549 12.1348 37.5374 12.0447 37.2658 11.9268C37.0062 11.8141 36.6609 11.6995 36.2275 11.5882C35.3607 11.3655 34.2236 11.1767 32.8863 11.0276C30.2165 10.73 26.8518 10.6017 23.4741 10.643C20.096 10.6842 16.7391 10.8946 14.0842 11.2645C12.7542 11.4499 11.6277 11.6716 10.7732 11.9224C10.346 12.0478 10.0082 12.1743 9.75618 12.2965ZM38.1153 9.9692C38.4991 10.1358 38.8868 10.3524 39.1871 10.6487C39.6856 11.1406 40.0456 11.8469 40.3194 12.5884C40.601 13.3512 40.8285 14.2552 41.0095 15.2344C41.3717 17.1946 41.565 19.5521 41.5989 21.8898C41.6328 24.2281 41.5077 26.5844 41.2189 28.5441C41.0747 29.523 40.8864 30.4251 40.6476 31.1863C40.4164 31.9232 40.107 32.631 39.6655 33.1328C39.3812 33.4558 39.0003 33.6874 38.6328 33.8615C38.2517 34.042 37.8059 34.1971 37.3219 34.3328C36.3536 34.6044 35.1387 34.8244 33.7815 35.0006C31.0614 35.3537 27.6544 35.5456 24.2536 35.5907C20.8509 35.6358 17.4242 35.5343 14.6606 35.2934C13.2807 35.1731 12.0465 35.0164 11.0551 34.8208C10.5596 34.723 10.1081 34.6123 9.72096 34.4855C9.34833 34.3634 8.97001 34.2058 8.66596 33.9875C8.07609 33.5639 7.66898 32.866 7.37117 32.1659C7.05972 31.4337 6.80431 30.5437 6.59678 29.5716C6.18093 27.6236 5.93194 25.2236 5.8533 22.8216C5.77463 20.4184 5.86513 17.971 6.14471 15.9257C6.28437 14.9039 6.47434 13.9589 6.72395 13.1596C6.96624 12.3837 7.29564 11.6415 7.77244 11.1171C8.06221 10.7985 8.44454 10.5608 8.82548 10.3761C9.21756 10.1861 9.67478 10.0208 10.1721 9.87481C11.1667 9.58285 12.4071 9.34361 13.7897 9.15095C16.56 8.76493 20.0114 8.55113 23.448 8.50916C26.885 8.4672 30.3415 8.59669 33.1227 8.90674C34.5109 9.06149 35.7569 9.264 36.7585 9.52128C37.2592 9.64992 37.7195 9.79743 38.1153 9.9692Z" fill="#28313B"/>
<path d="M37.2326 30.7571C38.7236 28.8637 38.6511 17.1699 37.2326 14.9427C35.8142 12.7155 11.0213 13.4523 9.88173 14.9427C8.74212 16.4331 9.16 30.2077 10.9379 31.4084C12.7158 32.6091 35.7417 32.6506 37.2326 30.7571Z" fill="#343A4C"/>
<path d="M18.6278 21.5768C19.6685 21.4631 20.301 27.0311 20.7089 28.0414C20.8535 23.9433 20.7132 18.2571 18.4035 18.4437C16.0938 18.6302 16.7784 27.5255 17.1563 28.1555C17.1937 26.85 17.587 21.6905 18.6278 21.5768Z" fill="#2CABE3"/>
<path d="M29.3697 21.387C30.4105 21.2733 31.0429 26.8414 31.4508 27.8516C31.5954 23.7536 31.4551 18.0674 29.1454 18.2539C26.8357 18.4405 27.5203 27.3358 27.8982 27.9657C27.9356 26.6603 28.329 21.5007 29.3697 21.387Z" fill="#2CABE3"/>
</g>
<defs>
<clipPath id="clip0">
<rect width="47" height="43" fill="white"/>
</clipPath>
</defs>
</svg>
