<svg width="194" height="200" viewBox="0 0 194 200" fill="none" xmlns="http://www.w3.org/2000/svg">
<mask id="mask0" mask-type="alpha" maskUnits="userSpaceOnUse" x="39" y="11" width="148" height="181">
<path fill-rule="evenodd" clip-rule="evenodd" d="M39.0928 11.2602H186.383V191.773H39.0928V11.2602Z" fill="white"/>
</mask>
<g mask="url(#mask0)">
<path fill-rule="evenodd" clip-rule="evenodd" d="M39.1411 144.91C37.3271 185.232 86.9112 199.411 128.03 187.922C179.325 173.589 189.869 130.157 185.489 76.9851C181.108 23.8128 154.056 0.880369 127.06 15.6645C100.065 30.4491 126.977 79.5303 105.112 94.3765C83.2468 109.223 40.5965 112.564 39.1411 144.91Z" fill="#97E2FC"/>
</g>
<path fill-rule="evenodd" clip-rule="evenodd" d="M39.4782 45.7357C29.6415 45.4912 30.7871 35.3153 33.7485 28.7515C36.9454 21.6663 42.6578 15.2486 50.5368 13.5869C58.2315 11.9638 67.3744 14.1121 69.0887 22.8395C70.9889 32.5121 56.2392 46.1515 39.4782 45.7357Z" fill="#97E2FC"/>
<path fill-rule="evenodd" clip-rule="evenodd" d="M146.132 122.014C146.132 122.014 165.633 111.877 165.633 104.548C165.633 97.2192 172.436 72.7294 172.436 72.7294C172.436 72.7294 165.79 62.8954 163.897 58.9684C162.005 55.0423 133.434 28.285 133.434 28.285H75.384L54.0688 33.7271L48.6266 36.4124C48.6266 36.4124 42.2774 54.5888 41.8239 56.8564C41.3704 59.124 40.1291 76.8106 40.13 82.7067C40.1309 88.6024 39.8742 93.9902 41.1327 95.7802C42.3912 97.5702 53.9155 109.768 53.9155 109.768C53.9155 109.768 42.7309 111.743 38.6493 109.923C34.5676 108.104 26.9091 104.167 25.7495 104.548C24.5903 104.929 20.0552 104.484 20.0552 104.484L30.393 123.03L43.6053 132.726L57.2434 136.631C57.2434 136.631 65.8801 145.292 65.8701 148.013C65.8602 150.734 70.6919 159.804 73.0379 162.525C75.384 165.246 82.8411 175.606 86.1423 175.188C89.4429 174.77 98.9667 173.057 98.9667 173.057L115.341 154.664C115.341 154.664 125.212 158.837 126.375 160.908C127.538 162.979 139.518 171.019 139.518 171.019L143.411 175.578C143.411 175.578 145.75 168.421 145.487 166.607C145.225 164.793 146.028 155.787 144.72 153.034C143.411 150.28 131.62 130.778 131.62 130.778L146.132 122.014Z" fill="white"/>
<path fill-rule="evenodd" clip-rule="evenodd" d="M28.0326 109.468C28.0326 109.468 52.1188 124.31 64.8775 119.753C64.8775 119.753 59.8 130.299 59.9301 133.033C60.0607 135.767 59.1492 136.68 59.1492 136.68C59.1492 136.68 44.4372 129.388 42.4843 128.216C40.5315 127.044 28.814 121.576 28.814 121.576L22.5646 107.906C22.5646 107.906 22.0435 106.864 22.5646 106.864C23.0852 106.864 28.0326 109.468 28.0326 109.468Z" fill="#D5E4EC"/>
<path fill-rule="evenodd" clip-rule="evenodd" d="M69.2172 120.274C69.2172 120.274 60.0603 130.69 72.038 134.986C84.0158 139.283 104.587 137.069 104.587 137.069L106.149 146.048C106.149 146.048 100.16 161.676 108.102 160.895C116.043 160.114 115.523 152.559 115.523 152.559L144.296 174.695L146.9 167.144C146.9 167.144 135.312 140.584 119.95 134.205C104.587 127.826 71.7777 116.499 71.7777 116.499L69.2172 120.274Z" fill="#D5E4EC"/>
<path fill-rule="evenodd" clip-rule="evenodd" d="M84.4015 145.615C74.4047 145.615 65.2519 143.623 61.0024 137.408L64.2265 135.204C68.6845 141.723 82.2142 143.426 102.324 140L102.98 143.85C97.1086 144.85 90.5925 145.615 84.4015 145.615Z" fill="#89A1B1"/>
<path fill-rule="evenodd" clip-rule="evenodd" d="M89.4151 180.558C86.7588 180.558 84.1257 179.88 81.7774 178.547C75.6541 175.076 70.5461 170.155 66.5969 163.922C60.6904 154.601 57.6958 142.741 57.6958 128.671C57.6958 124.453 59.8251 120.197 63.8541 116.364C66.6441 113.709 69.4509 112.11 69.5693 112.043L73.4133 118.844L71.4913 115.444L73.4219 118.839C71.3688 120.014 65.5071 124.342 65.5071 128.671C65.5071 141.236 68.094 151.69 73.1956 159.741C76.4509 164.879 80.635 168.92 85.6323 171.753C87.5706 172.854 89.9103 173.049 92.0532 172.291C96.421 170.748 106.061 164.502 111.294 151.909L118.507 154.907C113.016 168.122 102.572 176.859 94.6573 179.656C92.9507 180.26 91.1779 180.558 89.4151 180.558Z" fill="#28313B"/>
<path fill-rule="evenodd" clip-rule="evenodd" d="M122.447 153.034L118.659 152.085C120.602 144.328 125.515 140.24 129.296 138.175C133.361 135.954 136.985 135.557 137.137 135.541L137.541 139.426L137.339 137.484L137.546 139.426C137.056 139.48 125.49 140.889 122.447 153.034Z" fill="#89A1B1"/>
<path fill-rule="evenodd" clip-rule="evenodd" d="M132.165 164.06L128.611 162.439C130.384 158.554 136.033 151.556 144.72 152.87L144.136 156.732C136.156 155.525 132.204 163.975 132.165 164.06Z" fill="#89A1B1"/>
<path fill-rule="evenodd" clip-rule="evenodd" d="M151.978 179.088C152.243 182.673 149.55 185.793 145.966 186.057C142.381 186.322 139.26 183.629 138.996 180.044C138.732 176.459 141.424 173.339 145.009 173.075C148.594 172.811 151.714 175.503 151.978 179.088Z" fill="#28313B"/>
<mask id="mask1" mask-type="alpha" maskUnits="userSpaceOnUse" x="132" y="176" width="31" height="24">
<path fill-rule="evenodd" clip-rule="evenodd" d="M132.301 176.865H162.22V199.606H132.301V176.865Z" fill="white"/>
</mask>
<g mask="url(#mask1)">
<path fill-rule="evenodd" clip-rule="evenodd" d="M134.483 199.606C133.239 197.566 132.519 195.317 132.343 192.922C132.049 188.937 133.325 185.077 135.935 182.052C138.545 179.027 142.178 177.2 146.163 176.906C150.147 176.613 154.007 177.889 157.032 180.499C160.057 183.108 161.884 186.74 162.178 190.724C162.354 193.119 161.972 195.45 161.04 197.65L156.244 195.619C156.85 194.188 157.099 192.67 156.984 191.107C156.793 188.509 155.602 186.143 153.63 184.441C151.658 182.74 149.141 181.909 146.545 182.1C143.947 182.291 141.579 183.483 139.878 185.455C138.177 187.426 137.345 189.942 137.536 192.539C137.651 194.102 138.12 195.567 138.929 196.894L134.483 199.606Z" fill="#28313B"/>
</g>
<path fill-rule="evenodd" clip-rule="evenodd" d="M117.52 129.795C113.176 129.795 109.64 132.113 108.313 135.042C106.948 138.056 107.37 140.419 109.723 142.943C112.216 145.617 116.293 147.798 119.569 149.55C120.264 149.921 120.925 150.275 121.537 150.614L121.677 150.693C121.746 150.731 121.814 150.769 121.882 150.808C123.079 151.487 124.294 152.222 125.474 152.982C133.491 158.138 139.699 164.2 143.949 171.019C144.415 162.422 142.476 150.111 131.766 137.422C128.913 134.042 125.449 131.686 121.47 130.422C120.108 129.99 118.78 129.795 117.52 129.795ZM144.348 180.046C141.782 180.046 139.375 178.689 138.059 176.388C134.436 170.061 128.779 164.395 121.247 159.551C120.188 158.869 119.098 158.21 118.007 157.591L117.75 157.446C117.17 157.125 116.542 156.789 115.885 156.438C112.099 154.413 107.388 151.893 104.01 148.27C99.4907 143.423 98.5179 137.735 101.197 131.82H101.197C103.027 127.78 106.496 124.694 110.965 123.129C115.058 121.696 119.628 121.642 123.834 122.977C129.241 124.695 133.917 127.859 137.736 132.383C150.929 148.014 152.556 163.352 151.599 173.466C151.301 176.629 149.011 179.208 145.902 179.88C145.383 179.992 144.862 180.046 144.348 180.046Z" fill="#28313B"/>
<path fill-rule="evenodd" clip-rule="evenodd" d="M52.5689 136.631C49.0532 129.45 50.1725 123.156 51.7303 119.14C53.4065 114.822 55.9199 112.182 56.0265 112.071L58.8396 114.781L57.4328 113.426L58.8437 114.777C58.5036 115.134 50.5721 123.669 56.0768 134.914L52.5689 136.631Z" fill="#89A1B1"/>
<path fill-rule="evenodd" clip-rule="evenodd" d="M33.6389 126.39C32.3455 117.698 39.3577 112.067 43.2461 110.304L44.8588 113.861L44.0525 112.083L44.8638 113.859C44.8416 113.87 42.6017 114.914 40.5854 116.976C38.052 119.567 37.0148 122.541 37.5024 125.815L33.6389 126.39Z" fill="#89A1B1"/>
<path fill-rule="evenodd" clip-rule="evenodd" d="M24.6367 95.3962C21.2562 91.5866 15.428 91.2388 11.6185 94.6188C7.80899 97.9993 7.46069 103.828 10.8412 107.637C14.2217 111.447 20.0503 111.795 23.8598 108.415C27.6693 105.034 28.0172 99.2057 24.6367 95.3962Z" fill="#28313B"/>
<path fill-rule="evenodd" clip-rule="evenodd" d="M23.4608 104.548C21.21 100.728 19.776 91.6124 22.9388 84.4355C23.8766 82.3076 25.1705 80.4418 26.7841 78.8908L30.3932 82.645C29.2716 83.7235 28.3669 85.0323 27.7043 86.5362C25.2286 92.1529 26.5469 99.5266 27.9478 101.904L23.4608 104.548Z" fill="#28313B"/>
<path fill-rule="evenodd" clip-rule="evenodd" d="M61.8857 140.586C57.3147 140.498 52.9074 139.703 48.7863 138.224C29.5328 131.319 20.4321 118.868 16.1877 109.639C14.8603 106.748 15.5505 103.369 17.9047 101.228C20.2589 99.0876 23.6879 98.7211 26.4376 100.316C42.4385 109.592 65.4008 108.245 65.6308 108.23L66.1287 116.026C65.1215 116.09 41.8897 117.447 24.0308 107.914C27.9383 115.583 35.7895 125.264 51.424 130.871C54.7455 132.063 58.3156 132.704 62.0362 132.775L61.8857 140.586Z" fill="#28313B"/>
<mask id="mask2" mask-type="alpha" maskUnits="userSpaceOnUse" x="7" y="92" width="11" height="8">
<path fill-rule="evenodd" clip-rule="evenodd" d="M7 92.3629H17.7825V99.1978H7V92.3629Z" fill="white"/>
</mask>
<g mask="url(#mask2)">
<path fill-rule="evenodd" clip-rule="evenodd" d="M16.2615 92.3629L17.7826 99.025C17.7826 99.025 8.56128 99.5375 7.89597 98.7973C7.23067 98.0572 6.47012 92.932 7.51593 92.7044" fill="#28313B"/>
</g>
<path fill-rule="evenodd" clip-rule="evenodd" d="M71.085 141.753C71.085 135.702 74.4555 130.796 78.6133 130.796C82.7716 130.796 86.1421 135.702 86.1421 141.753C86.1421 147.805 82.7716 152.711 78.6133 152.711C74.4555 152.711 71.085 147.805 71.085 141.753Z" fill="#2FA9E0"/>
<path fill-rule="evenodd" clip-rule="evenodd" d="M78.614 132.749C75.5913 132.749 73.038 136.872 73.038 141.753C73.038 146.635 75.5913 150.758 78.614 150.758C81.6362 150.758 84.1895 146.635 84.1895 141.753C84.1895 136.872 81.6362 132.749 78.614 132.749ZM78.614 154.664C73.2969 154.664 69.1323 148.993 69.1323 141.753C69.1323 134.514 73.2969 128.843 78.614 128.843C83.9305 128.843 88.0951 134.514 88.0951 141.753C88.0951 148.993 83.9305 154.664 78.614 154.664Z" fill="#28313B"/>
<path fill-rule="evenodd" clip-rule="evenodd" d="M108.445 129.848C96.8018 125.463 60.8173 111.389 43.6363 98.6974C41.4749 97.1006 40.1837 94.589 40.1479 91.902C40.0209 82.4104 40.4041 58.2494 46.7193 38.8176C47.6549 35.9383 49.9334 33.6956 52.8368 32.8367C63.5647 29.6616 92.3683 22.8081 127.226 28.1129C132.566 28.9256 137.529 31.3519 141.442 35.0757C147.379 40.7251 157.052 50.7237 168.046 65.1913C170.421 68.3169 171.436 72.2666 170.914 76.1578C169.639 85.6534 165.84 100.735 157.81 117.514C156.437 120.383 153.779 122.424 150.645 122.974C142.247 124.448 130.285 130.785 116.111 131.153C113.496 131.222 110.893 130.77 108.445 129.848Z" fill="white"/>
<path fill-rule="evenodd" clip-rule="evenodd" d="M138.966 42.5634C138.152 41.9661 137.024 42.6482 137.171 43.6478C138.096 49.9612 139.446 66.8931 132.615 90.4822C127.971 106.522 123.254 115.69 119.849 120.764C117.415 124.388 113.006 126.143 108.74 125.221L93.1343 121.846L111.711 130.778C111.711 130.778 148.338 128.43 150.818 124.622C156.573 110.989 160.937 91.9847 163.191 77.4283C164.327 70.0958 165.054 68.1698 157.442 59.4895C150.893 52.0206 142.859 45.4174 138.966 42.5634Z" fill="#D5E4EC"/>
<path fill-rule="evenodd" clip-rule="evenodd" d="M165.921 98.7871L137.397 80.7318C135.548 79.5613 133.423 78.8048 131.25 78.544L40.4775 67.6492L40.9428 63.7712L131.715 74.666C134.462 74.9957 137.149 75.9522 139.486 77.4316L168.01 95.4869L165.921 98.7871Z" fill="#89A1B1"/>
<path fill-rule="evenodd" clip-rule="evenodd" d="M131.794 41.3385C132.875 51.7044 134.35 83.9911 116.137 115.836C114.704 118.341 111.697 119.48 108.966 118.548C96.7653 114.386 63.5694 102.627 48.773 93.0536C48.1775 92.6682 47.8211 92.0083 47.8192 91.2985C47.807 85.2106 48.0406 56.031 53.5168 42.0491C54.0106 40.7888 55.0796 39.8455 56.3966 39.5326C63.6759 37.8006 90.2737 32.5394 128.015 37.4568C130.019 37.718 131.584 39.3271 131.794 41.3385Z" fill="#343A4C"/>
<path fill-rule="evenodd" clip-rule="evenodd" d="M101.133 30.063C79.0253 30.063 61.7695 34.2653 53.9355 36.5846C52.2843 37.0735 50.9763 38.3546 50.4376 40.0113C44.2997 58.888 43.9283 82.5587 44.0534 91.8599C44.0729 93.3079 44.78 94.6862 45.945 95.5469C62.9342 108.103 99.4126 122.283 110.188 126.33C112.05 127.029 114.011 127.31 116.016 127.164C126.488 126.4 139.499 122.051 148.184 118.234C152.486 116.344 155.849 112.901 157.653 108.541C162.663 96.4372 166.104 81.2934 167.71 73.3433C168.337 70.2395 167.655 66.9828 165.839 64.4073C162.806 60.1061 158.11 53.9061 152.961 48.7941C147.991 43.859 142.732 39.546 139.195 36.7968C136.258 34.5134 132.744 32.9782 129.033 32.3569C119.174 30.7061 109.782 30.063 101.133 30.063ZM114.979 135.014C112.396 135.014 109.868 134.554 107.442 133.643C96.4267 129.506 59.1042 114.986 41.302 101.829C38.1859 99.5261 36.2942 95.8385 36.2425 91.9651C36.1119 82.2753 36.5101 57.5814 43.009 37.5959C44.3432 33.4921 47.599 30.3138 51.7178 29.0943C63.1369 25.7138 93.6548 18.5143 130.323 24.6526C135.307 25.4871 140.033 27.5537 143.989 30.6295C147.697 33.5111 153.217 38.0399 158.465 43.2508C164.015 48.761 169.01 55.3492 172.223 59.9057C175.272 64.2286 176.417 69.6902 175.367 74.8902C173.705 83.117 170.132 98.8163 164.871 111.528C162.292 117.759 157.482 122.681 151.326 125.386C146.823 127.365 131.009 133.903 116.584 134.955C116.047 134.994 115.511 135.014 114.979 135.014Z" fill="#28313B"/>
<path fill-rule="evenodd" clip-rule="evenodd" d="M139.538 85.6033C137.508 94.2432 140.269 102.283 145.706 103.56C151.142 104.837 157.195 98.8686 159.224 90.2287C161.254 81.5888 158.493 73.5494 153.057 72.2723C147.62 70.9952 141.568 76.9634 139.538 85.6033Z" fill="#29313C"/>
<path fill-rule="evenodd" clip-rule="evenodd" d="M112.348 6.29334C113.212 2.29697 117.152 -0.241808 121.148 0.622591C125.144 1.48654 127.683 5.42667 126.819 9.42304C125.955 13.419 122.015 15.9582 118.018 15.0938C114.022 14.2298 111.483 10.2897 112.348 6.29334Z" fill="#28313B"/>
<path fill-rule="evenodd" clip-rule="evenodd" d="M111.162 24.5868L120.339 26.5714L120.173 14.5278L116.29 13.6879L111.162 24.5868Z" fill="#28313B"/>
<path fill-rule="evenodd" clip-rule="evenodd" d="M72.6336 53.6409C80.2721 54.9357 73.6322 84.5398 72.8762 84.4119C72.1206 84.2835 74.9977 63.8028 71.0249 63.1293C67.0522 62.4559 63.0186 82.7407 62.2626 82.6123C61.507 82.4844 64.995 52.3461 72.6336 53.6409Z" fill="#2FA9E0"/>
<path fill-rule="evenodd" clip-rule="evenodd" d="M104.22 53.5362C114.292 55.2437 105.537 94.2777 104.54 94.109C103.544 93.9398 107.338 66.9353 102.099 66.0473C96.8606 65.1589 91.5422 91.9054 90.5459 91.7362C89.549 91.5675 94.1486 51.8287 104.22 53.5362Z" fill="#2FA9E0"/>
<path fill-rule="evenodd" clip-rule="evenodd" d="M46.2732 175.969C46.7757 175.969 46.7766 175.188 46.2732 175.188C45.7707 175.188 45.7698 175.969 46.2732 175.969Z" fill="#2FA9E0"/>
</svg>
