<svg width="184" height="190" viewBox="0 0 184 190" fill="none" xmlns="http://www.w3.org/2000/svg">
<path fill-rule="evenodd" clip-rule="evenodd" d="M15.9912 115.155C15.9912 115.155 26.2367 130.623 34.1405 135.048C42.0443 139.474 60.4864 145.815 60.4864 145.815C60.4864 145.815 65.0772 146.791 66.0485 148.564C67.0198 150.336 77.1722 162.344 78.9286 164.69C80.685 167.036 84.4906 169.968 87.7105 169.968C90.9309 169.968 101.469 166.449 102.055 165.569C102.64 164.69 112.593 153.255 113.471 152.375C114.349 151.495 120.204 147.892 122.253 147.055C124.302 146.218 136.304 140.94 139.232 139.767C142.159 138.594 160.016 129.726 162.943 125.511C165.87 121.295 174.281 115.558 168.495 114.743C162.708 113.927 150.081 118.45 150.081 118.45C150.081 118.45 155.918 106.048 155.918 100.77C155.918 95.4924 152.039 60.8935 152.039 60.8935C152.039 60.8935 150.696 33.6249 142.768 31.5728C134.841 29.5202 139.817 26.8813 125.181 27.7609C110.544 28.6405 39.6788 30.6931 39.6788 30.6931C39.6788 30.6931 32.0917 54.4431 30.9206 61.1868C29.7495 67.9305 27.1149 93.1469 27.4078 97.545C27.7007 101.943 32.3841 117.483 32.3841 117.483L15.9912 115.155Z" fill="white"/>
<path fill-rule="evenodd" clip-rule="evenodd" d="M44.3809 120.272C44.3809 120.272 41.7217 112.605 40.5177 110.193C39.3133 107.78 37.8682 105.367 48.2252 105.367C58.5823 105.367 130.6 105.126 137.344 104.161C144.088 103.196 145.051 105.126 142.161 110.193C139.271 115.259 136.38 121.29 136.38 121.29L115.666 123.701C115.666 123.701 109.404 117.671 104.346 115.5C99.2876 113.329 86.0404 111.399 82.9092 113.57C79.778 115.741 74.479 119.119 73.5156 120.325C72.5522 121.532 67.9605 123.609 67.9605 123.609L44.3809 120.272Z" fill="#D5E4EC"/>
<path fill-rule="evenodd" clip-rule="evenodd" d="M64.3629 131.664C64.3629 131.664 34.978 124.668 29.1972 119.36C23.4165 114.052 18.5991 114.776 18.5991 114.776C18.5991 114.776 28.7151 132.236 30.8829 134.363C33.0507 136.489 47.9841 145.416 48.7068 145.898C49.4296 146.381 65.5542 147.055 65.5542 147.055L64.3629 131.664Z" fill="#D5E4EC"/>
<path fill-rule="evenodd" clip-rule="evenodd" d="M119.266 131.664C119.266 131.664 148.651 124.668 154.432 119.36C160.212 114.052 165.03 114.776 165.03 114.776C165.03 114.776 154.913 132.236 152.746 134.363C150.578 136.489 135.644 145.416 134.922 145.898C134.199 146.381 118.075 147.055 118.075 147.055L119.266 131.664Z" fill="#D5E4EC"/>
<path fill-rule="evenodd" clip-rule="evenodd" d="M67.1974 141.341L65.4353 138.182C74.5879 133.061 86.3825 131.249 99.5449 132.945C109.415 134.215 116.509 136.959 116.806 137.075L115.493 140.446C115.493 140.446 115.493 140.446 115.492 140.446C115.381 140.403 108.417 137.724 98.9943 136.522C90.3809 135.423 77.8728 135.367 67.1974 141.341Z" fill="#89A1B1"/>
<path fill-rule="evenodd" clip-rule="evenodd" d="M83.6804 133.853C83.6804 139.46 86.7985 144.006 90.6445 144.006C94.4906 144.006 97.6086 139.46 97.6086 133.853C97.6086 128.246 94.4906 123.701 90.6445 123.701C86.7985 123.701 83.6804 128.246 83.6804 133.853Z" fill="#38CA79"/>
<path fill-rule="evenodd" clip-rule="evenodd" d="M90.6446 125.51C87.8488 125.51 85.4869 129.331 85.4869 133.853C85.4869 138.375 87.8488 142.196 90.6446 142.196C93.4403 142.196 95.8022 138.375 95.8022 133.853C95.8022 129.331 93.4403 125.51 90.6446 125.51ZM90.6446 145.815C85.7267 145.815 81.874 140.561 81.874 133.853C81.874 127.146 85.7267 121.892 90.6446 121.892C95.5625 121.892 99.4151 127.146 99.4151 133.853C99.4151 140.561 95.5625 145.815 90.6446 145.815Z" fill="#28313B"/>
<path fill-rule="evenodd" clip-rule="evenodd" d="M91.2078 116.235C83.4204 116.235 77.5856 118.185 73.8651 122.032C69.9822 126.047 69.1672 131.404 69.1672 135.192C69.1672 142.688 71.5177 149.63 76.1537 155.827C80.7028 161.907 85.8056 165.079 87.2612 165.906C89.0544 166.925 91.2201 167.107 93.2017 166.404C96.3128 165.302 101.174 162.209 105.485 156.836C108.907 152.572 113.145 145.332 113.95 135.025C113.918 130.13 112.136 125.644 108.923 122.38C104.966 118.36 98.8402 116.235 91.2078 116.235ZM90.7612 174.064C88.304 174.064 85.8688 173.436 83.6957 172.201C81.9318 171.199 75.7594 167.368 70.3712 160.167C64.7775 152.69 61.9414 144.287 61.9414 135.192C61.9414 127.843 64.2699 121.552 68.6754 116.996C73.8085 111.688 81.3895 108.997 91.2078 108.997C100.818 108.997 108.723 111.868 114.069 117.299C118.652 121.955 121.176 128.298 121.176 135.158L121.166 135.429C120.44 145.112 116.965 154.082 111.117 161.37C106.65 166.937 100.854 171.369 95.6124 173.227C94.0334 173.787 92.3925 174.064 90.7612 174.064Z" fill="#28313B"/>
<path fill-rule="evenodd" clip-rule="evenodd" d="M28.845 64.9293H152.039V61.3105H28.845V64.9293Z" fill="#89A1B1"/>
<path fill-rule="evenodd" clip-rule="evenodd" d="M36.7954 93.5524C36.8265 95.2329 38.0784 96.6403 39.7413 96.8633C44.9903 97.5674 58.7973 98.7945 91.2651 98.7945C123.805 98.7945 137.601 97.5617 142.824 96.8589C144.479 96.6359 145.726 95.2421 145.77 93.57C145.89 89.0021 145.736 78.998 143.218 64.4991C140.997 51.7124 138.719 44.3204 137.33 40.5864C136.608 38.649 134.852 37.2882 132.8 37.0661C126.53 36.3883 111.445 35.0293 91.2651 35.0293C71.1641 35.0293 56.1179 36.3778 49.805 37.0582C47.7258 37.2825 45.9607 38.6732 45.2458 40.6413C43.8306 44.5394 41.4748 52.1706 39.3171 64.4723C36.8871 78.3242 36.7071 88.7914 36.7954 93.5524Z" fill="#343A4C"/>
<path fill-rule="evenodd" clip-rule="evenodd" d="M148.183 121.536L142.848 116.656C145.627 113.608 147.986 110.289 149.862 106.791C151.545 103.649 152.446 100.106 152.467 96.5443C152.505 90.13 152.013 79.3928 149.454 64.6625C146.912 50.0237 143.811 40.6935 141.656 35.4443C141.055 33.9762 139.698 32.9655 138.116 32.805C130.335 32.019 113.898 30.7005 91.2614 30.7005C68.6912 30.7031 52.1715 32.0129 44.3331 32.794C42.7119 32.9554 41.3384 34.0061 40.7487 35.5358C38.5945 41.125 35.5138 50.7112 33.0702 64.6366C30.469 79.472 30.0984 91.0013 30.1094 96.5535C30.1133 100.156 31.0064 103.715 32.6921 106.848C34.4968 110.201 36.7468 113.392 39.3805 116.332L34.0029 121.166C30.988 117.801 28.407 114.139 26.3318 110.282C24.0814 106.1 22.8888 101.357 22.8836 96.5645C22.8699 89.4945 23.3916 77.996 25.9533 63.3844C28.4979 48.8837 31.738 38.819 34.0081 32.9295C35.5849 28.837 39.2672 26.0257 43.6174 25.5916C51.5896 24.7977 68.3786 23.4655 91.2609 23.4629C114.214 23.4629 130.924 24.8048 138.843 25.6043C143.086 26.0345 146.724 28.7517 148.34 32.6946C150.631 38.2759 153.919 48.1391 156.573 63.4218C159.223 78.6786 159.732 89.8784 159.692 96.5865C159.665 101.324 158.467 106.036 156.228 110.214C154.071 114.238 151.364 118.048 148.183 121.536Z" fill="#28313B"/>
<path fill-rule="evenodd" clip-rule="evenodd" d="M113.126 52.1011C104.9 52.584 108.483 84.7063 109.297 84.6588C110.11 84.6109 109.447 62.5876 113.725 62.336C118.003 62.0853 119.913 84.0351 120.727 83.9876C121.541 83.9397 121.352 51.6181 113.126 52.1011Z" fill="#2CABE3"/>
<path fill-rule="evenodd" clip-rule="evenodd" d="M71.496 51.7371C79.7058 52.447 75.2402 84.4585 74.4278 84.3881C73.6155 84.3177 74.8854 62.3208 70.6156 61.9518C66.3458 61.5828 63.8328 83.472 63.0205 83.4016C62.2086 83.3312 63.2861 51.0273 71.496 51.7371Z" fill="#2CABE3"/>
<path fill-rule="evenodd" clip-rule="evenodd" d="M84.9802 22.617C85.122 18.978 88.1826 16.1429 91.8157 16.2854C95.4492 16.4275 98.2792 19.493 98.1374 23.132C97.9951 26.771 94.9346 29.6061 91.3015 29.4636C87.6684 29.3215 84.8384 26.256 84.9802 22.617Z" fill="#28313B"/>
<path fill-rule="evenodd" clip-rule="evenodd" d="M49.0537 143.178C46.6018 136.188 48.3116 130.518 50.1782 126.993C52.1849 123.201 54.7804 121.044 54.8898 120.954L57.1854 123.749C56.8336 124.041 48.6229 131.034 52.4624 141.978L49.0537 143.178Z" fill="#89A1B1"/>
<path fill-rule="evenodd" clip-rule="evenodd" d="M34.7156 135.049C31.6331 127.515 36.6871 120.897 39.7902 118.45L42.0292 121.291C42.0112 121.305 40.2298 122.74 38.8747 125.042C37.1719 127.933 36.8974 130.838 38.0589 133.677L34.7156 135.049Z" fill="#89A1B1"/>
<path fill-rule="evenodd" clip-rule="evenodd" d="M15.6691 107.151C11.2557 105.5 6.34177 107.745 4.69383 112.166C3.04545 116.586 5.28705 121.508 9.70043 123.159C14.1138 124.81 19.0278 122.565 20.6757 118.144C22.3241 113.723 20.0825 108.801 15.6691 107.151Z" fill="#28313B"/>
<path fill-rule="evenodd" clip-rule="evenodd" d="M18.6746 115.152C15.1794 113.002 10.0573 106.164 9.53168 98.916C9.3758 96.7666 9.62433 94.6779 10.2707 92.708L14.8474 94.2148C14.3978 95.584 14.2261 97.0481 14.3363 98.5668C14.7477 104.24 19.0202 109.702 21.1955 111.04L18.6746 115.152Z" fill="#28313B"/>
<path fill-rule="evenodd" clip-rule="evenodd" d="M66.9779 150.64C37.2522 146.532 18.7086 127.819 14.0717 120.955C12.4242 118.514 12.5441 115.321 14.3694 113.008C16.1948 110.696 19.2694 109.842 22.019 110.884C38.5726 117.153 68.9169 120.07 69.2212 120.099L68.5446 127.304C68.2245 127.275 60.5894 126.548 50.7106 125.006C38.2709 123.063 28.3012 120.786 21.0363 118.228C26.3024 124.896 42.8424 139.998 67.9654 143.47L66.9779 150.64Z" fill="#28313B"/>
<path fill-rule="evenodd" clip-rule="evenodd" d="M134.782 143.178L131.373 141.978C135.236 130.966 126.741 123.823 126.655 123.752L128.946 120.954C129.055 121.044 131.651 123.201 133.658 126.993C135.524 130.518 137.234 136.188 134.782 143.178Z" fill="#89A1B1"/>
<path fill-rule="evenodd" clip-rule="evenodd" d="M149.12 135.049L145.777 133.677C146.938 130.839 146.664 127.933 144.961 125.042C143.606 122.74 141.824 121.305 141.807 121.291L144.045 118.45C147.149 120.897 152.203 127.515 149.12 135.049Z" fill="#89A1B1"/>
<path fill-rule="evenodd" clip-rule="evenodd" d="M168.167 107.151C172.58 105.5 177.494 107.745 179.142 112.166C180.79 116.586 178.549 121.508 174.135 123.159C169.722 124.81 164.809 122.565 163.16 118.144C161.512 113.723 163.753 108.801 168.167 107.151Z" fill="#28313B"/>
<path fill-rule="evenodd" clip-rule="evenodd" d="M165.161 115.152L162.64 111.04C164.815 109.702 169.088 104.24 169.5 98.5668C169.61 97.0481 169.438 95.584 168.988 94.2148L173.565 92.708C174.211 94.6779 174.46 96.7666 174.304 98.916C173.779 106.164 168.656 113.002 165.161 115.152Z" fill="#28313B"/>
<path fill-rule="evenodd" clip-rule="evenodd" d="M116.858 150.64L115.87 143.47C140.991 139.999 157.531 124.898 162.799 118.229C155.534 120.786 145.564 123.064 133.125 125.006C123.246 126.548 115.611 127.275 115.291 127.305L114.614 120.099C114.919 120.07 145.263 117.154 161.817 110.884C164.566 109.843 167.64 110.696 169.466 113.008C171.291 115.321 171.411 118.515 169.765 120.955C165.127 127.819 146.583 146.532 116.858 150.64Z" fill="#28313B"/>
<path fill-rule="evenodd" clip-rule="evenodd" d="M7.9063 108.112L10.9576 113.657C10.9576 113.657 2.88915 116.469 2.10887 115.98C1.3286 115.49 -0.654814 111.12 0.217236 110.65L7.9063 108.112Z" fill="#28313B"/>
<path fill-rule="evenodd" clip-rule="evenodd" d="M175.869 108.112L172.818 113.657C172.818 113.657 180.886 116.469 181.667 115.98C182.447 115.49 184.43 111.12 183.558 110.65L175.869 108.112Z" fill="#28313B"/>
<path fill-rule="evenodd" clip-rule="evenodd" d="M130.847 15.9578C130.518 15.974 130.205 15.9762 129.914 15.9657C129.781 15.9608 129.68 15.8452 129.688 15.7124L129.819 13.5744L129.938 11.4206C129.945 11.2949 130.048 11.1968 130.174 11.195C130.711 11.1884 132.147 11.1053 133.67 10.4742C135.987 9.5136 137.527 7.68793 138.251 5.04552C138.285 4.92017 138.412 4.84365 138.537 4.87531L142.693 5.92603C142.821 5.95858 142.9 6.09228 142.866 6.22071C140.886 13.61 134.702 15.7673 130.847 15.9578Z" fill="#FFDB31"/>
<path fill-rule="evenodd" clip-rule="evenodd" d="M98.4666 108.719C98.1719 108.868 97.8874 108.996 97.6169 109.104C97.4935 109.154 97.3543 109.089 97.3078 108.965L96.5635 106.956L95.8008 104.939C95.7565 104.821 95.8109 104.69 95.9251 104.638C96.4142 104.413 97.6933 103.755 98.8306 102.56C100.56 100.742 101.23 98.448 100.824 95.7383C100.805 95.6099 100.889 95.4885 101.017 95.4665L105.241 94.7417C105.372 94.7193 105.498 94.8094 105.519 94.9409C106.696 102.5 101.914 106.981 98.4666 108.719Z" fill="#FFDB31"/>
<path fill-rule="evenodd" clip-rule="evenodd" d="M150.325 177.331C150.207 177.64 150.083 177.927 149.957 178.19C149.899 178.31 149.753 178.356 149.635 178.295L147.733 177.314L145.813 176.338C145.7 176.282 145.652 176.147 145.702 176.031C145.912 175.536 146.414 174.186 146.45 172.536C146.505 170.025 145.457 167.878 143.333 166.15C143.232 166.068 143.213 165.922 143.293 165.819L145.926 162.432C146.008 162.327 146.161 162.309 146.265 162.392C152.22 167.182 151.703 173.721 150.325 177.331Z" fill="#FFDB31"/>
<path fill-rule="evenodd" clip-rule="evenodd" d="M20.1687 63.32C20.304 63.6217 20.419 63.912 20.5156 64.1873C20.5595 64.3131 20.4888 64.4494 20.3624 64.4904L18.3263 65.1461L16.2805 65.8199C16.1611 65.8591 16.0328 65.7988 15.9854 65.6823C15.783 65.1831 15.1832 63.8737 14.0415 62.6832C12.3053 60.8716 10.047 60.0997 7.32595 60.386C7.19685 60.3996 7.08005 60.3099 7.06381 60.181L6.52811 55.9219C6.51098 55.7899 6.60671 55.6681 6.73887 55.6532C14.3305 54.8096 18.588 59.7931 20.1687 63.32Z" fill="#FFDB31"/>
<path fill-rule="evenodd" clip-rule="evenodd" d="M51.5195 140.004C51.4014 140.313 51.278 140.6 51.1511 140.863C51.0931 140.983 50.9469 141.029 50.8288 140.968L48.9275 139.987L47.0069 139.011C46.8945 138.954 46.8466 138.82 46.8958 138.704C47.1061 138.209 47.608 136.859 47.644 135.209C47.6989 132.698 46.6508 130.55 44.5273 128.823C44.4267 128.741 44.4074 128.595 44.4869 128.492L47.1197 125.105C47.2019 125 47.3555 124.982 47.4587 125.065C53.4147 129.855 52.8974 136.393 51.5195 140.004Z" fill="#FFDB31"/>
<path fill-rule="evenodd" clip-rule="evenodd" d="M171.926 83.7924C171.808 84.1012 171.684 84.3879 171.558 84.6509C171.5 84.771 171.353 84.8172 171.235 84.756L169.334 83.7748L167.413 82.7993C167.301 82.7426 167.253 82.6084 167.302 82.4923C167.513 81.9966 168.015 80.6473 168.051 78.9967C168.105 76.4858 167.057 74.3386 164.934 72.611C164.833 72.5292 164.814 72.3827 164.893 72.2803L167.526 68.8932C167.608 68.7881 167.762 68.7697 167.865 68.8532C173.822 73.6428 173.304 80.1815 171.926 83.7924Z" fill="#FFDB31"/>
<path fill-rule="evenodd" clip-rule="evenodd" d="M17.2498 27.201C16.1503 28.3133 15.4917 29.441 15.2374 29.9204C15.1738 30.0401 15.2238 30.1878 15.3463 30.2459L17.2753 31.1664L19.213 32.1076C19.3259 32.1622 19.4602 32.1208 19.523 32.0122C19.7382 31.6401 20.2765 30.8027 21.1056 30.1249C22.3052 29.145 23.5742 28.9128 25.082 29.401C25.2054 29.441 25.3385 29.3799 25.3828 29.2581L26.8481 25.2245C26.8938 25.0992 26.8279 24.958 26.7014 24.9153C23.5443 23.8444 20.4355 24.4293 17.923 26.5747C17.6828 26.7797 17.4584 26.9904 17.2498 27.201Z" fill="#38CA79"/>
<path fill-rule="evenodd" clip-rule="evenodd" d="M165.311 26.4393C166.095 27.7935 166.449 29.0509 166.574 29.5792C166.605 29.7111 166.519 29.8413 166.386 29.8668L164.288 30.2697L162.175 30.691C162.053 30.7152 161.933 30.6409 161.9 30.5204C161.785 30.1056 161.475 29.1591 160.844 28.2936C159.93 27.0423 158.761 26.4965 157.178 26.588C157.049 26.5955 156.936 26.5027 156.923 26.3738L156.522 22.1005C156.509 21.9677 156.609 21.8477 156.742 21.8384C160.066 21.6 162.927 22.952 164.818 25.663C164.999 25.9221 165.163 26.1829 165.311 26.4393Z" fill="#38CA79"/>
<path fill-rule="evenodd" clip-rule="evenodd" d="M20.1306 94.0777C18.574 93.9431 17.3427 93.5108 16.8395 93.3102C16.7135 93.2601 16.656 93.1154 16.7117 92.9913L17.5869 91.039L18.4554 89.0651C18.5059 88.9503 18.6354 88.8945 18.7531 88.9367C19.158 89.0809 20.1095 89.3699 21.1796 89.3488C22.727 89.3176 23.8445 88.6719 24.6779 87.3217C24.7459 87.2113 24.8873 87.1717 24.9993 87.2359L28.7233 89.3594C28.8392 89.4253 28.88 89.5757 28.8115 89.6905C27.0977 92.5542 24.3503 94.1239 21.0487 94.1186C20.733 94.1177 20.4256 94.1032 20.1306 94.0777Z" fill="#38CA79"/>
<path fill-rule="evenodd" clip-rule="evenodd" d="M127.174 154.597C126.171 155.797 125.111 156.558 124.657 156.856C124.544 156.93 124.393 156.894 124.324 156.778L123.23 154.939L122.115 153.093C122.05 152.986 122.079 152.848 122.181 152.775C122.531 152.526 123.314 151.912 123.911 151.022C124.774 149.735 124.888 148.448 124.263 146.989C124.212 146.87 124.26 146.731 124.377 146.676L128.251 144.841C128.372 144.784 128.518 144.837 128.572 144.959C129.929 148.009 129.635 151.164 127.735 153.867C127.553 154.127 127.365 154.37 127.174 154.597Z" fill="#38CA79"/>
<path fill-rule="evenodd" clip-rule="evenodd" d="M80.1258 7.97284C81.6846 8.0828 82.9681 7.84794 83.4963 7.72831C83.6285 7.6984 83.7075 7.56425 83.672 7.43319L83.1112 5.36826L82.5602 3.28266C82.5281 3.16171 82.4091 3.0865 82.2862 3.10937C81.8638 3.18898 80.8789 3.3262 79.825 3.13796C78.3013 2.86571 77.2984 2.05381 76.685 0.589671C76.635 0.470041 76.5015 0.408907 76.3807 0.454648L72.3718 1.97113C72.2471 2.01863 72.1834 2.16069 72.2334 2.28428C73.4809 5.38057 75.9504 7.36018 79.2125 7.86993C79.5247 7.91831 79.8303 7.95217 80.1258 7.97284Z" fill="#38CA79"/>
<path fill-rule="evenodd" clip-rule="evenodd" d="M55.7464 157.96C57.3052 157.85 58.5882 158.085 59.1169 158.205C59.2491 158.235 59.3281 158.369 59.2925 158.5L58.7318 160.565L58.1807 162.65C58.1487 162.771 58.0292 162.847 57.9063 162.824C57.4843 162.744 56.4994 162.607 55.4456 162.795C53.9219 163.067 52.919 163.879 52.3056 165.343C52.2551 165.463 52.122 165.524 52.0009 165.478L47.9923 163.962C47.8676 163.914 47.8039 163.772 47.8536 163.649C49.101 160.552 51.571 158.573 54.833 158.063C55.1448 158.015 55.4509 157.981 55.7464 157.96Z" fill="#38CA79"/>
<path fill-rule="evenodd" clip-rule="evenodd" d="M18.6169 149.935L20.246 145.964C20.2947 145.845 20.4282 145.785 20.5485 145.831C22.2812 146.494 26.5572 147.668 29.0943 146.459C29.2102 146.404 29.3485 146.444 29.4104 146.556L31.4755 150.319C31.5396 150.437 31.4966 150.586 31.3776 150.647C26.6516 153.075 20.206 150.815 18.7513 150.248C18.627 150.2 18.5664 150.059 18.6169 149.935Z" fill="#E94C35"/>
<path fill-rule="evenodd" clip-rule="evenodd" d="M86.0097 172.168L83.1555 175.37C83.0695 175.466 83.0743 175.612 83.1683 175.701C84.5207 176.972 87.4429 180.312 87.4653 183.126C87.4666 183.255 87.5628 183.362 87.691 183.368L91.9726 183.585C92.1061 183.592 92.2212 183.487 92.2243 183.353C92.3397 178.035 87.4943 173.215 86.3495 172.152C86.2516 172.061 86.0988 172.068 86.0097 172.168Z" fill="#E94C35"/>
<path fill-rule="evenodd" clip-rule="evenodd" d="M110.588 16.1391L106.974 18.4481C106.865 18.5176 106.831 18.6592 106.898 18.7701C107.856 20.3604 109.767 24.368 109.028 27.083C108.994 27.2075 109.057 27.3363 109.179 27.3777L113.242 28.7468C113.369 28.7895 113.509 28.72 113.547 28.5924C115.096 23.5033 111.734 17.5496 110.919 16.2161C110.849 16.1021 110.7 16.067 110.588 16.1391Z" fill="#E94C35"/>
<path fill-rule="evenodd" clip-rule="evenodd" d="M45.1066 1.69076L47.7843 5.04346C47.8646 5.14418 47.8519 5.28976 47.7531 5.37289C46.3339 6.56874 43.2356 9.74553 43.0613 12.5546C43.0534 12.683 42.9515 12.7846 42.8233 12.7842L38.5359 12.7684C38.4025 12.7679 38.2927 12.6575 38.2975 12.5238C38.4692 7.20691 43.568 2.65615 44.7681 1.65689C44.8708 1.57157 45.0232 1.58652 45.1066 1.69076Z" fill="#E94C35"/>
<path fill-rule="evenodd" clip-rule="evenodd" d="M145.967 148.827L147.817 144.954C147.873 144.838 148.009 144.786 148.127 144.839C149.819 145.599 154.023 147.013 156.624 145.95C156.743 145.901 156.879 145.948 156.934 146.064L158.783 149.938C158.841 150.059 158.789 150.206 158.667 150.26C153.811 152.417 147.504 149.795 146.084 149.147C145.962 149.092 145.909 148.947 145.967 148.827Z" fill="#E94C35"/>
<path fill-rule="evenodd" clip-rule="evenodd" d="M159.672 48.9113L160.954 53.0078C160.993 53.1313 160.928 53.2624 160.806 53.3037C159.05 53.9032 155.013 55.7386 153.834 58.293C153.78 58.41 153.648 58.4681 153.528 58.4206L149.539 56.8491C149.415 56.8003 149.353 56.6573 149.405 56.5346C151.49 51.6412 157.889 49.2522 159.369 48.7565C159.496 48.7143 159.632 48.7838 159.672 48.9113Z" fill="#E94C35"/>
<path fill-rule="evenodd" clip-rule="evenodd" d="M59.8906 78.3529L64.0318 79.4613C64.1561 79.4943 64.232 79.6192 64.2017 79.7445C63.7679 81.5508 63.1549 85.949 64.6777 88.3139C64.7475 88.4225 64.7256 88.5646 64.6219 88.6406L61.1614 91.1749C61.0534 91.254 60.8997 91.2303 60.8242 91.1199C57.8137 86.7371 59.2232 80.044 59.5978 78.5267C59.6303 78.3969 59.762 78.3182 59.8906 78.3529Z" fill="#E94C35"/>
</svg>
