<svg width="194" height="200" viewBox="0 0 194 200" fill="none" xmlns="http://www.w3.org/2000/svg">
<mask id="mask0" mask-type="alpha" maskUnits="userSpaceOnUse" x="22" y="55" width="150" height="145">
<path fill-rule="evenodd" clip-rule="evenodd" d="M22.1794 55.9445H171.647V199.593H22.1794V55.9445Z" fill="white"/>
</mask>
<g mask="url(#mask0)">
<path fill-rule="evenodd" clip-rule="evenodd" d="M94.5887 55.9445C73.0618 55.9445 22.1794 107.091 22.1794 146.912C22.1794 175.607 49.6429 199.593 96.073 199.593C142.503 199.593 171.647 174.13 171.647 146.912C171.647 112.432 134.865 55.9445 94.5887 55.9445Z" fill="#94EDB8"/>
</g>
<path fill-rule="evenodd" clip-rule="evenodd" d="M78.3126 33.3441C68.9547 29.6927 73.5894 20.3223 78.7126 15.0506C84.2422 9.35981 91.9552 5.18388 100.095 6.32555C108.045 7.44083 120.265 23.1644 118.879 32.1381C117.342 42.0825 94.257 39.5658 78.3126 33.3441Z" fill="#94EDB8"/>
<path fill-rule="evenodd" clip-rule="evenodd" d="M16.8604 121.216C16.8604 121.216 27.6627 137.499 35.996 142.157C44.3293 146.815 63.7738 153.49 63.7738 153.49C63.7738 153.49 68.6141 154.518 69.6381 156.383C70.6622 158.249 81.3664 170.889 83.2182 173.358C85.0701 175.828 89.0826 178.914 92.4775 178.914C95.8728 178.914 106.984 175.21 107.601 174.284C108.218 173.358 118.712 161.321 119.638 160.395C120.564 159.469 126.737 155.676 128.897 154.795C131.058 153.914 143.712 148.358 146.799 147.124C149.885 145.889 168.712 136.555 171.799 132.117C174.885 127.68 183.753 121.641 177.652 120.783C171.551 119.924 158.237 124.685 158.237 124.685C158.237 124.685 164.391 111.63 164.391 106.074C164.391 100.519 160.302 64.099 160.302 64.099C160.302 64.099 158.886 35.3953 150.527 33.2351C142.169 31.0745 147.416 28.2967 131.984 29.2226C116.552 30.1486 41.8354 32.3092 41.8354 32.3092C41.8354 32.3092 33.8358 57.3092 32.6011 64.4078C31.3664 71.5064 28.5886 98.0499 28.8974 102.68C29.2062 107.309 34.1441 123.667 34.1441 123.667L16.8604 121.216Z" fill="white"/>
<path fill-rule="evenodd" clip-rule="evenodd" d="M46.793 126.603C46.793 126.603 43.9893 118.532 42.7198 115.993C41.4499 113.453 39.9263 110.914 50.8462 110.914C61.7661 110.914 137.698 110.66 144.808 109.644C151.919 108.628 152.935 110.66 149.887 115.993C146.84 121.326 143.792 127.674 143.792 127.674L121.953 130.212C121.953 130.212 115.35 123.865 110.017 121.58C104.684 119.294 90.7166 117.262 87.4152 119.548C84.1138 121.834 78.5267 125.389 77.511 126.659C76.4953 127.929 71.6541 130.116 71.6541 130.116L46.793 126.603Z" fill="#D5E4EC"/>
<path fill-rule="evenodd" clip-rule="evenodd" d="M67.8608 138.594C67.8608 138.594 36.8788 131.23 30.7839 125.643C24.689 120.056 19.6099 120.818 19.6099 120.818C19.6099 120.818 30.2756 139.196 32.5613 141.435C34.8469 143.673 50.5918 153.07 51.3538 153.578C52.1159 154.085 69.1168 154.795 69.1168 154.795L67.8608 138.594Z" fill="#D5E4EC"/>
<path fill-rule="evenodd" clip-rule="evenodd" d="M125.748 138.594C125.748 138.594 156.73 131.23 162.825 125.643C168.92 120.056 173.999 120.818 173.999 120.818C173.999 120.818 163.333 139.196 161.048 141.435C158.762 143.673 143.016 153.07 142.255 153.578C141.493 154.085 124.492 154.795 124.492 154.795L125.748 138.594Z" fill="#D5E4EC"/>
<path fill-rule="evenodd" clip-rule="evenodd" d="M70.8493 148.781L68.9915 145.455C78.6415 140.064 91.0771 138.158 104.955 139.942C115.362 141.28 122.841 144.168 123.154 144.29L121.77 147.839C121.77 147.839 121.769 147.839 121.769 147.838C121.652 147.793 114.309 144.973 104.374 143.708C95.2928 142.551 82.1049 142.493 70.8493 148.781Z" fill="#89A1B1"/>
<path fill-rule="evenodd" clip-rule="evenodd" d="M88.2283 140.899C88.2283 146.801 91.5158 151.586 95.5709 151.586C99.626 151.586 102.913 146.801 102.913 140.899C102.913 134.997 99.626 130.213 95.5709 130.213C91.5158 130.213 88.2283 134.997 88.2283 140.899Z" fill="#2FA9E0"/>
<path fill-rule="evenodd" clip-rule="evenodd" d="M95.5707 132.117C92.623 132.117 90.1327 136.139 90.1327 140.899C90.1327 145.659 92.623 149.681 95.5707 149.681C98.5184 149.681 101.009 145.659 101.009 140.899C101.009 136.139 98.5184 132.117 95.5707 132.117ZM95.5707 153.49C90.3855 153.49 86.3235 147.96 86.3235 140.899C86.3235 133.838 90.3855 128.308 95.5707 128.308C100.756 128.308 104.818 133.838 104.818 140.899C104.818 147.96 100.756 153.49 95.5707 153.49Z" fill="#28313B"/>
<path fill-rule="evenodd" clip-rule="evenodd" d="M96.1646 122.352C87.9539 122.352 81.8021 124.406 77.8794 128.455C73.7854 132.682 72.9261 138.32 72.9261 142.307C72.9261 150.198 75.4044 157.506 80.2923 164.028C85.0886 170.428 90.4687 173.768 92.0035 174.638C93.8942 175.711 96.1775 175.902 98.2669 175.163C101.547 174.002 106.672 170.746 111.218 165.09C114.825 160.602 119.294 152.981 120.142 142.132C120.109 136.979 118.23 132.257 114.843 128.821C110.671 124.589 104.212 122.352 96.1646 122.352ZM95.6937 183.225C93.103 183.225 90.5354 182.564 88.2442 181.264C86.3845 180.209 79.8766 176.177 74.1956 168.597C68.2979 160.727 65.3076 151.882 65.3076 142.307C65.3076 134.572 67.7627 127.949 72.4076 123.154C77.8197 117.567 85.8127 114.734 96.1646 114.734C106.297 114.734 114.632 117.756 120.268 123.472C125.1 128.374 127.762 135.05 127.762 142.271L127.751 142.557C126.986 152.749 123.322 162.192 117.156 169.863C112.446 175.723 106.335 180.388 100.809 182.344C99.1437 182.934 97.4136 183.225 95.6937 183.225Z" fill="#28313B"/>
<path fill-rule="evenodd" clip-rule="evenodd" d="M30.4126 68.3472H160.302V64.538H30.4126V68.3472Z" fill="#89A1B1"/>
<path fill-rule="evenodd" clip-rule="evenodd" d="M38.795 98.4767C38.8279 100.246 40.1478 101.727 41.9011 101.962C47.4353 102.703 61.9927 103.995 96.2251 103.995C130.533 103.995 145.079 102.697 150.586 101.957C152.331 101.723 153.646 100.255 153.692 98.4952C153.819 93.6869 153.656 83.1563 151.002 67.8943C148.66 54.4346 146.258 46.6536 144.793 42.723C144.033 40.6837 142.181 39.2513 140.017 39.0175C133.407 38.304 117.502 36.8735 96.2251 36.8735C75.0316 36.8735 59.1677 38.2929 52.5117 39.0091C50.3196 39.2452 48.4585 40.7091 47.7048 42.7809C46.2126 46.8841 43.7288 54.917 41.4538 67.8661C38.8918 82.4471 38.702 93.4651 38.795 98.4767Z" fill="#343A4C"/>
<path fill-rule="evenodd" clip-rule="evenodd" d="M156.236 127.934L150.611 122.796C153.541 119.588 156.029 116.095 158.006 112.412C159.781 109.105 160.731 105.376 160.753 101.627C160.793 94.8747 160.274 83.5723 157.577 68.0668C154.896 52.6575 151.626 42.8362 149.355 37.3108C148.721 35.7654 147.291 34.7015 145.622 34.5325C137.418 33.7052 120.088 32.3172 96.2212 32.3172C72.4244 32.32 55.0069 33.6987 46.7425 34.521C45.0332 34.6909 43.5851 35.7969 42.9633 37.4071C40.692 43.2904 37.4439 53.3811 34.8675 68.0395C32.1249 83.6557 31.7342 95.7918 31.7457 101.636C31.7499 105.429 32.6916 109.175 34.4689 112.473C36.3717 116.002 38.7439 119.361 41.5207 122.455L35.8508 127.544C32.6721 124.002 29.9508 120.147 27.7629 116.088C25.3902 111.685 24.1328 106.692 24.1272 101.648C24.1129 94.2057 24.6629 82.102 27.3638 66.7214C30.0467 51.4575 33.4629 40.8631 35.8564 34.6635C37.5189 30.3557 41.4013 27.3964 45.9879 26.9395C54.3934 26.1038 72.0948 24.7015 96.2207 24.6987C120.421 24.6987 138.04 26.1112 146.388 26.9529C150.862 27.4057 154.699 30.2659 156.402 34.4163C158.817 40.2913 162.284 50.6737 165.082 66.7608C167.877 82.8205 168.413 94.6098 168.371 101.671C168.342 106.658 167.08 111.618 164.719 116.016C162.444 120.252 159.591 124.262 156.236 127.934Z" fill="#28313B"/>
<path fill-rule="evenodd" clip-rule="evenodd" d="M119.274 54.8434C110.601 55.3517 114.379 89.1647 115.237 89.1147C116.095 89.0642 115.395 65.8818 119.906 65.617C124.417 65.3531 126.43 88.4582 127.288 88.4082C128.146 88.3578 127.948 54.3351 119.274 54.8434Z" fill="#2FA9E0"/>
<path fill-rule="evenodd" clip-rule="evenodd" d="M75.3816 54.4602C84.0377 55.2074 79.3293 88.9037 78.4728 88.8296C77.6164 88.7556 78.9552 65.6009 74.4534 65.2125C69.9515 64.8241 67.302 87.8653 66.4455 87.7912C65.5895 87.7171 66.7256 53.713 75.3816 54.4602Z" fill="#2FA9E0"/>
<path fill-rule="evenodd" clip-rule="evenodd" d="M89.5986 23.8079C89.7482 19.9773 92.975 16.9931 96.8056 17.1431C100.637 17.2926 103.62 20.5195 103.471 24.35C103.321 28.1806 100.094 31.1648 96.2635 31.0148C92.4329 30.8653 89.4491 27.6385 89.5986 23.8079Z" fill="#28313B"/>
<path fill-rule="evenodd" clip-rule="evenodd" d="M51.7197 150.714C49.1345 143.357 50.9373 137.389 52.9053 133.677C55.0211 129.686 57.7576 127.415 57.8729 127.321L60.2933 130.263C59.9225 130.57 51.2655 137.932 55.3137 149.451L51.7197 150.714Z" fill="#89A1B1"/>
<path fill-rule="evenodd" clip-rule="evenodd" d="M36.6022 142.157C33.3522 134.226 38.6809 127.26 41.9527 124.685L44.3133 127.674C44.2944 127.689 42.4161 129.2 40.9874 131.623C39.192 134.667 38.9027 137.725 40.1272 140.712L36.6022 142.157Z" fill="#89A1B1"/>
<path fill-rule="evenodd" clip-rule="evenodd" d="M16.5206 112.791C11.8674 111.053 6.68634 113.416 4.94884 118.07C3.21088 122.723 5.57431 127.904 10.2275 129.641C14.8808 131.379 20.0618 129.016 21.7993 124.363C23.5373 119.709 21.1738 114.528 16.5206 112.791Z" fill="#28313B"/>
<path fill-rule="evenodd" clip-rule="evenodd" d="M19.6896 121.213C16.0044 118.95 10.6039 111.752 10.0498 104.123C9.88541 101.86 10.1474 99.6616 10.8289 97.588L15.6544 99.1741C15.1803 100.615 14.9993 102.156 15.1155 103.755C15.5493 109.726 20.0539 115.477 22.3474 116.885L19.6896 121.213Z" fill="#28313B"/>
<path fill-rule="evenodd" clip-rule="evenodd" d="M70.6181 158.569C39.2769 154.244 19.7255 134.547 14.8366 127.322C13.0995 124.752 13.2259 121.391 15.1505 118.956C17.075 116.522 20.3167 115.624 23.2158 116.721C40.669 123.32 72.6625 126.39 72.9833 126.42L72.2699 134.005C71.9324 133.973 63.8824 133.209 53.4667 131.585C40.3509 129.54 29.8394 127.143 22.1796 124.451C27.732 131.469 45.1708 147.367 71.6593 151.022L70.6181 158.569Z" fill="#28313B"/>
<path fill-rule="evenodd" clip-rule="evenodd" d="M142.107 150.714L138.513 149.451C142.586 137.86 133.629 130.341 133.538 130.266L135.954 127.321C136.069 127.415 138.806 129.686 140.922 133.677C142.889 137.389 144.692 143.357 142.107 150.714Z" fill="#89A1B1"/>
<path fill-rule="evenodd" clip-rule="evenodd" d="M157.224 142.157L153.699 140.713C154.924 137.725 154.635 134.667 152.839 131.623C151.41 129.2 149.532 127.689 149.514 127.674L151.874 124.684C155.146 127.26 160.474 134.227 157.224 142.157Z" fill="#89A1B1"/>
<path fill-rule="evenodd" clip-rule="evenodd" d="M177.306 112.791C181.959 111.053 187.14 113.416 188.878 118.07C190.616 122.723 188.252 127.904 183.599 129.641C178.946 131.379 173.765 129.016 172.027 124.363C170.289 119.709 172.653 114.528 177.306 112.791Z" fill="#28313B"/>
<path fill-rule="evenodd" clip-rule="evenodd" d="M174.137 121.213L171.479 116.885C173.773 115.477 178.278 109.726 178.711 103.755C178.828 102.156 178.646 100.615 178.173 99.1741L182.998 97.588C183.679 99.6616 183.942 101.86 183.777 104.123C183.223 111.752 177.823 118.95 174.137 121.213Z" fill="#28313B"/>
<path fill-rule="evenodd" clip-rule="evenodd" d="M123.209 158.569L122.167 151.022C148.653 147.367 166.092 131.471 171.647 124.451C163.987 127.143 153.475 129.541 140.36 131.585C129.944 133.209 121.894 133.973 121.557 134.005L120.843 126.42C121.164 126.39 153.158 123.32 170.611 116.72C173.51 115.624 176.751 116.522 178.676 118.956C180.601 121.391 180.727 124.752 178.991 127.321C174.101 134.547 154.549 154.244 123.209 158.569Z" fill="#28313B"/>
<path fill-rule="evenodd" clip-rule="evenodd" d="M8.33599 113.803L11.5531 119.64C11.5531 119.64 3.04617 122.599 2.22349 122.084C1.4008 121.569 -0.690402 116.969 0.229042 116.474L8.33599 113.803Z" fill="#28313B"/>
<path fill-rule="evenodd" clip-rule="evenodd" d="M185.427 113.803L182.21 119.64C182.21 119.64 190.717 122.599 191.54 122.084C192.362 121.569 194.453 116.969 193.534 116.474L185.427 113.803Z" fill="#28313B"/>
<path fill-rule="evenodd" clip-rule="evenodd" d="M137.958 16.7981C137.611 16.8152 137.282 16.8176 136.974 16.8064C136.834 16.8014 136.728 16.6796 136.736 16.5398L136.875 14.2893L137 12.0222C137.007 11.8898 137.116 11.7865 137.248 11.7847C137.815 11.7777 139.329 11.6902 140.934 11.0259C143.377 10.0148 145.001 8.09302 145.765 5.31154C145.801 5.1796 145.934 5.09904 146.066 5.13237L150.447 6.23839C150.583 6.27265 150.666 6.41339 150.63 6.54858C148.543 14.3268 142.022 16.5977 137.958 16.7981Z" fill="#FFDB33"/>
<path fill-rule="evenodd" clip-rule="evenodd" d="M103.818 114.442C103.507 114.598 103.207 114.733 102.922 114.848C102.792 114.9 102.645 114.832 102.596 114.701L101.812 112.586L101.007 110.463C100.961 110.339 101.018 110.201 101.138 110.146C101.654 109.91 103.003 109.217 104.202 107.959C106.026 106.045 106.732 103.63 106.304 100.778C106.283 100.643 106.372 100.515 106.507 100.492L110.961 99.729C111.099 99.7054 111.232 99.8003 111.253 99.9387C112.495 107.896 107.453 112.613 103.818 114.442Z" fill="#FFDB33"/>
<path fill-rule="evenodd" clip-rule="evenodd" d="M158.495 186.666C158.371 186.991 158.24 187.292 158.107 187.569C158.046 187.695 157.891 187.744 157.767 187.68L155.762 186.647L153.737 185.62C153.619 185.56 153.568 185.419 153.62 185.297C153.842 184.775 154.371 183.355 154.409 181.617C154.467 178.974 153.362 176.714 151.123 174.896C151.016 174.81 150.996 174.655 151.08 174.547L153.856 170.982C153.943 170.872 154.105 170.852 154.214 170.94C160.493 175.982 159.947 182.865 158.495 186.666Z" fill="#FFDB33"/>
<path fill-rule="evenodd" clip-rule="evenodd" d="M21.2647 66.6534C21.4072 66.971 21.5285 67.2766 21.6304 67.5664C21.6767 67.6988 21.6022 67.8423 21.4688 67.8854L19.3221 68.5756L17.1651 69.2849C17.0392 69.3261 16.904 69.2627 16.854 69.14C16.6406 68.6145 16.0082 67.2363 14.8045 65.9831C12.9739 64.0761 10.5929 63.2636 7.72391 63.565C7.5878 63.5794 7.46465 63.4849 7.44752 63.3493L6.88271 58.8659C6.86465 58.727 6.96558 58.5988 7.10493 58.5831C15.1091 57.6951 19.598 62.9409 21.2647 66.6534Z" fill="#FFDB33"/>
<path fill-rule="evenodd" clip-rule="evenodd" d="M54.3194 147.374C54.1949 147.699 54.0648 148.001 53.931 148.278C53.8699 148.404 53.7157 148.453 53.5912 148.388L51.5866 147.355L49.5616 146.328C49.443 146.269 49.3926 146.128 49.4444 146.005C49.6662 145.484 50.1954 144.063 50.2333 142.326C50.2912 139.683 49.1861 137.422 46.9472 135.604C46.8412 135.518 46.8208 135.364 46.9046 135.256L49.6805 131.69C49.7671 131.58 49.9292 131.56 50.0379 131.648C56.3176 136.69 55.7722 143.573 54.3194 147.374Z" fill="#FFDB33"/>
<path fill-rule="evenodd" clip-rule="evenodd" d="M181.27 88.2031C181.146 88.5281 181.015 88.83 180.881 89.1068C180.82 89.2332 180.666 89.2818 180.542 89.2175L178.537 88.1846L176.512 87.1578C176.394 87.0981 176.343 86.9568 176.395 86.8346C176.617 86.3129 177.146 84.8925 177.184 83.155C177.242 80.5119 176.137 78.2518 173.898 76.4332C173.792 76.3471 173.771 76.193 173.855 76.0851L176.631 72.5198C176.718 72.4092 176.88 72.3897 176.988 72.4777C183.268 77.5193 182.723 84.4022 181.27 88.2031Z" fill="#FFDB33"/>
<path fill-rule="evenodd" clip-rule="evenodd" d="M18.1874 28.6328C17.0281 29.8037 16.3337 30.9907 16.0656 31.4953C15.9985 31.6212 16.0512 31.7768 16.1804 31.8379L18.2142 32.8069L20.2573 33.7976C20.3762 33.855 20.5179 33.8115 20.5841 33.6972C20.811 33.3055 21.3786 32.424 22.2526 31.7106C23.5175 30.6791 24.8554 30.4347 26.4452 30.9486C26.5753 30.9907 26.7156 30.9263 26.7624 30.7981L28.3073 26.5523C28.3554 26.4203 28.286 26.2717 28.1526 26.2268C24.8239 25.0995 21.5462 25.7152 18.8971 27.9736C18.6438 28.1893 18.4073 28.4111 18.1874 28.6328Z" fill="#2FA9E0"/>
<path fill-rule="evenodd" clip-rule="evenodd" d="M174.296 27.8315C175.122 29.2569 175.495 30.5806 175.627 31.1366C175.659 31.2755 175.569 31.4125 175.429 31.4394L173.217 31.8634L170.989 32.3069C170.86 32.3324 170.734 32.2542 170.699 32.1273C170.578 31.6907 170.251 30.6944 169.585 29.7833C168.622 28.4662 167.389 27.8917 165.721 27.988C165.584 27.9958 165.465 27.8981 165.452 27.7625L165.028 23.2644C165.015 23.1245 165.12 22.9981 165.26 22.9884C168.766 22.7375 171.782 24.1606 173.775 27.0144C173.966 27.287 174.139 27.5616 174.296 27.8315Z" fill="#2FA9E0"/>
<path fill-rule="evenodd" clip-rule="evenodd" d="M21.2245 99.0292C19.5833 98.8876 18.2852 98.4325 17.7546 98.2214C17.6217 98.1686 17.5611 98.0163 17.6199 97.8857L18.5426 95.8306L19.4583 93.7529C19.5115 93.632 19.6481 93.5732 19.7722 93.6177C20.199 93.7695 21.2023 94.0737 22.3305 94.0515C23.962 94.0186 25.1403 93.339 26.019 91.9177C26.0907 91.8015 26.2398 91.7598 26.3578 91.8274L30.2842 94.0626C30.4065 94.132 30.4495 94.2904 30.3773 94.4112C28.5703 97.4255 25.6736 99.0779 22.1926 99.0723C21.8597 99.0714 21.5356 99.0561 21.2245 99.0292Z" fill="#2FA9E0"/>
<path fill-rule="evenodd" clip-rule="evenodd" d="M134.086 162.734C133.028 163.997 131.91 164.798 131.432 165.112C131.313 165.19 131.153 165.152 131.08 165.03L129.928 163.094L128.752 161.151C128.684 161.038 128.714 160.893 128.821 160.816C129.191 160.554 130.016 159.908 130.645 158.971C131.555 157.616 131.675 156.262 131.016 154.726C130.962 154.601 131.013 154.455 131.137 154.396L135.221 152.465C135.348 152.405 135.503 152.461 135.56 152.589C136.99 155.799 136.68 159.12 134.677 161.966C134.485 162.239 134.287 162.495 134.086 162.734Z" fill="#2FA9E0"/>
<path fill-rule="evenodd" clip-rule="evenodd" d="M84.4805 8.39293C86.124 8.50867 87.4772 8.26145 88.0342 8.13552C88.1735 8.10404 88.2569 7.96283 88.2194 7.82487L87.6282 5.65126L87.0471 3.45589C87.0133 3.32857 86.8879 3.24941 86.7583 3.27348C86.3129 3.35728 85.2745 3.50172 84.1633 3.30357C82.5569 3.017 81.4995 2.16237 80.8527 0.621167C80.7999 0.495241 80.6592 0.430889 80.5319 0.479037L76.305 2.07533C76.1735 2.12533 76.1064 2.27487 76.1592 2.40496C77.4745 5.66422 80.0782 7.74802 83.5175 8.28459C83.8467 8.33552 84.1689 8.37117 84.4805 8.39293Z" fill="#2FA9E0"/>
<path fill-rule="evenodd" clip-rule="evenodd" d="M58.7761 166.274C60.4196 166.158 61.7724 166.406 62.3298 166.532C62.4692 166.563 62.5525 166.704 62.515 166.842L61.9238 169.016L61.3428 171.211C61.309 171.338 61.183 171.418 61.0534 171.394C60.6085 171.31 59.5701 171.165 58.459 171.363C56.8525 171.65 55.7951 172.505 55.1483 174.046C55.0951 174.172 54.9548 174.236 54.827 174.188L50.6006 172.592C50.4692 172.542 50.402 172.392 50.4543 172.262C51.7696 169.003 54.3738 166.919 57.8131 166.382C58.1418 166.332 58.4645 166.296 58.7761 166.274Z" fill="#2FA9E0"/>
<path fill-rule="evenodd" clip-rule="evenodd" d="M19.6289 157.826L21.3465 153.646C21.3979 153.521 21.5386 153.458 21.6655 153.506C23.4923 154.205 28.0007 155.44 30.6757 154.168C30.7979 154.109 30.9437 154.151 31.009 154.27L33.1863 158.231C33.2539 158.355 33.2085 158.512 33.0831 158.576C28.1002 161.131 21.3044 158.753 19.7706 158.156C19.6395 158.105 19.5757 157.956 19.6289 157.826Z" fill="#E94C35"/>
<path fill-rule="evenodd" clip-rule="evenodd" d="M90.684 181.23L87.6747 184.601C87.584 184.702 87.5891 184.856 87.6882 184.949C89.1141 186.287 92.1951 189.803 92.2187 192.765C92.2201 192.9 92.3215 193.014 92.4567 193.02L96.971 193.248C97.1118 193.255 97.2331 193.145 97.2363 193.004C97.3581 187.406 92.2493 182.332 91.0423 181.213C90.9391 181.117 90.778 181.125 90.684 181.23Z" fill="#E94C35"/>
<path fill-rule="evenodd" clip-rule="evenodd" d="M116.598 16.9894L112.788 19.4199C112.673 19.4931 112.637 19.6421 112.707 19.7588C113.718 21.4329 115.732 25.6514 114.953 28.5093C114.918 28.6403 114.985 28.7759 115.113 28.8195L119.397 30.2607C119.53 30.3056 119.678 30.2324 119.718 30.0982C121.351 24.7412 117.806 18.4741 116.947 17.0704C116.874 16.9505 116.716 16.9134 116.598 16.9894Z" fill="#E94C35"/>
<path fill-rule="evenodd" clip-rule="evenodd" d="M47.558 1.77986L50.3811 5.30903C50.4659 5.41505 50.4524 5.56829 50.3483 5.65579C48.852 6.91458 45.5853 10.2586 45.4015 13.2155C45.3932 13.3507 45.2858 13.4576 45.1506 13.4572L40.6302 13.4405C40.4895 13.44 40.3737 13.3238 40.3788 13.1831C40.5598 7.58634 45.9358 2.79607 47.201 1.74421C47.3094 1.6544 47.47 1.67014 47.558 1.77986Z" fill="#E94C35"/>
<path fill-rule="evenodd" clip-rule="evenodd" d="M153.9 156.66L155.851 152.584C155.91 152.462 156.053 152.407 156.177 152.463C157.961 153.263 162.393 154.751 165.136 153.632C165.261 153.58 165.404 153.63 165.463 153.753L167.413 157.83C167.473 157.958 167.419 158.112 167.29 158.169C162.171 160.439 155.52 157.68 154.023 156.997C153.895 156.939 153.839 156.787 153.9 156.66Z" fill="#E94C35"/>
<path fill-rule="evenodd" clip-rule="evenodd" d="M168.35 51.4862L169.701 55.7982C169.742 55.9283 169.674 56.0663 169.545 56.1098C167.694 56.7408 163.437 58.6728 162.194 61.3617C162.137 61.4848 161.999 61.5459 161.872 61.4959L157.666 59.8418C157.535 59.7904 157.469 59.6399 157.525 59.5107C159.723 54.3598 166.469 51.845 168.031 51.3232C168.164 51.2788 168.308 51.352 168.35 51.4862Z" fill="#E94C35"/>
<path fill-rule="evenodd" clip-rule="evenodd" d="M63.1454 82.4772L67.5116 83.6438C67.6426 83.6785 67.7227 83.81 67.6908 83.942C67.2334 85.8434 66.5871 90.473 68.1926 92.9623C68.2662 93.0767 68.2431 93.2262 68.1338 93.3063L64.4852 95.9739C64.3713 96.0573 64.2093 96.0322 64.1297 95.916C60.9556 91.3026 62.4417 84.2572 62.8366 82.66C62.8709 82.5235 63.0098 82.4406 63.1454 82.4772Z" fill="#E94C35"/>
</svg>
