<svg width="194" height="200" viewBox="0 0 194 200" fill="none" xmlns="http://www.w3.org/2000/svg">
<path fill-rule="evenodd" clip-rule="evenodd" d="M170.606 143.057C172.548 186.218 119.474 201.394 75.4607 189.097C20.5554 173.755 9.26899 127.266 13.9583 70.3516C18.6471 13.4361 47.603 -11.1105 76.4986 4.71476C105.394 20.5395 76.5874 73.0759 99.9918 88.9667C123.396 104.858 169.049 108.435 170.606 143.057Z" fill="#97E2FC"/>
<path fill-rule="evenodd" clip-rule="evenodd" d="M170.245 36.9023C180.774 36.6411 179.548 25.7484 176.378 18.7227C172.956 11.1387 166.842 4.26927 158.408 2.49015C150.172 0.753252 140.386 3.05277 138.551 12.3945C136.517 22.7479 152.304 37.3474 170.245 36.9023Z" fill="#97E2FC"/>
<path fill-rule="evenodd" clip-rule="evenodd" d="M68.9884 144.674C68.9884 144.674 73.8428 165.182 74.8136 170.684C75.7845 176.185 79.3549 184.723 84.5277 188.383C89.7005 192.043 95.202 197.544 99.4093 195.926C103.616 194.308 111.133 187.512 112.552 186.541C113.972 185.571 121.137 171.331 121.137 171.331L124.328 159.588C124.328 159.588 131.448 158.062 133.39 154.826C135.332 151.59 136.47 141.234 136.47 141.234L136.95 135.408C136.95 135.408 169.312 122.14 171.254 120.522C173.196 118.904 179.128 115.027 179.992 108.548C180.855 102.068 172.548 61.9458 172.548 58.3861C172.548 54.8259 173.196 39.6808 167.694 37.0594C162.192 34.4376 158.633 32.1725 139.538 29.907C120.445 27.6415 102.322 25.0526 87.435 26.3473C72.5481 27.6415 55.72 31.5905 52.1598 37.0594C48.6001 42.5284 40.5093 53.5317 38.8913 59.6803C37.2734 65.8293 35.0078 71.3308 34.684 80.0686C34.3607 88.8065 29.8428 105.959 32.7491 113.726C35.6549 121.493 35.9787 127.965 41.4801 132.173C46.9821 136.379 47.6292 136.267 54.7491 137.941C61.8685 139.616 68.9884 144.674 68.9884 144.674Z" fill="white"/>
<path fill-rule="evenodd" clip-rule="evenodd" d="M168.006 119.208C169.727 117.957 168.363 115.269 166.341 115.93C156.668 119.091 138.701 123.276 114.171 121.816C86.9707 120.197 68.6314 118.655 60.3789 117.907C57.2464 117.623 54.1717 118.879 52.1372 121.279L46.477 127.954C44.0755 130.786 45.5736 135.156 49.2076 135.92L68.3411 139.94L70.9299 166.485C70.9299 166.485 116.885 183.952 122.386 169.066C127.888 154.179 135.331 144.146 123.357 123.758L127.888 125.7L133.066 132.82L135.978 136.379C135.978 136.379 156.82 127.335 168.006 119.208Z" fill="#D5E4EC"/>
<path fill-rule="evenodd" clip-rule="evenodd" d="M34.6735 105.937L31.2788 104.047L48.0963 73.8207C49.9036 70.5721 53.3274 68.645 57.0482 68.8071L175.765 73.7848L175.603 77.6663L56.8856 72.6886C54.6439 72.5906 52.5808 73.7517 51.4914 75.7095L34.6735 105.937Z" fill="#89A1B1"/>
<path fill-rule="evenodd" clip-rule="evenodd" d="M79.6385 159.404C77.3875 154.418 77.1705 149.995 78.9924 146.261C81.8987 140.303 88.9249 138.531 89.2225 138.458L90.1424 142.233L89.6822 140.345L90.1477 142.231C90.0924 142.245 84.5633 143.671 82.4739 147.986C81.1938 150.629 81.4312 153.933 83.1793 157.806L79.6385 159.404Z" fill="#89A1B1"/>
<path fill-rule="evenodd" clip-rule="evenodd" d="M94.9861 159.248C92.039 150.848 96.756 145.704 96.9584 145.489L99.788 148.152L98.3734 146.82L99.8001 148.138C99.6647 148.288 96.5133 151.866 98.6521 157.962L94.9861 159.248Z" fill="#89A1B1"/>
<path fill-rule="evenodd" clip-rule="evenodd" d="M123.971 144.292C122.149 144.292 120.501 143.971 119.105 143.538C114.839 142.213 112.058 139.585 111.942 139.473L114.627 136.666L113.284 138.07L114.622 136.662C114.984 137.002 123.575 144.916 132.947 136.616L135.523 139.524C131.416 143.162 127.388 144.292 123.971 144.292Z" fill="#89A1B1"/>
<path fill-rule="evenodd" clip-rule="evenodd" d="M77.0885 136.466L71.3545 131.223C78.3021 123.625 89.2263 122.876 95.0953 122.473C101.368 122.042 110.358 122.439 117.564 126.767L113.562 133.427C110.541 131.612 104.977 129.582 95.6268 130.225C89.0035 130.679 81.5627 131.574 77.0885 136.466Z" fill="#28313B"/>
<path fill-rule="evenodd" clip-rule="evenodd" d="M97.6713 199.987C96.2684 199.987 94.8563 199.798 93.4728 199.413C87.516 197.754 80.9136 192.733 75.8107 185.983C71.3859 180.13 65.9014 170.097 64.9014 155.532C64.7849 153.854 64.7403 152.207 64.7684 150.641L72.5374 150.78C72.5131 152.122 72.5519 153.541 72.6529 154.997C73.5223 167.657 78.2204 176.287 82.0082 181.297C86.85 187.701 92.181 190.987 95.5563 191.928C97.734 192.534 100.045 192.18 101.894 190.956C112.983 183.618 119.358 172.707 120.844 158.527L128.571 159.336C127.518 169.385 124.263 178.18 118.894 185.477C115.471 190.128 111.314 194.04 106.181 197.436C103.64 199.117 100.677 199.987 97.6713 199.987Z" fill="#28313B"/>
<path fill-rule="evenodd" clip-rule="evenodd" d="M110.826 150.006C111.473 151.617 111.844 153.492 111.844 155.495C111.844 161.513 108.492 166.393 104.356 166.393C101.31 166.393 98.689 163.746 97.521 159.944" fill="#2FA9E0"/>
<path fill-rule="evenodd" clip-rule="evenodd" d="M104.356 168.335C100.535 168.335 97.1243 165.265 95.6646 160.514L99.3777 159.374C100.325 162.458 102.28 164.45 104.356 164.45C107.362 164.45 109.901 160.349 109.901 155.494C109.901 153.806 109.598 152.159 109.023 150.73L112.628 149.281C113.386 151.166 113.786 153.315 113.786 155.494C113.786 162.695 109.644 168.335 104.356 168.335Z" fill="#28313B"/>
<path fill-rule="evenodd" clip-rule="evenodd" d="M101.002 145.748C102.012 145.01 103.149 144.596 104.356 144.596C105.322 144.596 106.244 144.862 107.094 145.347" fill="#2FA9E0"/>
<path fill-rule="evenodd" clip-rule="evenodd" d="M102.148 147.316L99.8555 144.18C101.222 143.181 102.778 142.653 104.356 142.653C105.639 142.653 106.884 142.992 108.055 143.659L106.132 147.034C104.825 146.29 103.414 146.391 102.148 147.316Z" fill="#28313B"/>
<path fill-rule="evenodd" clip-rule="evenodd" d="M160.272 44.6494C158.558 43.9979 110.942 31.2945 70.8434 36.3489C67.1308 36.8173 64.0313 39.31 62.9051 42.7372C59.559 52.9168 53.4065 73.7241 54.9992 104.473C55.2056 108.467 58.4633 111.697 62.6143 112.057C83.1177 113.834 142.315 117.97 166.89 109.055C168.486 108.476 169.545 107.018 169.551 105.381C169.581 97.396 169.209 74.8479 163.955 49.2304C163.545 47.2333 162.177 45.5426 160.272 44.6494Z" fill="#343A4C"/>
<mask id="mask0" mask-type="alpha" maskUnits="userSpaceOnUse" x="28" y="22" width="154" height="122">
<path fill-rule="evenodd" clip-rule="evenodd" d="M28.0708 22.0676H181.477V143.087H28.0708V22.0676Z" fill="white"/>
</mask>
<g mask="url(#mask0)">
<path fill-rule="evenodd" clip-rule="evenodd" d="M68.2746 143.087C62.112 142.948 55.9028 142.676 49.8198 142.28C40.546 141.678 32.8013 134.883 30.9868 125.758C25.8877 100.138 28.7426 83.147 30.1154 74.982C30.2916 73.931 30.444 73.0242 30.5377 72.333C30.6144 71.7694 30.6688 71.183 30.7164 70.632C31.6882 59.3436 40.3741 43.6344 48.5518 33.0723C50.1775 30.9713 52.163 28.5567 54.5537 26.5849C57.463 24.1864 60.5251 22.8592 63.6547 22.6402C80.5887 21.4553 101.591 22.1228 122.793 24.5189C141.704 26.6563 157.828 29.9203 164.871 33.0383C169.638 35.1475 173.273 39.4922 174.844 44.9577C178.692 58.3398 180.673 76.1844 181.466 104.625C181.705 113.132 178.137 120.356 171.922 123.948C153.896 134.359 140.307 137.648 139.737 137.783L139.617 137.809C138.017 138.135 136.386 138.447 134.77 138.736L133.402 131.087C134.933 130.814 136.477 130.518 137.993 130.211C138.867 129.992 151.59 126.718 168.035 117.22C169.813 116.193 173.927 112.928 173.699 104.842C172.925 77.0907 171.034 59.8237 167.376 47.1043C166.428 43.8082 164.422 41.3364 161.727 40.1436C148.956 34.4917 100.182 27.8733 64.1974 30.3912C60.7164 30.6349 57.5736 34.1097 54.696 37.8281C44.3707 51.1645 39.0402 64.5262 38.4571 71.298C38.4013 71.949 38.3358 72.6514 38.2368 73.3781C38.127 74.1883 37.9649 75.1529 37.778 76.2694C36.4824 83.9786 33.7863 100.02 38.6071 124.242C39.7368 129.923 44.5552 134.152 50.3236 134.526C56.2984 134.915 62.3974 135.182 68.4508 135.319L68.2746 143.087Z" fill="#28313B"/>
</g>
<path fill-rule="evenodd" clip-rule="evenodd" d="M47.2112 88.3833C46.8403 96.4206 44.6127 102.847 42.235 102.737C39.8573 102.628 38.2301 96.0231 38.601 87.9867C38.9714 79.9493 41.1991 73.5231 43.5772 73.6323C45.9549 73.742 47.5821 80.3459 47.2112 88.3833Z" fill="#28313B"/>
<path fill-rule="evenodd" clip-rule="evenodd" d="M123.043 123.325C120.89 126.362 116.054 137.287 116.054 147.98C116.054 150.312 116.772 152.117 118.188 153.342C119.497 154.475 121.375 155.099 123.476 155.099C127.284 155.099 132.948 152.735 132.948 146.222C132.948 140.489 127.315 127.57 123.043 123.325ZM123.476 162.869C119.508 162.869 115.823 161.572 113.102 159.217C110.904 157.314 108.284 153.819 108.284 147.98C108.284 135.169 114.122 122.125 117.1 118.298C118.48 116.524 120.352 115.449 122.37 115.27C124.343 115.096 126.31 115.795 127.911 117.237L127.911 117.237C133.895 122.629 140.718 138.07 140.718 146.222C140.718 151.185 138.724 155.613 135.103 158.69C131.977 161.346 127.74 162.869 123.476 162.869Z" fill="#28313B"/>
<path fill-rule="evenodd" clip-rule="evenodd" d="M129.046 115.132C128.462 111.604 125.129 109.217 121.601 109.802C118.074 110.386 115.688 113.719 116.272 117.246C116.856 120.774 120.189 123.16 123.716 122.576C127.244 121.992 129.63 118.659 129.046 115.132Z" fill="#28313B"/>
<path fill-rule="evenodd" clip-rule="evenodd" d="M121.471 118.806C118.392 118.806 115.396 117.85 112.842 116.022C109.611 113.708 107.474 110.276 106.825 106.355C106.434 103.998 106.604 101.656 107.329 99.3919L112.262 100.973C111.791 102.445 111.681 103.971 111.935 105.508C112.359 108.064 113.751 110.302 115.858 111.809C117.963 113.317 120.531 113.915 123.088 113.491C125.644 113.069 127.881 111.675 129.389 109.57C130.897 107.464 131.494 104.897 131.071 102.341C130.817 100.804 130.22 99.3944 129.3 98.1516L133.46 95.0667C134.876 96.9759 135.792 99.1385 136.182 101.495C136.831 105.416 135.914 109.354 133.6 112.585C131.288 115.816 127.854 117.953 123.934 118.602C123.112 118.738 122.289 118.806 121.471 118.806Z" fill="#28313B"/>
<path fill-rule="evenodd" clip-rule="evenodd" d="M78.7721 136.82C76.9104 136.82 75.0405 137.473 73.5424 138.8C71.8323 140.316 70.8905 142.411 70.8905 144.697C70.8905 147.107 71.9682 149.347 73.8478 150.844C79.2512 155.143 84.5672 157.361 89.6497 157.438C89.7361 157.439 89.824 157.44 89.9099 157.44C96.2997 157.44 102.477 153.926 108.293 146.986C101.83 149.115 96.0289 150.134 92.3818 147.08C89.9837 145.068 87.3672 142.488 84.6036 139.407C83.0648 137.693 80.9245 136.82 78.7721 136.82ZM89.924 165.209C89.7939 165.209 89.6638 165.208 89.5337 165.207C82.6934 165.104 75.7886 162.317 69.0099 156.923C65.2672 153.945 63.1206 149.488 63.1206 144.697C63.1206 140.223 65.0405 135.954 68.3881 132.986C74.8046 127.299 84.6725 127.852 90.3861 134.218C92.8827 137 95.2138 139.308 97.3153 141.076C97.4992 141.146 98.7085 141.51 102.259 140.655C105.051 139.984 108.068 138.862 110.271 138.043L112.979 145.325C111.907 145.724 110.841 146.113 109.791 146.478L115.216 150.792C107.607 160.361 99.1002 165.209 89.924 165.209Z" fill="#28313B"/>
<path fill-rule="evenodd" clip-rule="evenodd" d="M90.8253 12.7262C90.734 8.81743 87.4913 5.72277 83.5821 5.81451C79.6734 5.90578 76.5792 9.14898 76.6709 13.0577C76.7622 16.966 80.0049 20.0606 83.9141 19.9694C87.8224 19.8776 90.9166 16.6349 90.8253 12.7262Z" fill="#28313B"/>
<path fill-rule="evenodd" clip-rule="evenodd" d="M88.6095 28.7328L79.6333 28.943L81.992 19.0493L85.7896 18.9605L88.6095 28.7328Z" fill="#28313B"/>
<path fill-rule="evenodd" clip-rule="evenodd" d="M145.024 72.7888C144.787 83.3709 146.341 92.0738 149.434 92.266C152.527 92.4587 154.865 83.983 156.226 73.4859C157.598 62.8878 156.726 54.3136 151.815 54.0082C146.903 53.7029 145.267 61.9262 145.024 72.7888Z" fill="#2FA9E0"/>
<path fill-rule="evenodd" clip-rule="evenodd" d="M115.863 79.7862C117.427 86.726 120.373 92.0837 123.341 91.5915C126.31 91.1002 127.096 85.1133 126.613 78.0051C126.125 70.8289 123.847 65.4182 119.134 66.1993C114.42 66.9803 114.258 72.6629 115.863 79.7862Z" fill="#2FA9E0"/>
</svg>
