<svg width="179" height="202" viewBox="0 0 179 202" fill="none" xmlns="http://www.w3.org/2000/svg">
<mask id="mask0" mask-type="alpha" maskUnits="userSpaceOnUse" x="33" y="0" width="146" height="189">
<path fill-rule="evenodd" clip-rule="evenodd" d="M179 0.480896L33.5567 0.480883L33.5567 188.094L179 188.094L179 0.480896Z" fill="white"/>
</mask>
<g mask="url(#mask0)">
<path fill-rule="evenodd" clip-rule="evenodd" d="M50.1034 54.4367C46.6944 46.5365 44.6073 38.8056 46.4587 29.6763C48.5774 19.2283 54.987 9.66225 64.6078 4.80133C82.4286 -4.20204 105.257 2.50745 122.356 10.0109C142.758 18.9643 161.771 31.6436 171.706 52.3049C189.15 88.5795 173.387 129.221 144.728 154.275C95.1507 197.617 46.0098 193.41 36.9919 174.312C27.9735 155.215 38.6892 142.418 46.4731 128.704C51.8309 119.263 53.8594 107.317 55.2471 96.7033C56.7995 84.8338 58.2088 71.4798 52.8236 60.3282C51.8626 58.3383 50.9429 56.3824 50.1034 54.4367" fill="#FFE9C2"/>
</g>
<path fill-rule="evenodd" clip-rule="evenodd" d="M21.0945 54.4048C8.0795 62.0521 5.31753 34.915 11.896 27.3418C18.4751 19.7682 26.8013 16.5053 32.8076 22.9753C38.814 29.4448 34.0331 46.8018 21.0945 54.4048" fill="#FFE9C2"/>
<path fill-rule="evenodd" clip-rule="evenodd" d="M112.362 125.431C112.362 125.431 123.395 135.526 123.96 143.77C124.524 152.015 121.681 164.99 121.681 164.99L118.198 178.44L112.047 163.25L103.36 148.392C103.36 148.392 96.322 158.958 91.3117 161.341C86.3018 163.725 77.2988 166.257 77.2988 166.257C77.2988 166.257 64.9789 157.237 63.2417 154.389C61.5041 151.54 57.0813 137.141 57.0813 137.141L50.7634 132.235C50.7634 132.235 31.9682 124.165 27.8613 117.203C23.7548 110.24 15.226 95.365 15.226 95.365C15.226 95.365 14.7518 83.8138 18.3849 87.9284C22.0176 92.042 33.2316 99.796 33.2316 99.796C33.2316 99.796 33.8633 78.5922 36.7064 70.5218C39.5495 62.4519 46.657 38.558 47.2891 36.5007C47.9208 34.4439 53.6065 28.7467 59.7665 28.7467C65.9264 28.7467 89.3024 31.9673 89.3024 31.9673C89.3024 31.9673 127.999 40.9312 132.106 43.4631C136.213 45.9946 145.215 49.3181 147.269 52.4829C149.322 55.6476 150.27 62.2937 148.69 71.3134C147.111 80.3331 148.216 91.7184 145.689 98.9222C143.162 106.126 140.951 113.721 137.318 116.886C133.685 120.05 125.314 127.329 112.362 125.431" fill="white"/>
<path fill-rule="evenodd" clip-rule="evenodd" d="M57.2395 115.699C61.2672 112.613 67.6638 112.613 67.6638 112.613L97.4215 122.82C97.4215 122.82 110.086 123.057 109.131 130.653C109.131 130.653 124.761 142.046 117.654 174.089L103.439 147.268L105.575 131.127C105.575 131.127 92.5403 138.011 80.4575 136.824C69.5805 135.755 58.4654 125.647 56.3548 123.64C56.1206 123.418 55.9972 123.294 55.9972 123.294" fill="#D5E4EC"/>
<path fill-rule="evenodd" clip-rule="evenodd" d="M53.9226 126.222C53.9226 126.222 27.8615 121.949 20.4382 92.8333L24.0709 92.9915L33.5823 100.745L47.131 109.528L55.5023 113.088L53.9226 126.222Z" fill="#D5E4EC"/>
<path fill-rule="evenodd" clip-rule="evenodd" d="M108.795 150.172C109.621 150.172 110.522 150.125 111.475 150.007C115.364 149.522 120.89 147.702 125.127 141.778L122.238 139.703C115.603 148.98 105.345 146.3 104.911 146.183L103.959 149.613C104.063 149.642 105.994 150.172 108.795 150.172" fill="#89A1B1"/>
<path fill-rule="evenodd" clip-rule="evenodd" d="M117.607 163.884C120.059 163.884 122.653 163.216 125.085 161.396L122.959 158.544C117.076 162.945 110.277 157.856 110.209 157.803L108.054 160.635C109.971 162.098 113.599 163.884 117.607 163.884" fill="#89A1B1"/>
<path fill-rule="evenodd" clip-rule="evenodd" d="M34.4848 126.813L38.0292 126.557C37.205 115.103 47.1115 110.523 47.2118 110.478L45.7593 107.229C45.6321 107.286 42.6128 108.661 39.7294 111.74C37.0476 114.604 33.9616 119.544 34.4848 126.813" fill="#89A1B1"/>
<path fill-rule="evenodd" clip-rule="evenodd" d="M25.4514 112.533C27.165 105.381 35.6415 104.939 35.7269 104.935L35.5762 101.378C31.6953 101.542 23.8621 103.912 21.9958 111.701L25.4514 112.533Z" fill="#89A1B1"/>
<path fill-rule="evenodd" clip-rule="evenodd" d="M81.8151 143.483C84.1801 143.483 86.606 143.361 89.0853 143.113C98.8261 142.144 105.878 139.647 106.174 139.542L104.978 136.189C104.909 136.214 97.9722 138.663 88.6451 139.579C80.1451 140.415 67.8454 140.115 57.518 133.937L55.6964 136.994C62.86 141.279 71.7872 143.483 81.8151 143.483" fill="#89A1B1"/>
<path fill-rule="evenodd" clip-rule="evenodd" d="M147.951 91.024L148.659 87.5351L35.635 64.5179L34.927 68.0068L147.951 91.024Z" fill="#89A1B1"/>
<path fill-rule="evenodd" clip-rule="evenodd" d="M41.6722 95.2953C41.7817 97.4612 43.1722 99.3714 45.2204 100.205C50.046 102.169 59.2559 105.542 84.6954 110.723C110.34 115.946 120.487 116.489 125.859 116.603C128.099 116.65 130.14 115.397 131.083 113.413C132.947 109.488 135.616 103.56 138.748 88.1212C141.921 72.4848 141.742 65.9586 141.54 61.6747C141.438 59.5145 140.067 57.5962 138.027 56.758C133.3 54.8147 124.224 51.5542 97.7929 46.1715C71.644 40.8461 62.3227 40.3301 57.3555 40.2979C55.1643 40.2829 53.1723 41.4982 52.2291 43.429C50.4045 47.1632 47.7794 52.921 44.5302 68.9344C41.3151 84.7809 41.4605 91.0956 41.6722 95.2953" fill="#343A4C"/>
<path fill-rule="evenodd" clip-rule="evenodd" d="M57.9453 32.307C58.0303 32.307 58.1152 32.3085 58.2002 32.3104C64.9894 32.4744 75.8055 33.2784 99.3777 38.0788C123.292 42.9488 133.834 46.5301 140.347 49.1062C144.268 50.6562 146.812 54.3846 146.828 58.6035C146.848 63.9568 146.242 73.4464 143.239 88.2475C140.351 102.479 137.751 109.228 135.54 114.436C133.901 118.296 130.131 120.725 125.931 120.639C118.507 120.477 107.006 119.684 83.7803 114.954C60.8258 110.279 50.2287 106.603 43.5614 103.923C39.655 102.352 37.1331 98.6291 37.136 94.4366C37.1398 88.9419 37.3918 81.8592 40.3472 67.2943C43.413 52.1845 46.4832 43.3167 48.5189 38.538C50.1408 34.7312 53.822 32.307 57.9453 32.307M126.165 127.762C133.13 127.762 139.348 123.659 142.08 117.223C144.427 111.694 147.185 104.548 150.204 89.6661C153.327 74.2736 153.957 64.2632 153.935 58.5761C153.908 51.4266 149.599 45.1095 142.957 42.4828C136.173 39.7999 125.25 36.0816 100.794 31.1009C76.6752 26.1886 65.4531 25.3628 58.3715 25.1916C51.2252 25.0233 44.7858 29.1605 41.9816 35.743C38.8765 43.0315 35.9028 53.4516 33.3823 65.8756C30.2958 81.0864 30.0328 88.5908 30.0285 94.4318C30.0232 101.551 34.2962 107.871 40.9146 110.531C47.8608 113.324 58.8496 117.143 82.3643 121.931C106.143 126.774 118.055 127.589 125.776 127.758C125.906 127.76 126.036 127.762 126.165 127.762" fill="#28313B"/>
<path fill-rule="evenodd" clip-rule="evenodd" d="M95.1113 14.2846C95.8236 10.7731 99.2422 8.50517 102.747 9.21931C106.252 9.93296 108.516 13.3579 107.803 16.8694C107.091 20.381 103.672 22.6489 100.167 21.9347C96.6622 21.2211 94.3989 17.7961 95.1113 14.2846" fill="#28313B"/>
<path fill-rule="evenodd" clip-rule="evenodd" d="M94.2738 30.3285L102.323 31.9674L102.046 21.4155L98.6405 20.7216L94.2738 30.3285Z" fill="#28313B"/>
<path fill-rule="evenodd" clip-rule="evenodd" d="M110.108 64.2008C118.661 65.9426 110.098 99.0938 109.251 98.9212C108.405 98.749 112.397 75.7515 107.948 74.8455C103.5 73.9395 98.213 96.6734 97.3668 96.5013C96.5205 96.3291 101.555 62.459 110.108 64.2008" fill="#2FA9E0"/>
<path fill-rule="evenodd" clip-rule="evenodd" d="M74.5444 56.9582C83.0977 58.7 74.5339 91.8512 73.6876 91.6785C72.8414 91.5064 76.8336 68.5089 72.3849 67.6029C67.9362 66.6968 62.6493 89.4308 61.8031 89.2586C60.9568 89.0865 65.9912 55.2164 74.5444 56.9582" fill="#2FA9E0"/>
<path fill-rule="evenodd" clip-rule="evenodd" d="M110.231 123.876C109.935 125.014 108.686 123.349 106.776 123.388C104.672 123.423 103.54 124.832 103.361 123.666L110.231 123.876ZM80.6508 169.562C82.2554 169.562 83.8687 169.29 85.422 168.74C90.9834 166.769 97.0099 161.99 101.543 155.956C105.722 150.393 110.704 140.965 110.704 127.646L110.701 127.495C110.624 125.697 110.556 124.416 110.49 123.579C110.457 123.152 110.424 122.839 110.388 122.594C110.153 121.026 108.92 119.339 106.794 119.357C106.658 119.358 103.451 119.419 103.201 123.103C103.182 123.381 103.174 123.66 103.174 123.66L103.36 123.666C103.381 123.821 103.463 124.592 103.597 127.721C103.578 139.033 99.3836 146.989 95.8637 151.674C93.119 155.328 88.1163 160.232 83.0518 162.026C81.102 162.717 78.9722 162.539 77.2086 161.536C72.6615 158.953 68.8545 155.268 65.8929 150.586C61.2512 143.247 58.8977 133.719 58.8977 122.266C58.8977 118.604 61.3779 117.698 62.1378 117.508L62.0787 117.521L60.6138 110.553C57.5623 111.197 51.7902 114.474 51.7902 122.266C51.7902 135.09 54.5152 145.901 59.8894 154.397C63.4818 160.078 68.1293 164.564 73.7022 167.73C75.8391 168.945 78.2349 169.562 80.6508 169.562V169.562Z" fill="#28313B"/>
<path fill-rule="evenodd" clip-rule="evenodd" d="M22.6208 83.261C21.5225 80.1746 18.1346 78.5641 15.0539 79.6644C11.9732 80.7652 10.3661 84.1594 11.4644 87.2458C12.5626 90.3322 15.9506 91.9422 19.0313 90.8419C22.112 89.7416 23.7195 86.3474 22.6208 83.261" fill="#28313B"/>
<path fill-rule="evenodd" clip-rule="evenodd" d="M14.0242 88.0151C15.5382 88.0151 17.0766 87.7602 18.5829 87.2226C22.0063 85.9997 24.7505 83.5144 26.3082 80.2236C27.8663 76.9333 28.052 73.2323 26.8309 69.8016C26.0974 67.74 24.9219 65.938 23.3374 64.4463L20.093 67.9059C21.1236 68.8763 21.8892 70.0507 22.3678 71.3957C23.1636 73.6319 23.0427 76.0441 22.027 78.1889C21.0117 80.3337 19.2232 81.9539 16.9917 82.7512C12.3836 84.3973 7.29789 81.9808 5.6553 77.3651C5.17673 76.0201 5.02793 74.625 5.21321 73.2203L0.515844 72.5975C0.230718 74.7572 0.458243 76.8972 1.19218 78.9598C3.17509 84.5324 8.43023 88.0151 14.0242 88.0151" fill="#28313B"/>
<path fill-rule="evenodd" clip-rule="evenodd" d="M121.947 182.657C120.928 185.771 117.583 187.468 114.475 186.447C111.367 185.426 109.673 182.074 110.692 178.96C111.711 175.847 115.056 174.151 118.164 175.171C121.272 176.192 122.966 179.543 121.947 182.657" fill="#28313B"/>
<mask id="mask1" mask-type="alpha" maskUnits="userSpaceOnUse" x="99" y="178" width="29" height="24">
<path fill-rule="evenodd" clip-rule="evenodd" d="M127.185 178.115L99.9531 178.115L99.9531 201.447L127.185 201.447L127.185 178.115Z" fill="white"/>
</mask>
<g mask="url(#mask1)">
<path fill-rule="evenodd" clip-rule="evenodd" d="M123.146 201.447C124.691 199.915 125.82 198.084 126.501 196.004C127.633 192.543 127.352 188.848 125.711 185.599C124.069 182.35 121.262 179.935 117.808 178.801C114.354 177.666 110.665 177.947 107.421 179.592C104.178 181.237 101.768 184.048 100.636 187.509C99.9549 189.589 99.7821 191.735 100.123 193.886L104.802 193.142C104.581 191.742 104.694 190.345 105.138 188.987C105.876 186.731 107.447 184.899 109.561 183.827C111.675 182.755 114.08 182.572 116.332 183.312C118.584 184.051 120.413 185.625 121.483 187.743C122.553 189.86 122.736 192.269 121.998 194.524C121.554 195.882 120.819 197.076 119.813 198.072L123.146 201.447Z" fill="#28313B"/>
</g>
<path fill-rule="evenodd" clip-rule="evenodd" d="M117.742 181.321C120.164 181.321 122.415 179.992 123.575 177.785C127.882 169.591 131.821 156.098 126.131 138.347C121.42 123.646 108.487 120.541 107.939 120.416L106.362 127.359C106.729 127.449 115.924 129.789 119.364 140.523C123.98 154.925 121.356 165.969 117.993 173.054C115.289 155.263 107.069 144.581 106.71 144.122L101.115 148.514L103.912 146.318L101.11 148.507C101.188 148.608 108.994 158.857 111.168 175.553C111.542 178.427 113.709 180.703 116.56 181.215C116.955 181.287 117.351 181.321 117.742 181.321" fill="#28313B"/>
<path fill-rule="evenodd" clip-rule="evenodd" d="M55.9295 136.625C55.9871 136.625 56.0275 136.624 56.0491 136.624L55.9459 129.504L55.9391 129.504C55.6075 129.504 44.298 129.425 35.4778 121.553C24.2048 111.493 20.8697 100.643 20.178 92.8284C31.5211 106.781 44.0157 111.805 44.5572 112.018L47.1536 105.389L45.8551 108.703L47.1617 105.393C47.0422 105.345 35.1241 100.484 24.7924 87.2038C23.013 84.9176 19.9927 84.0588 17.2783 85.0672C14.5639 86.0752 12.8329 88.6965 12.9712 91.5906C13.4118 100.84 16.854 114.468 30.7497 126.871C41.3685 136.348 54.4497 136.625 55.9295 136.625" fill="#28313B"/>
<path fill-rule="evenodd" clip-rule="evenodd" d="M73.6076 141.986C73.6076 136.47 76.6743 131.998 80.4578 131.998C84.2407 131.998 87.3075 136.47 87.3075 141.986C87.3075 147.503 84.2407 151.975 80.4578 151.975C76.6743 151.975 73.6076 147.503 73.6076 141.986" fill="#2FA9E0"/>
<path fill-rule="evenodd" clip-rule="evenodd" d="M80.4577 133.778C83.2076 133.778 85.5304 137.537 85.5304 141.986C85.5304 146.436 83.2076 150.195 80.4577 150.195C77.7077 150.195 75.3845 146.436 75.3845 141.986C75.3845 137.537 77.7077 133.778 80.4577 133.778M80.4576 153.755C85.2952 153.755 89.0843 148.586 89.0843 141.986C89.0844 135.387 85.2952 130.218 80.4576 130.218C75.6201 130.218 71.8309 135.387 71.8309 141.986C71.8309 148.586 75.6201 153.755 80.4576 153.755" fill="#28313B"/>
</svg>
