<svg width="356" height="401" viewBox="0 0 356 401" fill="none" xmlns="http://www.w3.org/2000/svg">
<mask id="mask0" mask-type="alpha" maskUnits="userSpaceOnUse" x="0" y="0" width="290" height="374">
<path fill-rule="evenodd" clip-rule="evenodd" d="M0.000244141 0.954651H289.261V373.394H0.000244141V0.954651Z" fill="white"/>
</mask>
<g mask="url(#mask0)">
<path fill-rule="evenodd" clip-rule="evenodd" d="M256.353 108.065C263.133 92.3821 267.284 77.0351 263.602 58.9119C259.388 38.1711 246.64 19.1811 227.506 9.5315C192.064 -8.34153 146.661 4.9778 112.656 19.8733C72.0781 37.647 34.2652 62.8174 14.5058 103.833C-20.1863 175.844 11.1636 256.523 68.1612 306.26C166.762 392.3 264.494 383.948 282.429 346.036C300.365 308.124 279.054 282.722 263.573 255.496C252.917 236.755 248.883 213.04 246.123 191.971C243.036 168.408 240.233 141.898 250.943 119.761C252.854 115.81 254.683 111.928 256.353 108.065Z" fill="#FFE9C2"/>
</g>
<path fill-rule="evenodd" clip-rule="evenodd" d="M314.047 108.002C339.931 123.183 345.424 69.3115 332.341 54.2776C319.256 39.2428 302.697 32.7654 290.751 45.6094C278.805 58.4523 288.314 92.9086 314.047 108.002Z" fill="#FFE9C2"/>
<path fill-rule="evenodd" clip-rule="evenodd" d="M132.53 248.999C132.53 248.999 110.589 269.039 109.465 285.405C108.342 301.772 113.997 327.53 113.997 327.53L120.924 354.23L133.159 324.076L150.435 294.58C150.435 294.58 164.432 315.554 174.397 320.286C184.361 325.018 202.266 330.044 202.266 330.044C202.266 330.044 226.768 312.139 230.223 306.484C233.679 300.83 242.475 272.245 242.475 272.245L255.04 262.506C255.04 262.506 292.421 246.485 300.589 232.665C308.756 218.842 325.718 189.314 325.718 189.314C325.718 189.314 326.661 166.383 319.436 174.551C312.211 182.717 289.908 198.11 289.908 198.11C289.908 198.11 288.652 156.017 282.997 139.996C277.343 123.976 263.207 76.5433 261.95 72.4593C260.694 68.3763 249.386 57.0665 237.135 57.0665C224.884 57.0665 178.393 63.4598 178.393 63.4598C178.393 63.4598 101.432 81.2545 93.2646 86.2808C85.0966 91.3061 67.1921 97.9037 63.1081 104.186C59.024 110.469 57.1396 123.662 60.2813 141.568C63.4221 159.473 61.2236 182.075 66.2498 196.375C71.2751 210.675 75.6732 225.753 82.898 232.035C90.1229 238.318 106.772 252.768 132.53 248.999Z" fill="white"/>
<path fill-rule="evenodd" clip-rule="evenodd" d="M242.161 229.68C234.15 223.554 221.428 223.554 221.428 223.554L162.246 243.816C162.246 243.816 137.058 244.287 138.957 259.365C138.957 259.365 107.871 281.982 122.007 345.592L150.278 292.348L146.029 260.307C146.029 260.307 171.953 273.972 195.984 271.616C217.616 269.495 239.722 249.429 243.92 245.444C244.386 245.002 244.631 244.758 244.631 244.758" fill="#D5E4EC"/>
<path fill-rule="evenodd" clip-rule="evenodd" d="M248.757 250.57C248.757 250.57 300.589 242.087 315.352 184.288L308.127 184.602L289.211 199.994L262.265 217.429L245.616 224.496L248.757 250.57Z" fill="#D5E4EC"/>
<path fill-rule="evenodd" clip-rule="evenodd" d="M139.626 298.113C137.983 298.113 136.19 298.02 134.295 297.786C126.561 296.824 115.572 293.21 107.145 281.45L112.889 277.332C126.085 295.747 146.487 290.428 147.35 290.194L149.243 297.004C149.037 297.061 145.196 298.113 139.626 298.113Z" fill="#89A1B1"/>
<path fill-rule="evenodd" clip-rule="evenodd" d="M122.1 325.335C117.223 325.335 112.064 324.008 107.228 320.395L111.457 314.733C123.156 323.469 136.679 313.367 136.813 313.262L141.099 318.884C137.287 321.789 130.071 325.335 122.1 325.335Z" fill="#89A1B1"/>
<path fill-rule="evenodd" clip-rule="evenodd" d="M287.416 251.742L280.367 251.234C282.006 228.497 262.304 219.404 262.104 219.315L264.993 212.865C265.246 212.979 271.251 215.708 276.985 221.821C282.319 227.506 288.456 237.312 287.416 251.742Z" fill="#89A1B1"/>
<path fill-rule="evenodd" clip-rule="evenodd" d="M305.382 223.395C301.973 209.196 285.115 208.319 284.945 208.311L285.245 201.25C292.963 201.577 308.542 206.282 312.254 221.744L305.382 223.395Z" fill="#89A1B1"/>
<path fill-rule="evenodd" clip-rule="evenodd" d="M193.284 284.835C188.58 284.835 183.756 284.592 178.825 284.101C159.452 282.178 145.427 277.22 144.839 277.011L147.217 270.354C147.354 270.404 161.15 275.266 179.7 277.086C196.605 278.744 221.067 278.149 241.607 265.885L245.23 271.954C230.982 280.46 213.228 284.835 193.284 284.835Z" fill="#89A1B1"/>
<path fill-rule="evenodd" clip-rule="evenodd" d="M61.7514 180.696L60.3433 173.77L285.128 128.078L286.536 135.004L61.7514 180.696Z" fill="#89A1B1"/>
<path fill-rule="evenodd" clip-rule="evenodd" d="M273.121 189.175C272.903 193.475 270.138 197.267 266.064 198.921C256.467 202.82 238.15 209.517 187.555 219.802C136.552 230.169 116.373 231.249 105.688 231.474C101.233 231.568 97.1736 229.081 95.2977 225.141C91.5908 217.349 86.2839 205.583 80.0538 174.934C73.7436 143.893 74.1006 130.938 74.5016 122.434C74.7039 118.145 77.4314 114.337 81.4877 112.673C90.8901 108.815 108.94 102.343 161.507 91.6574C213.513 81.0856 232.051 80.0612 241.93 79.9973C246.288 79.9677 250.25 82.3801 252.125 86.213C255.754 93.6259 260.975 105.056 267.437 136.845C273.831 168.303 273.542 180.838 273.121 189.175Z" fill="#343A4C"/>
<path fill-rule="evenodd" clip-rule="evenodd" d="M240.757 64.1343C240.588 64.1343 240.419 64.1371 240.25 64.141C226.748 64.4665 205.236 66.0627 158.355 75.592C110.794 85.2598 89.8273 92.3691 76.8746 97.4832C69.077 100.56 64.0173 107.961 63.9858 116.337C63.9447 126.964 65.1505 145.802 71.1228 175.184C76.866 203.435 82.0383 216.833 86.4354 227.173C89.6937 234.836 97.1915 239.657 105.545 239.486C120.311 239.164 143.185 237.59 189.376 228.2C235.028 218.921 256.104 211.623 269.364 206.302C277.133 203.184 282.149 195.793 282.143 187.471C282.136 176.563 281.634 162.503 275.757 133.589C269.659 103.594 263.553 85.9901 259.505 76.5037C256.279 68.9467 248.958 64.1343 240.757 64.1343ZM105.08 253.626C91.2268 253.627 78.8602 245.481 73.4273 232.705C68.759 221.729 63.2755 207.544 57.2707 178.001C51.0598 147.444 49.8063 127.572 49.8502 116.282C49.9046 102.089 58.4746 89.5491 71.6841 84.3348C85.1753 79.0087 106.899 71.6274 155.539 61.74C203.507 51.9882 225.825 50.3491 239.909 50.0092C254.122 49.6751 266.929 57.888 272.506 70.9553C278.682 85.424 284.596 106.109 289.609 130.773C295.747 160.969 296.27 175.866 296.279 187.461C296.289 201.594 287.791 214.14 274.628 219.421C260.813 224.965 238.959 232.547 192.192 242.052C144.9 251.666 121.209 253.284 105.853 253.618C105.595 253.624 105.337 253.626 105.08 253.626Z" fill="#28313B"/>
<path fill-rule="evenodd" clip-rule="evenodd" d="M166.84 28.3571C165.424 21.3862 158.625 16.8841 151.654 18.3017C144.684 19.7184 140.182 26.5175 141.598 33.4883C143.015 40.4592 149.814 44.9614 156.785 43.5437C163.756 42.127 168.257 35.328 166.84 28.3571Z" fill="#28313B"/>
<path fill-rule="evenodd" clip-rule="evenodd" d="M168.506 60.2065L152.498 63.46L153.049 42.5129L159.821 41.1354L168.506 60.2065Z" fill="#28313B"/>
<path fill-rule="evenodd" clip-rule="evenodd" d="M137.014 127.448C120.003 130.906 137.035 196.716 138.718 196.373C140.401 196.031 132.461 150.378 141.31 148.579C150.157 146.781 160.671 191.911 162.354 191.569C164.037 191.228 154.025 123.99 137.014 127.448Z" fill="#2FA9E0"/>
<path fill-rule="evenodd" clip-rule="evenodd" d="M207.744 113.07C190.733 116.528 207.765 182.338 209.448 181.996C211.131 181.654 203.191 136 212.039 134.202C220.887 132.403 231.401 177.533 233.084 177.192C234.767 176.85 224.755 109.613 207.744 113.07Z" fill="#2FA9E0"/>
<path fill-rule="evenodd" clip-rule="evenodd" d="M136.77 245.913C137.359 248.172 139.842 244.866 143.642 244.943C147.825 245.014 150.078 247.81 150.433 245.496L136.77 245.913ZM195.6 336.606C192.408 336.606 189.2 336.066 186.11 334.973C175.05 331.06 163.064 321.574 154.049 309.596C145.737 298.552 135.829 279.836 135.829 253.396L135.836 253.096C135.987 249.528 136.124 246.985 136.255 245.322C136.321 244.474 136.385 243.854 136.458 243.367C136.926 240.254 139.377 236.905 143.605 236.942C143.877 236.943 150.255 237.065 150.751 244.377C150.788 244.93 150.805 245.484 150.805 245.484L150.434 245.496C150.393 245.803 150.231 247.333 149.964 253.544C150.001 276.001 158.343 291.794 165.344 301.096C170.803 308.349 180.752 318.085 190.825 321.646C194.702 323.018 198.938 322.664 202.446 320.674C211.489 315.545 219.06 308.231 224.951 298.936C234.182 284.367 238.863 265.452 238.863 242.716C238.863 235.446 233.93 233.648 232.419 233.271L232.536 233.297L235.45 219.465C241.519 220.743 252.998 227.247 252.998 242.716C252.998 268.173 247.579 289.635 236.89 306.502C229.746 317.778 220.503 326.683 209.419 332.97C205.169 335.381 200.405 336.606 195.6 336.606Z" fill="#28313B"/>
<path fill-rule="evenodd" clip-rule="evenodd" d="M311.011 165.286C313.195 159.159 319.933 155.961 326.06 158.146C332.187 160.331 335.384 167.069 333.199 173.196C331.015 179.323 324.277 182.519 318.15 180.335C312.023 178.15 308.826 171.413 311.011 165.286Z" fill="#28313B"/>
<path fill-rule="evenodd" clip-rule="evenodd" d="M328.109 174.723C325.098 174.723 322.038 174.217 319.042 173.15C312.234 170.722 306.776 165.789 303.678 159.256C300.579 152.724 300.21 145.377 302.638 138.567C304.097 134.474 306.435 130.897 309.586 127.936L316.039 134.803C313.989 136.73 312.467 139.061 311.515 141.731C309.932 146.17 310.173 150.959 312.193 155.217C314.212 159.474 317.769 162.691 322.207 164.273C331.372 167.541 341.486 162.744 344.753 153.581C345.705 150.911 346.001 148.142 345.632 145.353L354.974 144.117C355.542 148.404 355.089 152.652 353.629 156.747C349.686 167.81 339.234 174.723 328.109 174.723Z" fill="#28313B"/>
<path fill-rule="evenodd" clip-rule="evenodd" d="M113.469 362.602C115.495 368.783 122.148 372.151 128.33 370.124C134.511 368.098 137.879 361.445 135.853 355.263C133.827 349.083 127.173 345.715 120.991 347.741C114.811 349.767 111.442 356.42 113.469 362.602Z" fill="#28313B"/>
<mask id="mask1" mask-type="alpha" maskUnits="userSpaceOnUse" x="103" y="353" width="55" height="47">
<path fill-rule="evenodd" clip-rule="evenodd" d="M103.052 353.585H157.211V399.903H103.052V353.585Z" fill="white"/>
</mask>
<g mask="url(#mask1)">
<path fill-rule="evenodd" clip-rule="evenodd" d="M111.085 399.903C108.011 396.861 105.766 393.226 104.412 389.096C102.16 382.227 102.718 374.891 105.983 368.441C109.249 361.991 114.83 357.198 121.7 354.946C128.57 352.693 135.907 353.251 142.358 356.516C148.809 359.782 153.601 365.362 155.853 372.232C157.207 376.362 157.551 380.622 156.873 384.892L147.566 383.415C148.006 380.637 147.782 377.863 146.899 375.168C145.431 370.69 142.307 367.052 138.103 364.924C133.897 362.797 129.115 362.433 124.635 363.901C120.157 365.369 116.519 368.493 114.391 372.697C112.263 376.901 111.899 381.683 113.368 386.16C114.251 388.855 115.712 391.224 117.712 393.202L111.085 399.903Z" fill="#28313B"/>
</g>
<path fill-rule="evenodd" clip-rule="evenodd" d="M121.832 359.949C117.015 359.949 112.537 357.311 110.23 352.929C101.665 336.664 93.8309 309.879 105.147 274.638C114.517 245.457 140.238 239.291 141.328 239.044L144.465 252.827C143.735 253.005 125.448 257.651 118.606 278.959C109.425 307.549 114.643 329.473 121.332 343.538C126.71 308.22 143.059 287.016 143.772 286.104L154.9 294.822L149.336 290.464L154.911 294.808C154.755 295.01 139.23 315.354 134.906 348.499C134.162 354.205 129.852 358.722 124.183 359.739C123.397 359.881 122.609 359.949 121.832 359.949Z" fill="#28313B"/>
<path fill-rule="evenodd" clip-rule="evenodd" d="M244.766 271.22C244.651 271.22 244.571 271.219 244.528 271.219L244.734 257.085H244.747C245.407 257.085 267.899 256.928 285.441 241.302C307.861 221.329 314.494 199.791 315.87 184.278C293.31 211.977 268.461 221.95 267.384 222.373L262.22 209.214L264.802 215.792L262.204 209.22C262.441 209.125 286.145 199.476 306.693 173.113C310.231 168.574 316.238 166.869 321.637 168.871C327.035 170.872 330.478 176.076 330.203 181.821C329.326 200.182 322.481 227.237 294.844 251.857C273.725 270.671 247.709 271.22 244.766 271.22Z" fill="#28313B"/>
<path fill-rule="evenodd" clip-rule="evenodd" d="M209.607 281.864C209.607 270.913 203.508 262.036 195.983 262.036C188.46 262.036 182.36 270.913 182.36 281.864C182.36 292.815 188.46 301.692 195.983 301.692C203.508 301.692 209.607 292.815 209.607 281.864Z" fill="#2FA9E0"/>
<path fill-rule="evenodd" clip-rule="evenodd" d="M195.984 265.57C190.515 265.57 185.895 273.032 185.895 281.864C185.895 290.696 190.515 298.159 195.984 298.159C201.453 298.159 206.074 290.696 206.074 281.864C206.074 273.032 201.453 265.57 195.984 265.57ZM195.984 305.226C186.363 305.226 178.827 294.965 178.827 281.864C178.827 268.764 186.363 258.503 195.984 258.503C205.605 258.503 213.141 268.764 213.141 281.864C213.141 294.965 205.605 305.226 195.984 305.226Z" fill="#28313B"/>
</svg>
