<svg width="1200" height="120" viewBox="0 0 1200 120" fill="none" xmlns="http://www.w3.org/2000/svg">
<rect width="1200" height="120" fill="white"/>
<rect width="1200" height="120" fill="url(#paint0_linear)" fill-opacity="0.9"/>
<path opacity="0.3" d="M104.583 109.27L89.7764 106.869L87.9193 121.754L83.0608 120.966L84.918 106.081L70.1114 103.68L70.7208 98.7962L85.5274 101.197L87.3846 86.3126L92.243 87.1004L90.3858 101.985L105.192 104.386L104.583 109.27Z" fill="white"/>
<path opacity="0.3" d="M762.592 45.408L770.94 57.8704L783.088 49.0717L785.828 53.1609L773.679 61.9596L782.027 74.422L778.041 77.3091L769.693 64.8467L757.545 73.6454L754.805 69.5561L766.954 60.7574L758.606 48.295L762.592 45.408Z" fill="white"/>
<circle opacity="0.3" cx="159.5" cy="0.5" r="11" stroke="white" stroke-width="3"/>
<circle opacity="0.3" cx="435.667" cy="68.4798" r="11" transform="rotate(-133.027 435.667 68.4798)" stroke="white" stroke-width="3"/>
<circle opacity="0.3" cx="617.667" cy="0.667286" r="11" transform="rotate(-133.027 617.667 0.667286)" stroke="white" stroke-width="3"/>
<circle opacity="0.3" cx="1140.5" cy="1.5" r="9.5" stroke="white" stroke-width="4"/>
<path d="M257.324 57.176C260.266 59.0373 263.419 59.6175 266.784 58.9166C270.15 58.2158 272.771 56.4329 274.648 53.5682C276.602 50.6874 277.228 47.5644 276.527 44.1991L271.594 45.2265C272.008 47.2151 271.64 49.0873 270.489 50.8432C269.339 52.599 267.769 53.684 265.781 54.0981C263.792 54.5123 261.92 54.1441 260.164 52.9935C258.408 51.843 257.323 50.2734 256.909 48.2848L251.976 49.3122C252.677 52.6775 254.46 55.2988 257.324 57.176ZM267.312 35.5846C265.556 34.4341 263.684 34.0659 261.695 34.48C259.707 34.8942 258.137 35.9792 256.986 37.735C255.836 39.4908 255.468 41.363 255.882 43.3516L270.567 40.2933C270.153 38.3047 269.068 36.7352 267.312 35.5846ZM280.318 38.2624C281.619 37.9916 282.869 38.2498 284.071 39.0371C285.272 39.8243 286.008 40.868 286.279 42.1682L292.396 71.5381C292.666 72.8383 292.408 74.0891 291.621 75.2905C290.818 76.4153 289.766 77.1132 288.466 77.384L254.278 84.5041C252.977 84.7749 251.735 84.5549 250.549 83.8441C249.348 83.0569 248.612 82.0132 248.341 80.713L242.224 51.3431C241.953 50.0429 242.212 48.7921 242.999 47.5908C243.786 46.3894 244.83 45.6533 246.13 45.3825L250.949 44.379C250.248 41.0137 250.836 37.8987 252.713 35.0339C254.651 32.0767 257.302 30.2477 260.668 29.5468C264.033 28.8459 267.156 29.4724 270.037 31.4261C272.978 33.2873 274.799 35.9006 275.5 39.2659L280.318 38.2624Z" fill="white" fill-opacity="0.3"/>
<path d="M616.338 118.316C617.48 117.445 618.709 117.097 620.025 117.274C621.341 117.451 622.396 118.105 623.19 119.237C624.061 120.379 624.409 121.608 624.232 122.924C624.055 124.24 623.395 125.334 622.254 126.205C621.199 127.01 620.014 127.323 618.698 127.146C617.382 126.97 616.283 126.349 615.401 125.284C614.53 124.143 614.183 122.913 614.359 121.597C614.536 120.281 615.196 119.187 616.338 118.316ZM585.627 72.3309L593.757 73.4236L595.424 78.6138L632.125 83.5465C632.822 83.6401 633.367 83.9892 633.758 84.5936C634.16 85.1206 634.315 85.7325 634.221 86.4294C634.211 86.5068 634.042 86.8784 633.716 87.544L622.735 102.385C621.577 103.964 620.03 104.623 618.095 104.363L599.628 101.881L596.875 105.649L596.712 105.982C596.66 106.369 596.827 106.589 597.215 106.641L625.902 110.497L625.231 115.491L595.498 111.495C594.182 111.318 593.088 110.658 592.217 109.517C591.423 108.385 591.114 107.161 591.291 105.845C591.395 105.071 591.693 104.322 592.184 103.6L596.38 97.8973L589.965 77.8801L584.971 77.2089L585.627 72.3309ZM591.483 114.975C592.625 114.104 593.854 113.757 595.17 113.934C596.487 114.111 597.58 114.77 598.452 115.912C599.323 117.054 599.67 118.283 599.493 119.599C599.316 120.915 598.657 122.009 597.515 122.881C596.384 123.674 595.16 123.983 593.843 123.806C592.527 123.629 591.428 123.008 590.546 121.944C589.753 120.812 589.444 119.589 589.621 118.272C589.798 116.956 590.419 115.857 591.483 114.975Z" fill="white" fill-opacity="0.3"/>
<path d="M955.309 72.2958L976.179 63.7401L959.788 50.2461L955.309 72.2958ZM964.695 38.4478L963.692 43.3861L973.569 45.3922L974.572 40.454L964.695 38.4478ZM978.392 46.372L993.092 49.3579L986.63 81.1692C986.35 82.5473 985.65 83.6407 984.529 84.4493C983.423 85.1815 982.182 85.4076 980.804 85.1276L941.528 77.1497C940.149 76.8698 939.094 76.1771 938.362 75.0718C937.646 73.8898 937.427 72.6098 937.707 71.2317L944.169 39.4204L958.869 42.4063L959.872 37.4681C960.152 36.09 960.844 35.0349 961.95 34.3028C963.055 33.5706 964.297 33.3445 965.675 33.6245L975.551 35.6306C976.93 35.9105 977.985 36.6032 978.717 37.7085C979.449 38.8139 979.675 40.0556 979.395 41.4337L978.392 46.372Z" fill="white" fill-opacity="0.2"/>
<defs>
<linearGradient id="paint0_linear" x1="-34.4178" y1="128.276" x2="867.461" y2="-507.512" gradientUnits="userSpaceOnUse">
<stop stop-color="#00C2FF"/>
<stop offset="0.510417" stop-color="#8BE3FF"/>
<stop offset="1" stop-color="#36DBFF"/>
</linearGradient>
</defs>
</svg>
