<svg width="1440" height="900" viewBox="0 0 1440 900" fill="none" xmlns="http://www.w3.org/2000/svg">
<g opacity="0.3">
<path d="M-2 815.535C43.4861 697.018 172.511 454.586 324.723 433.002C476.935 411.419 603.741 142.008 648.118 10" stroke="#F6F9FB" stroke-width="5"/>
<path d="M958.305 40.562C918.877 174.889 802.149 455.305 650.657 502.352C461.292 561.16 471.843 687.453 444.633 757.83C417.422 828.207 340.232 932.327 226.391 932.327" stroke="#F6F9FB" stroke-width="5"/>
<path d="M1321.61 18.7322C1263.78 97.9197 1133.68 306.308 1075.86 506.361C1003.58 756.427 935.197 858.377 822.333 917.046" stroke="#F6F9FB" stroke-width="5"/>
<path d="M1609.48 29.647C1557.68 178.074 1450.14 425.127 1364.55 503.247C1300.12 562.051 1223.22 814.748 1197.32 956.34" stroke="#F6F9FB" stroke-width="5"/>
<path d="M330.166 -205C278.364 -56.5729 170.818 190.48 85.2314 268.6C20.8059 327.404 -56.0988 580.101 -82 721.693" stroke="#F6F9FB" stroke-width="5"/>
</g>
</svg>
