<svg width="15" height="14" viewBox="0 0 15 14" fill="none" xmlns="http://www.w3.org/2000/svg">
<path fill-rule="evenodd" clip-rule="evenodd" d="M5.77484 3.28255C5.43134 3.28255 5.09084 3.35771 4.78409 3.50287C4.37347 3.69629 3.75809 4.0065 3.15772 4.38339C2.53634 4.77392 1.93634 5.28013 1.54259 5.63639C1.30972 5.84639 1.17322 6.14629 1.16909 6.45871C1.15784 7.26924 1.17434 8.82139 1.41209 10.1094C1.49722 10.5699 1.75559 10.9741 2.13959 11.2474C2.92034 11.8034 4.11959 12.5027 5.14334 12.7981C5.33759 12.8541 5.53672 12.8685 5.73472 12.8394C6.89347 12.6718 10.8268 12.0569 12.7855 11.1896C12.9156 11.1321 13.0123 11.0161 13.0442 10.8798C13.2568 9.97381 13.7286 7.65387 13.5246 5.68097C13.507 5.51297 13.4076 5.3645 13.2583 5.28455C12.244 4.73892 9.49522 3.45239 5.88322 3.28513C5.84722 3.28329 5.81084 3.28255 5.77484 3.28255ZM5.53334 13.6672C5.32372 13.6672 5.11522 13.637 4.91047 13.5781C3.49484 13.1695 2.06009 12.1947 1.65434 11.9054C1.09634 11.5087 0.721341 10.9221 0.598341 10.2545C0.347841 8.89913 0.330216 7.28766 0.341841 6.44766L0.755466 6.45318L0.341841 6.44766C0.349341 5.91308 0.582966 5.39913 0.982341 5.03808C1.40047 4.66008 2.04022 4.12071 2.71222 3.69887C3.34709 3.29987 3.99472 2.97345 4.42597 2.77008C4.88834 2.55197 5.40584 2.44918 5.92222 2.47313C9.70634 2.6485 12.5912 3.99876 13.6555 4.57129C14.0436 4.77981 14.3023 5.16408 14.3473 5.59881C14.5641 7.69255 14.0721 10.1171 13.8505 11.0621C13.7608 11.4445 13.4897 11.7691 13.1256 11.9305C11.0691 12.8412 7.04084 13.472 5.85509 13.6437C5.74784 13.6591 5.64059 13.6672 5.53334 13.6672Z" fill="#28313B"/>
<path fill-rule="evenodd" clip-rule="evenodd" d="M5.41593 4.08916C5.08518 5.07947 4.24368 8.20479 5.37055 11.7033C5.45943 11.9785 5.7343 12.1535 6.02605 12.12C7.32955 11.9712 10.8861 11.5235 12.5642 10.9002C12.6321 10.8751 12.6816 10.8184 12.6973 10.7487C12.8297 10.1541 13.4342 7.29626 13.1901 5.81373C13.1679 5.67963 13.0821 5.56505 12.9576 5.50684C12.2706 5.18337 9.73705 4.10684 5.87568 3.78963C5.67055 3.77268 5.48005 3.89684 5.41593 4.08916ZM7.31399 7.90254C7.36799 9.00817 7.59787 9.90527 7.92787 9.90233C8.25786 9.89975 8.44274 8.99859 8.50911 7.89333C8.57586 6.77701 8.41912 5.88875 7.89524 5.89317C7.37137 5.89722 7.25887 6.76706 7.31399 7.90254ZM11.1994 9.67637C10.9474 9.65537 10.8364 8.95464 10.8754 8.10653C10.9151 7.23632 11.064 6.57979 11.4645 6.61295C11.8646 6.64648 11.9201 7.33579 11.7885 8.18279C11.658 9.02206 11.4514 9.69737 11.1994 9.67637Z" fill="#343A4C"/>
<path fill-rule="evenodd" clip-rule="evenodd" d="M3.6927 7.89185C3.70882 8.77937 3.26107 9.507 2.69257 9.51695C2.12407 9.52653 1.65007 8.81548 1.63395 7.92795C1.6182 7.04006 2.06595 6.31279 2.63445 6.30285C3.20295 6.29253 3.67657 7.00432 3.6927 7.89185Z" fill="#29313C"/>
<path fill-rule="evenodd" clip-rule="evenodd" d="M8.1054 1.0739C8.1054 0.664955 7.7679 0.333008 7.35165 0.333008C6.9354 0.333008 6.5979 0.664955 6.5979 1.0739C6.5979 1.48248 6.9354 1.81443 7.35165 1.81443C7.7679 1.81443 8.1054 1.48248 8.1054 1.0739Z" fill="#28313B"/>
<path fill-rule="evenodd" clip-rule="evenodd" d="M7.82965 2.88705H6.87378L7.1494 1.71289H7.55403L7.82965 2.88705Z" fill="#28313B"/>
</svg>
