<svg width="206" height="45" viewBox="0 0 206 45" fill="none" xmlns="http://www.w3.org/2000/svg">
<path fill-rule="evenodd" clip-rule="evenodd" d="M64.4032 21.1203C63.9773 20.6058 63.4544 20.2099 62.8323 19.9332C62.2079 19.657 61.4869 19.5167 60.6697 19.5143C59.8521 19.5119 59.091 19.6656 58.3954 19.975C57.6938 20.2844 57.0894 20.7177 56.5742 21.275C56.061 21.8317 55.66 22.4952 55.3697 23.2638C55.0775 24.0324 54.9316 24.8659 54.9287 25.7633C54.9263 26.6799 55.0677 27.5182 55.3551 28.2792C55.64 29.0401 56.0342 29.7007 56.5342 30.2613C57.0347 30.8214 57.6221 31.2586 58.3036 31.5723C58.9798 31.8855 59.7082 32.0436 60.4912 32.0455C61.3834 32.0484 62.1762 31.8682 62.865 31.5031C63.5534 31.1385 64.1232 30.6273 64.572 29.9692L68.1919 32.6455C67.3518 33.7975 66.2888 34.6464 65.0028 35.1921C63.7173 35.7378 62.3943 36.0088 61.0366 36.0044C59.493 36.0006 58.0709 35.758 56.7698 35.2776C55.4668 34.7977 54.3443 34.1117 53.3978 33.2201C52.4538 32.3284 51.7152 31.2495 51.1903 29.9841C50.6649 28.7182 50.4024 27.3078 50.4078 25.7499C50.4122 24.1929 50.6825 22.7824 51.2176 21.52C51.7499 20.2575 52.4933 19.1838 53.4447 18.297C54.396 17.4116 55.5239 16.7328 56.8294 16.2606C58.1324 15.7883 59.5569 15.5539 61.1005 15.5582C61.6581 15.5601 62.2401 15.6125 62.845 15.7153C63.4495 15.8181 64.0442 15.98 64.6286 16.202C65.216 16.4229 65.7755 16.7179 66.3136 17.0859C66.8532 17.4544 67.3342 17.9045 67.7606 18.4368L64.4032 21.1203Z" fill="#2CABE3"/>
<path fill-rule="evenodd" clip-rule="evenodd" d="M72.7133 25.7469C72.7104 26.6635 72.8519 27.5023 73.1392 28.2628C73.4241 29.0247 73.8359 29.6852 74.373 30.2454C74.9111 30.806 75.5575 31.2432 76.3107 31.5569C77.0615 31.871 77.9016 32.0286 78.8329 32.0315C79.7618 32.0344 80.6067 31.8816 81.36 31.5722C82.1157 31.2633 82.7626 30.8295 83.305 30.2723C83.8446 29.7155 84.2612 29.0574 84.5539 28.2983C84.8432 27.5383 84.9896 26.701 84.992 25.7844C84.9949 24.887 84.8535 24.0531 84.5686 23.2825C84.2812 22.5124 83.8695 21.8466 83.3324 21.286C82.7943 20.7263 82.1503 20.2891 81.3971 19.9745C80.6438 19.6613 79.8013 19.5027 78.8724 19.4994C77.9411 19.497 77.0986 19.6512 76.3454 19.9596C75.5921 20.269 74.9428 20.7023 74.4003 21.2591C73.8608 21.8163 73.4441 22.4798 73.1539 23.2474C72.8621 24.0165 72.7158 24.85 72.7133 25.7469ZM68.1915 25.734C68.1963 24.1765 68.4666 22.7665 69.0018 21.5045C69.534 20.2411 70.278 19.1679 71.2293 18.2816C72.1806 17.3957 73.308 16.7169 74.6135 16.2442C75.9166 15.772 77.3411 15.538 78.8846 15.5423C80.4282 15.5471 81.8503 15.7897 83.1514 16.2696C84.4544 16.7505 85.577 17.4361 86.5234 18.3272C87.4698 19.2193 88.2055 20.2973 88.7309 21.5636C89.2558 22.8295 89.5188 24.2404 89.5139 25.7974C89.509 27.3558 89.2387 28.7648 88.7036 30.0278C88.1713 31.2898 87.4274 32.3639 86.4761 33.2498C85.5248 34.1356 84.3973 34.8149 83.0918 35.2872C81.7888 35.7594 80.3643 35.9933 78.8207 35.9885C77.2767 35.9847 75.8546 35.7416 74.554 35.2617C73.251 34.7818 72.1284 34.0953 71.182 33.2042C70.238 32.3125 69.4999 31.2336 68.9745 29.9687C68.4495 28.7019 68.1866 27.2914 68.1915 25.734Z" fill="#2CABE3"/>
<path fill-rule="evenodd" clip-rule="evenodd" d="M95.4426 31.6641L97.7024 31.6713C98.7078 31.6742 99.642 31.5762 100.507 31.3769C101.374 31.178 102.125 30.8465 102.759 30.381C103.391 29.9155 103.891 29.3039 104.255 28.544C104.622 27.7854 104.805 26.8554 104.808 25.7562C104.813 24.8041 104.635 23.9739 104.273 23.2673C103.911 22.5616 103.425 21.9779 102.814 21.5181C102.201 21.0589 101.481 20.7135 100.653 20.4819C99.8255 20.2494 98.9556 20.1322 98.0443 20.1298L95.4773 20.1221L95.4426 31.6641ZM91.1369 16.1516L97.6677 16.1713C99.2484 16.1761 100.75 16.3548 102.172 16.707C103.594 17.0596 104.835 17.6264 105.893 18.408C106.951 19.1906 107.789 20.2052 108.408 21.4528C109.027 22.7009 109.335 24.2127 109.33 25.9892C109.324 27.5659 109.018 28.9523 108.41 30.1509C107.801 31.349 106.983 32.3545 105.958 33.1659C104.932 33.9782 103.75 34.5936 102.407 35.0106C101.067 35.4281 99.662 35.6346 98.1931 35.6303L91.0774 35.6087L91.1369 16.1516Z" fill="#2CABE3"/>
<path fill-rule="evenodd" clip-rule="evenodd" d="M110.952 16.1999L124.376 16.2398L124.363 20.1973L115.296 20.1699L115.283 23.7974L123.851 23.8239L123.841 27.7809L115.273 27.7549L115.261 31.7125L124.832 31.7418L124.819 35.6988L110.893 35.6565L110.952 16.1999Z" fill="#2CABE3"/>
<path fill-rule="evenodd" clip-rule="evenodd" d="M140.35 21.0466C139.925 20.5336 139.403 20.1392 138.783 19.8634C138.161 19.5877 137.442 19.4479 136.627 19.4455C135.811 19.4431 135.054 19.5958 134.359 19.9047C133.661 20.2131 133.057 20.6455 132.544 21.2008C132.033 21.7567 131.631 22.4177 131.342 23.1834C131.052 23.9506 130.905 24.7812 130.902 25.6762C130.9 26.5899 131.042 27.4258 131.327 28.1844C131.612 28.9434 132.004 29.6025 132.503 30.1612C133.002 30.7194 133.589 31.1552 134.267 31.4679C134.943 31.7806 135.669 31.9382 136.448 31.9401C137.339 31.943 138.128 31.7629 138.816 31.3992C139.503 31.0355 140.071 30.5258 140.518 29.8696L144.127 32.5382C143.288 33.6869 142.229 34.5328 140.948 35.0771C139.665 35.6209 138.347 35.8914 136.993 35.8876C135.453 35.8832 134.035 35.6411 132.738 35.1626C131.439 34.6842 130.32 33.9996 129.377 33.1104C128.434 32.2221 127.7 31.146 127.175 29.884C126.651 28.6225 126.391 27.2159 126.396 25.6623C126.4 24.1101 126.668 22.704 127.202 21.4449C127.734 20.1862 128.475 19.1154 129.424 18.232C130.373 17.3495 131.497 16.6726 132.797 16.2009C134.097 15.7305 135.517 15.4966 137.057 15.5009C137.613 15.5028 138.192 15.5552 138.795 15.657C139.398 15.7598 139.991 15.9213 140.574 16.1427C141.159 16.3627 141.719 16.6568 142.255 17.0238C142.792 17.3918 143.272 17.84 143.697 18.3708L140.35 21.0466Z" fill="#28313B"/>
<path fill-rule="evenodd" clip-rule="evenodd" d="M145.75 16.0226L150.09 16.0361L150.068 23.2699L158.499 23.2954L158.522 16.061L162.863 16.0745L162.804 35.4744L158.463 35.461L158.488 27.0766L150.057 27.0516L150.031 35.436L145.691 35.423L145.75 16.0226Z" fill="#28313B"/>
<path fill-rule="evenodd" clip-rule="evenodd" d="M181.559 28.056C181.557 29.2071 181.377 30.2658 181.02 31.2324C180.666 32.1999 180.14 33.0387 179.441 33.7487C178.743 34.4592 177.875 35.0136 176.835 35.4123C175.795 35.8111 174.597 36.0085 173.243 36.0047C171.869 36.0004 170.665 35.7952 169.628 35.3912C168.59 34.9862 167.725 34.4261 167.031 33.7113C166.339 32.9969 165.816 32.1557 165.466 31.1858C165.118 30.2164 164.945 29.1571 164.947 28.0061L164.984 16.0864L169.325 16.0994L169.289 27.8543C169.287 28.4576 169.383 29.0144 169.577 29.527C169.77 30.0386 170.041 30.4835 170.393 30.8577C170.744 31.2338 171.165 31.5279 171.657 31.7392C172.147 31.9501 172.68 32.0573 173.255 32.0592C173.83 32.0611 174.359 31.9568 174.842 31.7488C175.326 31.5403 175.743 31.2487 176.098 30.8755C176.45 30.5022 176.726 30.0602 176.923 29.5491C177.119 29.0384 177.218 28.4812 177.22 27.8783L177.256 16.1229L181.596 16.1364L181.559 28.056Z" fill="#28313B"/>
<mask id="mask0" mask-type="alpha" maskUnits="userSpaceOnUse" x="183" y="16" width="23" height="20">
<path fill-rule="evenodd" clip-rule="evenodd" d="M183.681 16.1479H206V35.615H183.681V16.1479Z" fill="white"/>
</mask>
<g mask="url(#mask0)">
<path fill-rule="evenodd" clip-rule="evenodd" d="M183.74 16.1479L190.307 16.168L194.805 28.8409L194.86 28.8414L199.462 16.1959L206 16.2156L205.941 35.615L201.6 35.6021L201.646 20.7236H201.59L196.37 35.5862L193.058 35.5761L188.122 20.6828H188.067L188.021 35.5612L183.681 35.5482L183.74 16.1479Z" fill="#28313B"/>
</g>
<mask id="mask1" mask-type="alpha" maskUnits="userSpaceOnUse" x="0" y="0" width="47" height="45">
<path fill-rule="evenodd" clip-rule="evenodd" d="M0.900124 0.921051H46.3377V44.0785H0.900124V0.921051Z" fill="white"/>
</mask>
<g mask="url(#mask1)">
<path fill-rule="evenodd" clip-rule="evenodd" d="M23.5646 5.03141C23.5008 5.03141 23.4491 5.0832 23.4491 5.1447C23.4491 5.21807 23.5327 5.24396 23.5371 5.24504L23.5646 5.2526L23.5921 5.24504C23.5965 5.24396 23.6801 5.21807 23.6801 5.1447C23.6801 5.0832 23.6284 5.03141 23.5646 5.03141M18.9391 11.2871C17.882 11.2871 16.8348 11.5191 15.8899 11.9647C14.6755 12.5366 12.8572 13.4515 11.084 14.5639C9.24042 15.7195 7.46502 17.2149 6.30012 18.2658C5.55102 18.9434 5.11212 19.9069 5.09782 20.9103C5.06482 23.2969 5.11432 27.8663 5.81612 31.6642C6.08122 33.0948 6.88532 34.3518 8.08212 35.202C8.87962 35.7685 13.0596 38.6568 16.9943 39.7919C17.6092 39.9699 18.2604 40.012 18.8643 39.9235C22.2798 39.4304 33.8551 37.6221 39.6411 35.065C40.1152 34.8557 40.4694 34.4327 40.586 33.9343C41.213 31.266 42.6056 24.4298 42.0017 18.6035C41.9401 18.0036 41.5837 17.476 41.0502 17.1911C38.8084 15.9849 32.7067 13.0512 24.4908 11.8148L23.3787 11.6486L22.172 11.5234C21.0687 11.4069 20.148 11.3357 19.2735 11.2958C19.1613 11.2904 19.0502 11.2871 18.9391 11.2871M18.2318 44.0786C17.4156 44.0786 16.6005 43.9631 15.8118 43.7354C11.3326 42.445 6.88092 39.425 5.62252 38.5295C3.54682 37.0535 2.15092 34.8762 1.69332 32.3968C0.927722 28.2601 0.872722 23.3897 0.907922 20.8542C0.937622 18.7244 1.86932 16.6798 3.46322 15.2404C4.75132 14.0795 6.72692 12.4168 8.82792 11.1005C10.7771 9.877 12.7571 8.88005 14.0749 8.25965C15.7447 7.4731 17.618 7.10087 19.4704 7.18934C19.5815 7.19365 19.6926 7.20013 19.8048 7.2066C19.4539 6.59268 19.2581 5.88813 19.2581 5.14473C19.2581 2.81529 21.1897 0.920654 23.5646 0.920654C25.9395 0.920654 27.8711 2.81529 27.8711 5.14473C27.8711 6.2431 27.4443 7.25731 26.7216 8.01581C34.7912 9.46808 40.7741 12.3553 43.0632 13.5853C44.8067 14.5208 45.9683 16.2417 46.1707 18.1881C46.8384 24.623 45.3435 31.99 44.6692 34.8589C44.26 36.6014 43.0225 38.0796 41.3615 38.8133C35.0838 41.5883 23.0256 43.4765 19.4803 43.9879C19.0744 44.0483 18.6531 44.0786 18.2318 44.0786" fill="white"/>
</g>
<path fill-rule="evenodd" clip-rule="evenodd" d="M19.1151 40.761C22.7902 40.2269 34.1829 38.4261 39.9986 35.8561C40.7301 35.5324 41.2658 34.8937 41.4462 34.1265C42.082 31.4162 43.4955 24.4743 42.8795 18.5206C42.7882 17.638 42.2635 16.8558 41.4715 16.4285C38.54 14.8554 30.565 11.1104 20.0545 10.4706C18.4452 10.3724 16.8436 10.7598 15.4664 11.5841C13.3764 12.8335 9.92132 15.0982 5.79962 18.5595C4.90862 19.3072 4.36302 20.3743 4.26952 21.5212C4.04182 24.3189 4.63912 29.0922 5.92392 34.393C6.14392 35.2993 6.79072 36.0481 7.67072 36.3999C10.0291 37.3418 12.6812 39.6777 16.7952 40.6606C17.5542 40.8419 18.3418 40.8732 19.1151 40.761" fill="white"/>
<path fill-rule="evenodd" clip-rule="evenodd" d="M15.7158 13.881C15.9908 13.7613 16.2779 14.0256 16.1723 14.3029C15.5035 16.053 14.0405 20.8176 14.5454 27.9937C14.8875 32.8748 15.6861 35.7912 16.3593 37.455C16.8411 38.6429 18.017 39.4186 19.3205 39.4186H24.089L18.1028 40.8256C18.1028 40.8256 7.5593 37.8855 7.0764 36.6425C6.2569 32.3818 6.1821 26.6709 6.4439 22.3626C6.5748 20.194 6.4846 19.5973 9.2544 17.584C11.637 15.8501 14.3991 14.4572 15.7158 13.881" fill="#D5E4EC"/>
<path fill-rule="evenodd" clip-rule="evenodd" d="M42.8791 27.1846L14.6608 24.5886L4.11508 26.7627L3.86538 25.5974L14.5904 23.3856L42.9924 25.9999L42.8791 27.1846Z" fill="#89A1B1"/>
<path fill-rule="evenodd" clip-rule="evenodd" d="M17.8869 13.9748C16.9167 16.875 14.4483 26.0277 17.7538 36.2734C18.0145 37.0794 18.8208 37.5919 19.6766 37.4937C23.5002 37.0578 33.9326 35.7469 38.8551 33.9213C39.0542 33.8479 39.1994 33.6818 39.2456 33.4779C39.6339 31.7364 41.4071 23.367 40.691 19.0253C40.6261 18.6326 40.3742 18.2971 40.009 18.1266C37.9938 17.1793 30.5622 14.0266 19.2355 13.0976C18.6338 13.048 18.075 13.4116 17.8869 13.9748" fill="#343A4C"/>
<path fill-rule="evenodd" clip-rule="evenodd" d="M18.9396 11.6126C17.932 11.6126 16.9332 11.8327 16.0334 12.2578C14.8289 12.8242 13.0238 13.7327 11.2627 14.8365C9.43996 15.9801 7.67996 17.4626 6.52496 18.506C5.84186 19.121 5.44146 19.9992 5.42936 20.9142C5.39636 23.2879 5.44476 27.8335 6.14216 31.6055C6.39186 32.9541 7.14976 34.1377 8.27616 34.9383C10.5664 36.5665 14.0842 38.6143 17.0872 39.4796C17.657 39.6436 18.2411 39.6857 18.8219 39.6005C22.2209 39.1095 33.7588 37.3088 39.5041 34.7689C39.8858 34.6006 40.1696 34.2607 40.2631 33.8615C40.8868 31.2084 42.2706 24.4143 41.6722 18.6365C41.6205 18.1445 41.329 17.7097 40.8912 17.4756C37.9157 15.8776 29.8527 12.11 19.2575 11.6201C19.1519 11.6147 19.0452 11.6126 18.9396 11.6126M18.2312 42.0249C17.6163 42.0249 17.0047 41.9364 16.4041 41.7637C12.2516 40.5672 8.04296 37.7123 6.85276 36.8653C5.21596 35.7033 4.11596 33.9856 3.75516 32.0306C3.02036 28.0611 2.96866 23.3418 3.00276 20.8818L4.21606 20.898L3.00276 20.8818C3.02476 19.3162 3.71006 17.8111 4.88156 16.7537C6.10806 15.6467 7.98466 14.0672 9.95586 12.8318C11.8182 11.6633 13.7179 10.7073 14.9829 10.1117C16.3392 9.47301 17.8572 9.17198 19.3719 9.24211C30.472 9.75569 38.9343 13.71 42.0561 15.3867C43.1946 15.9974 43.9536 17.1227 44.0856 18.3959C44.7214 24.5276 43.2782 31.6281 42.6281 34.3956C42.3652 35.5156 41.5699 36.4661 40.5018 36.9387C34.4694 39.6059 22.6532 41.453 19.175 41.9558C18.8604 42.0011 18.5458 42.0249 18.2312 42.0249" fill="#28313B"/>
<path fill-rule="evenodd" clip-rule="evenodd" d="M23.4545 25.1426C23.6129 28.3805 24.2872 31.0077 25.2552 30.9991C26.2232 30.9915 26.7655 28.3524 26.9602 25.1156C27.156 21.8464 26.6962 19.245 25.1595 19.258C23.6228 19.2699 23.2928 21.8172 23.4545 25.1426" fill="#2FA9E0"/>
<path fill-rule="evenodd" clip-rule="evenodd" d="M33.9012 25.74C33.7868 28.2237 34.1124 30.2759 34.8516 30.3374C35.5908 30.3989 36.1969 28.4212 36.5797 25.9633C36.9658 23.4828 36.803 21.4641 35.6293 21.3659C34.4545 21.2688 34.0178 23.1915 33.9012 25.74" fill="#2FA9E0"/>
<path fill-rule="evenodd" clip-rule="evenodd" d="M12.832 25.1109C12.8793 27.7101 11.5659 29.8411 9.89833 29.8702C8.23073 29.8982 6.84033 27.8159 6.79303 25.2167C6.74683 22.6164 8.06023 20.4866 9.72783 20.4574C11.3954 20.4272 12.7847 22.5118 12.832 25.1109" fill="#29313C"/>
<path fill-rule="evenodd" clip-rule="evenodd" d="M25.7758 5.14514C25.7758 3.9475 24.7858 2.97537 23.5648 2.97537C22.3438 2.97537 21.3538 3.9475 21.3538 5.14514C21.3538 6.34169 22.3438 7.31382 23.5648 7.31382C24.7858 7.31382 25.7758 6.34169 25.7758 5.14514" fill="#28313B"/>
<path fill-rule="evenodd" clip-rule="evenodd" d="M24.967 10.4556H22.1631L22.9716 7.017H24.1585L24.967 10.4556Z" fill="#28313B"/>
</svg>
