<svg width="40" height="38" viewBox="0 0 40 38" fill="none" xmlns="http://www.w3.org/2000/svg">
<path fill-rule="evenodd" clip-rule="evenodd" d="M15.3874 36.7713C18.8954 36.2513 29.7694 34.4983 35.3224 31.9973C36.0204 31.6833 36.5314 31.0613 36.7024 30.3143C37.3104 27.6773 38.6594 20.9223 38.0714 15.1273C37.9844 14.2693 37.4844 13.5063 36.7274 13.0923C33.9294 11.5613 26.3164 7.9163 16.2834 7.2933C14.7474 7.1983 13.2184 7.5753 11.9044 8.3763C9.90837 9.5933 6.61137 11.7963 2.67637 15.1653C1.82537 15.8923 1.30537 16.9323 1.21637 18.0473C0.999367 20.7703 1.56937 25.4153 2.79537 30.5743C3.00437 31.4563 3.62237 32.1853 4.46237 32.5273C6.71337 33.4443 9.24437 35.7163 13.1724 36.6733C13.8974 36.8503 14.6494 36.8803 15.3874 36.7713Z" fill="#FEFEFE"/>
<path fill-rule="evenodd" clip-rule="evenodd" d="M12.1423 10.6121C12.4053 10.4951 12.6783 10.7531 12.5773 11.0231C11.9393 12.7261 10.5423 17.3621 11.0243 24.3461C11.3523 29.0951 12.1143 31.9341 12.7563 33.5531C13.2163 34.7101 14.3393 35.4651 15.5833 35.4651H20.1343L14.4203 36.8341C14.4203 36.8341 4.35728 33.9721 3.89528 32.7621C3.11328 28.6161 3.04228 23.0581 3.29128 18.8671C3.41628 16.7551 3.33028 16.1751 5.97428 14.2151C8.24928 12.5291 10.8853 11.1731 12.1423 10.6121Z" fill="#D5E4EC"/>
<path fill-rule="evenodd" clip-rule="evenodd" d="M38.0711 23.5589L11.1341 21.0319L1.06905 23.1479L0.831055 22.0149L11.0681 19.8629L38.1781 22.4059L38.0711 23.5589Z" fill="#89A1B1"/>
<path fill-rule="evenodd" clip-rule="evenodd" d="M14.2145 10.703C13.2885 13.526 10.9325 22.433 14.0875 32.404C14.3365 33.188 15.1055 33.687 15.9225 33.592C19.5725 33.167 29.5305 31.891 34.2305 30.116C34.4195 30.044 34.5585 29.881 34.6025 29.684C34.9725 27.988 36.6655 19.844 35.9825 15.618C35.9205 15.237 35.6795 14.91 35.3315 14.744C33.4075 13.822 26.3135 10.753 15.5015 9.849C14.9275 9.801 14.3945 10.156 14.2145 10.703Z" fill="#343A4C"/>
<mask id="mask0" mask-type="alpha" maskUnits="userSpaceOnUse" x="0" y="6" width="40" height="32">
<path fill-rule="evenodd" clip-rule="evenodd" d="M0 6.08797H39.3734V37.9996H0V6.08797Z" fill="white"/>
</mask>
<g mask="url(#mask0)">
<path fill-rule="evenodd" clip-rule="evenodd" d="M15.2194 8.4046C14.2574 8.4046 13.3044 8.6196 12.4454 9.0316C11.2954 9.5846 9.57243 10.4676 7.89143 11.5426C6.15143 12.6546 4.47143 14.0976 3.36843 15.1126C2.71643 15.7126 2.33543 16.5666 2.32343 17.4566C2.29143 19.7666 2.33843 24.1906 3.00343 27.8616C3.24143 29.1736 3.96543 30.3256 5.04043 31.1046C7.22743 32.6896 10.5844 34.6826 13.4514 35.5246C13.9954 35.6846 14.5524 35.7236 15.1064 35.6416C18.3514 35.1636 29.3654 33.4116 34.8494 30.9396C35.2134 30.7756 35.4844 30.4456 35.5734 30.0566C36.1684 27.4756 37.4904 20.8626 36.9184 15.2406C36.8694 14.7606 36.5914 14.3386 36.1734 14.1096C33.3334 12.5546 25.6374 8.8886 15.5234 8.4116C15.4214 8.4066 15.3204 8.4046 15.2194 8.4046ZM14.5434 37.9996C13.9564 37.9996 13.3724 37.9156 12.7984 37.7466C8.83543 36.5826 4.81843 33.8036 3.68143 32.9806C2.11943 31.8486 1.07043 30.1776 0.724432 28.2746C0.0244322 24.4116 -0.0255677 19.8196 0.00743225 17.4256L1.16543 17.4416L0.00743225 17.4256C0.0284323 15.9016 0.682432 14.4366 1.80043 13.4076C2.97143 12.3306 4.76243 10.7946 6.64443 9.5916C8.42243 8.4546 10.2354 7.5246 11.4424 6.9446C12.7374 6.3226 14.1864 6.0296 15.6314 6.0976C26.2284 6.5976 34.3044 10.4466 37.2854 12.0776C38.3724 12.6726 39.0964 13.7676 39.2224 15.0056C39.8294 20.9726 38.4514 27.8836 37.8304 30.5766C37.5794 31.6666 36.8214 32.5916 35.8014 33.0516C30.0434 35.6466 18.7644 37.4446 15.4444 37.9336C15.1444 37.9776 14.8434 37.9996 14.5434 37.9996Z" fill="#28313B"/>
</g>
<path fill-rule="evenodd" clip-rule="evenodd" d="M19.529 21.5711C19.679 24.7231 20.324 27.2791 21.248 27.2711C22.172 27.2641 22.69 24.6951 22.875 21.5451C23.062 18.3641 22.624 15.8331 21.157 15.8441C19.69 15.8561 19.375 18.3361 19.529 21.5711Z" fill="#2FA9E0"/>
<path fill-rule="evenodd" clip-rule="evenodd" d="M29.5018 22.1532C29.3928 24.5702 29.7028 26.5672 30.4078 26.6272C31.1138 26.6872 31.6918 24.7622 32.0578 22.3702C32.4258 19.9562 32.2718 17.9922 31.1498 17.8972C30.0298 17.8022 29.6128 19.6732 29.5018 22.1532Z" fill="#2FA9E0"/>
<path fill-rule="evenodd" clip-rule="evenodd" d="M9.38944 21.5408C9.43444 24.0708 8.18044 26.1448 6.58844 26.1728C4.99744 26.2008 3.67044 24.1728 3.62544 21.6438C3.58044 19.1138 4.83444 17.0398 6.42644 17.0118C8.01844 16.9838 9.34444 19.0108 9.38944 21.5408Z" fill="#28313C"/>
<path fill-rule="evenodd" clip-rule="evenodd" d="M21.7447 2.1102C21.7447 0.9442 20.7997 0.0002 19.6347 0.0002C18.4687 0.0002 17.5237 0.9442 17.5237 2.1102C17.5237 3.2762 18.4687 4.2202 19.6347 4.2202C20.7997 4.2202 21.7447 3.2762 21.7447 2.1102Z" fill="#28313B"/>
<path fill-rule="evenodd" clip-rule="evenodd" d="M20.9724 7.2791H18.2964L19.0684 3.9331H20.2014L20.9724 7.2791Z" fill="#28313B"/>
</svg>
