<svg width="42" height="46" viewBox="0 0 42 46" fill="none" xmlns="http://www.w3.org/2000/svg">
<mask id="mask0" mask-type="alpha" maskUnits="userSpaceOnUse" x="0" y="7" width="42" height="39">
<path fill-rule="evenodd" clip-rule="evenodd" d="M0.00012207 7.02632H41.307V45.9733H0.00012207V7.02632Z" fill="white"/>
</mask>
<g mask="url(#mask0)">
<path fill-rule="evenodd" clip-rule="evenodd" d="M20.6042 10.7357C20.5462 10.7357 20.4992 10.7824 20.4992 10.8379C20.4992 10.9041 20.5752 10.9275 20.5792 10.9285L20.6042 10.9353L20.6292 10.9285C20.6332 10.9275 20.7092 10.9041 20.7092 10.8379C20.7092 10.7824 20.6622 10.7357 20.6042 10.7357ZM16.3992 16.3811C15.4382 16.3811 14.4862 16.5904 13.6272 16.9926C12.5232 17.5086 10.8702 18.3343 9.25821 19.3382C7.58221 20.381 5.96821 21.7305 4.90921 22.6789C4.22821 23.2903 3.82921 24.1598 3.81621 25.0654C3.78621 27.2192 3.83121 31.3427 4.46921 34.7701C4.71021 36.0612 5.44121 37.1955 6.52921 37.9628C7.25421 38.474 11.0542 41.0805 14.6312 42.1048C15.1902 42.2655 15.7822 42.3035 16.3312 42.2236C19.4362 41.7787 29.9592 40.1468 35.2192 37.8391C35.6502 37.6502 35.9722 37.2686 36.0782 36.8187C36.6482 34.4108 37.9142 28.2415 37.3652 22.9836C37.3092 22.4423 36.9852 21.9661 36.5002 21.7091C34.4622 20.6205 28.9152 17.9731 21.4462 16.8572L20.4352 16.7073L19.3382 16.5943C18.3352 16.4892 17.4982 16.4249 16.7032 16.3889C16.6012 16.384 16.5002 16.3811 16.3992 16.3811ZM15.7562 45.9733C15.0142 45.9733 14.2732 45.8691 13.5562 45.6636C9.48421 44.4991 5.43721 41.7738 4.29321 40.9656C2.40621 39.6336 1.13721 37.6687 0.721212 35.4312C0.0252119 31.6981 -0.0247881 27.3029 0.0072119 25.0147C0.0342119 23.0927 0.881212 21.2475 2.33021 19.9487C3.50121 18.901 5.29721 17.4005 7.20721 16.2126C8.97921 15.1085 10.7792 14.2088 11.9772 13.6489C13.4952 12.9391 15.1982 12.6032 16.8822 12.683C16.9803 12.6868 17.0784 12.6924 17.1774 12.6981L17.1775 12.6981L17.1862 12.6986L23.4742 13.4289C30.8102 14.7394 36.2492 17.345 38.3302 18.455C39.9152 19.2992 40.9712 20.8522 41.1552 22.6088C41.7622 28.4158 40.4032 35.0641 39.7902 37.6532C39.4182 39.2257 38.2932 40.5596 36.7832 41.2217C31.0762 43.726 20.1142 45.43 16.8912 45.8915C16.5222 45.946 16.1392 45.9733 15.7562 45.9733Z" fill="white"/>
</g>
<path fill-rule="evenodd" clip-rule="evenodd" d="M16.5592 42.9794C19.9002 42.4974 30.2572 40.8724 35.5442 38.553C36.2092 38.2609 36.6962 37.6845 36.8602 36.9922C37.4382 34.5463 38.7232 28.2816 38.1632 22.9089C38.0802 22.1124 37.6032 21.4065 36.8832 21.0209C34.2182 19.6013 26.9682 16.2216 17.4132 15.6442C15.9502 15.5556 14.4942 15.9051 13.2422 16.649C11.3422 17.7766 8.2012 19.8203 4.4542 22.9439C3.6442 23.6187 3.1482 24.5816 3.0632 25.6167C2.8562 28.1414 3.3992 32.449 4.5672 37.2327C4.7672 38.0506 5.3552 38.7264 6.1552 39.0438C8.2992 39.8938 10.7102 42.0018 14.4502 42.8889C15.1402 43.0524 15.8562 43.0807 16.5592 42.9794Z" fill="white"/>
<path fill-rule="evenodd" clip-rule="evenodd" d="M13.4689 18.7219C13.7189 18.6138 13.9799 18.8524 13.8839 19.1026C13.2759 20.6819 11.9459 24.9817 12.4049 31.4577C12.7159 35.8627 13.4419 38.4945 14.0539 39.9959C14.4919 41.068 15.5609 41.7681 16.7459 41.7681H21.0809L15.6389 43.0377C15.6389 43.0377 6.05392 40.3844 5.61492 39.2628C4.86992 35.4177 4.80192 30.264 5.03992 26.3761C5.15892 24.4189 5.07692 23.8805 7.59492 22.0636C9.76092 20.4989 12.2719 19.2419 13.4689 18.7219Z" fill="#D5E4EC"/>
<path fill-rule="evenodd" clip-rule="evenodd" d="M38.1628 30.7275L12.5098 28.3849L2.9228 30.3468L2.6958 29.2953L12.4458 27.2992L38.2658 29.6584L38.1628 30.7275Z" fill="#89A1B1"/>
<path fill-rule="evenodd" clip-rule="evenodd" d="M15.4426 18.8065C14.5606 21.4238 12.3166 29.6836 15.3216 38.9297C15.5586 39.657 16.2916 40.1195 17.0696 40.0309C20.5456 39.6375 30.0296 38.4545 34.5046 36.807C34.6856 36.7408 34.8176 36.5909 34.8596 36.4068C35.2126 34.8353 36.8246 27.2825 36.1736 23.3643C36.1146 23.0099 35.8856 22.7071 35.5536 22.5533C33.7216 21.6984 26.9656 18.8533 16.6686 18.0149C16.1216 17.9701 15.6136 18.2983 15.4426 18.8065Z" fill="#343A4C"/>
<path fill-rule="evenodd" clip-rule="evenodd" d="M16.3996 16.6747C15.4836 16.6747 14.5756 16.8734 13.7576 17.257C12.6626 17.7682 11.0216 18.588 9.42062 19.5841C7.76362 20.6162 6.16362 21.9541 5.11362 22.8956C4.49262 23.4506 4.12862 24.2432 4.11762 25.0689C4.08762 27.211 4.13162 31.3131 4.76562 34.7171C4.99262 35.9342 5.68162 37.0023 6.70562 37.7248C8.78762 39.1941 11.9856 41.0422 14.7156 41.8231C15.2336 41.9711 15.7646 42.009 16.2926 41.9321C19.3826 41.4891 29.8716 39.864 35.0946 37.572C35.4416 37.4201 35.6996 37.1134 35.7846 36.7531C36.3516 34.3588 37.6096 28.2275 37.0656 23.0134C37.0186 22.5694 36.7536 22.177 36.3556 21.9657C33.6506 20.5237 26.3206 17.1236 16.6886 16.6816C16.5926 16.6767 16.4956 16.6747 16.3996 16.6747ZM15.7556 44.12C15.1966 44.12 14.6406 44.0401 14.0946 43.8844C10.3196 42.8045 6.49362 40.2282 5.41162 39.4638C3.92362 38.4152 2.92362 36.8651 2.59562 35.1007C1.92762 31.5186 1.88062 27.2597 1.91162 25.0397L3.01462 25.0543L1.91162 25.0397C1.93162 23.6269 2.55462 22.2686 3.61962 21.3144C4.73462 20.3154 6.44062 18.8899 8.23262 17.775C9.92562 16.7205 11.6526 15.8578 12.8026 15.3204C14.0356 14.7439 15.4156 14.4723 16.7926 14.5356C26.8836 14.999 34.5766 18.5676 37.4146 20.0807C38.4496 20.6318 39.1396 21.6474 39.2596 22.7963C39.8376 28.3297 38.5256 34.7376 37.9346 37.2351C37.6956 38.2457 36.9726 39.1036 36.0016 39.53C30.5176 41.937 19.7756 43.6039 16.6136 44.0577C16.3276 44.0986 16.0416 44.12 15.7556 44.12Z" fill="#28313B"/>
<path fill-rule="evenodd" clip-rule="evenodd" d="M20.5041 28.8847C20.6481 31.8068 21.2611 34.1777 22.1411 34.1699C23.0211 34.1631 23.5141 31.7815 23.6911 28.8604C23.8691 25.9101 23.4511 23.5626 22.0541 23.5743C20.6571 23.585 20.3571 25.8839 20.5041 28.8847Z" fill="#2FA9E0"/>
<path fill-rule="evenodd" clip-rule="evenodd" d="M30.0011 29.4239C29.8971 31.6653 30.1931 33.5172 30.8651 33.5727C31.5371 33.6282 32.0881 31.8435 32.4361 29.6254C32.7871 27.3869 32.6391 25.5652 31.5721 25.4766C30.5041 25.3889 30.1071 27.124 30.0011 29.4239Z" fill="#2FA9E0"/>
<path fill-rule="evenodd" clip-rule="evenodd" d="M10.8473 28.8562C10.8903 31.2018 9.69631 33.1249 8.18031 33.1511C6.66431 33.1765 5.40031 31.2972 5.35731 28.9516C5.31531 26.6051 6.50931 24.683 8.02531 24.6567C9.54131 24.6295 10.8043 26.5106 10.8473 28.8562Z" fill="#29313C"/>
<path fill-rule="evenodd" clip-rule="evenodd" d="M21.8791 15.6307H19.3301L20.0651 12.5275H21.1441L21.8791 15.6307Z" fill="#28313B"/>
<path d="M23.5 6.5L23.5 14.5L7.49999 16.5C7.49999 15.7 6.16665 11.8333 5.49999 10C2.99999 8.5 3.99998 5.5 5.99999 5C7.99999 4.5 9.49999 5.5 9.49999 8L11.5 9.5L12 5.5C9.99999 5 9.99998 0.5 13.5 0.5C17 0.5 17 4 16 5C16 5.8 17 7.66667 17.5 8.5L19 6C17.5 4.5 19.5 1.16667 22 2C24.5 2.83333 24.5 5.5 23.5 6.5Z" fill="white"/>
<path d="M21.0674 16.0292C18.4361 18.3369 9.98536 18.0996 9.98536 18.0996C9.98536 18.0996 8.92678 14.5425 8.79875 13.0216C8.71331 12.0066 7.84652 10.093 7.27933 8.93222C7.03408 8.57039 6.86023 8.23807 6.78837 7.96216C6.78837 7.96216 6.99664 8.35367 7.27933 8.93222C8.36686 10.5367 10.8584 12.7214 12.0869 13.1417C13.5924 13.6567 13.45 6.53685 13.9103 3.75633C14.5845 6.40209 16.0446 12.6645 16.9965 12.4523C17.9483 12.2401 20.0047 7.77609 20.3941 5.889C20.3941 5.889 20.8816 11.3354 20.9356 12.5809C20.9895 13.8264 21.0674 16.0292 21.0674 16.0292Z" fill="#FFDB31"/>
<path d="M10.1154 18.3154L9.62703 15.6455L7.14151 8.5705C7.53202 10.0699 11.0422 12.0346 12.5477 12.5496C14.0533 13.0646 13.5289 7.57804 13.9893 4.79751C14.6634 7.44327 16.2413 12.1067 17.1932 11.8945C18.145 11.6823 20.8424 7.55618 21.2319 5.66908L21.2706 13.4241C21.2706 13.4241 21.2702 13.5846 21.6618 16.1297C19.8899 17.2624 17.8735 17.8896 15.9844 18.2075C13.5521 18.6167 11.3311 18.5131 10.1154 18.3154Z" stroke="#28313B" stroke-width="2"/>
<path d="M15.4194 4.13667C15.0223 5.07341 13.9411 5.51092 13.0043 5.11386C12.0676 4.71679 11.6301 3.63553 12.0272 2.69879C12.4242 1.76204 13.5055 1.32454 14.4422 1.7216C15.379 2.11866 15.8165 3.19993 15.4194 4.13667Z" fill="#28313B"/>
<circle cx="21.277" cy="4.83208" r="1.55879" transform="rotate(22.9708 21.277 4.83208)" fill="#28313B"/>
<circle cx="6.81351" cy="7.51369" r="1.55879" transform="rotate(22.9708 6.81351 7.51369)" fill="#28313B"/>
<path d="M14.2711 14.5992L15.0833 12.6699L16.4206 14.2653L15.6822 16.0192L14.2711 14.5992Z" fill="#94EDB8" stroke="#28313B"/>
<path d="M19.76 13.5698L19.2455 14.7781L18.5712 13.5238L19.4589 12.3208L19.76 13.5698Z" fill="#97E2FC" stroke="#28313B" stroke-width="0.5"/>
<path d="M11.0657 15.2333L11.0256 13.9206L12.164 14.7761L11.8632 16.2406L11.0657 15.2333Z" fill="#97E2FC" stroke="#28313B" stroke-width="0.5"/>
</svg>
