<svg width="198" height="44" viewBox="0 0 198 44" fill="none" xmlns="http://www.w3.org/2000/svg">
<path fill-rule="evenodd" clip-rule="evenodd" d="M56.4032 21.1203C55.9773 20.6058 55.4544 20.2099 54.8324 19.9332C54.2079 19.657 53.4869 19.5167 52.6697 19.5143C51.8521 19.5119 51.091 19.6656 50.3954 19.975C49.6938 20.2844 49.0894 20.7177 48.5742 21.275C48.061 21.8317 47.66 22.4952 47.3697 23.2638C47.0775 24.0324 46.9316 24.8659 46.9287 25.7633C46.9263 26.6799 47.0677 27.5182 47.3551 28.2792C47.64 29.0401 48.0342 29.7007 48.5342 30.2613C49.0347 30.8214 49.6221 31.2586 50.3036 31.5723C50.9798 31.8855 51.7082 32.0436 52.4912 32.0455C53.3834 32.0484 54.1762 31.8682 54.865 31.5031C55.5534 31.1385 56.1232 30.6273 56.572 29.9692L60.1919 32.6455C59.3518 33.7975 58.2888 34.6464 57.0028 35.1921C55.7173 35.7378 54.3943 36.0088 53.0366 36.0044C51.493 36.0006 50.0709 35.758 48.7698 35.2776C47.4668 34.7977 46.3443 34.1117 45.3978 33.2201C44.4538 32.3284 43.7152 31.2495 43.1903 29.9841C42.6649 28.7182 42.4024 27.3078 42.4078 25.7499C42.4122 24.1929 42.6825 22.7824 43.2176 21.52C43.7499 20.2575 44.4934 19.1838 45.4447 18.297C46.396 17.4116 47.5239 16.7328 48.8294 16.2606C50.1324 15.7883 51.5569 15.5539 53.1005 15.5582C53.6581 15.5601 54.2401 15.6125 54.845 15.7153C55.4495 15.8181 56.0442 15.98 56.6286 16.202C57.216 16.4229 57.7755 16.7179 58.3136 17.0859C58.8532 17.4544 59.3342 17.9045 59.7606 18.4368L56.4032 21.1203Z" fill="#2CABE3"/>
<path fill-rule="evenodd" clip-rule="evenodd" d="M64.7133 25.7469C64.7104 26.6635 64.8519 27.5023 65.1392 28.2628C65.4241 29.0247 65.8359 29.6852 66.373 30.2454C66.9111 30.806 67.5575 31.2432 68.3107 31.5569C69.0615 31.8711 69.9016 32.0286 70.8329 32.0315C71.7618 32.0344 72.6068 31.8816 73.36 31.5722C74.1157 31.2633 74.7626 30.8295 75.305 30.2723C75.8446 29.7155 76.2612 29.0574 76.5539 28.2983C76.8432 27.5383 76.9896 26.701 76.992 25.7844C76.995 24.887 76.8535 24.0531 76.5686 23.2825C76.2812 22.5124 75.8695 21.8466 75.3324 21.286C74.7943 20.7263 74.1503 20.2891 73.3971 19.9745C72.6438 19.6613 71.8013 19.5027 70.8724 19.4994C69.9411 19.497 69.0986 19.6512 68.3454 19.9596C67.5921 20.269 66.9428 20.7023 66.4003 21.2591C65.8608 21.8163 65.4441 22.4798 65.1539 23.2474C64.8621 24.0165 64.7158 24.85 64.7133 25.7469ZM60.1915 25.734C60.1964 24.1765 60.4666 22.7665 61.0018 21.5045C61.534 20.2411 62.278 19.1679 63.2293 18.2816C64.1806 17.3957 65.308 16.7169 66.6135 16.2442C67.9166 15.772 69.3411 15.538 70.8846 15.5423C72.4282 15.5471 73.8503 15.7897 75.1514 16.2696C76.4544 16.7505 77.577 17.4361 78.5234 18.3272C79.4698 19.2193 80.2055 20.2973 80.7309 21.5636C81.2558 22.8295 81.5188 24.2404 81.5139 25.7974C81.509 27.3558 81.2388 28.7648 80.7036 30.0278C80.1713 31.2898 79.4274 32.3639 78.4761 33.2498C77.5248 34.1356 76.3973 34.8149 75.0919 35.2872C73.7888 35.7594 72.3643 35.9933 70.8207 35.9885C69.2767 35.9847 67.8546 35.7416 66.554 35.2617C65.251 34.7818 64.1284 34.0953 63.182 33.2042C62.238 32.3125 61.4999 31.2336 60.9745 29.9687C60.4495 28.7019 60.1866 27.2914 60.1915 25.734Z" fill="#2CABE3"/>
<path fill-rule="evenodd" clip-rule="evenodd" d="M87.4426 31.6641L89.7024 31.6713C90.7078 31.6742 91.642 31.5762 92.507 31.3769C93.3739 31.178 94.1247 30.8465 94.7589 30.381C95.3907 29.9155 95.8912 29.3039 96.2551 28.544C96.622 27.7854 96.8054 26.8554 96.8079 25.7562C96.8128 24.8041 96.6347 23.9739 96.2732 23.2673C95.9107 22.5616 95.4253 21.9779 94.8136 21.5181C94.2013 21.0589 93.4807 20.7135 92.6534 20.4819C91.8255 20.2494 90.9556 20.1322 90.0443 20.1298L87.4773 20.1221L87.4426 31.6641ZM83.1369 16.1516L89.6677 16.1713C91.2484 16.1761 92.75 16.3548 94.172 16.707C95.5941 17.0596 96.8352 17.6264 97.8933 18.408C98.951 19.1906 99.7886 20.2052 100.408 21.4528C101.027 22.7009 101.335 24.2127 101.33 25.9892C101.324 27.5659 101.018 28.9523 100.41 30.1509C99.8008 31.349 98.9832 32.3545 97.9577 33.1659C96.9318 33.9782 95.7497 34.5936 94.4072 35.0106C93.0666 35.4281 91.662 35.6346 90.1931 35.6303L83.0774 35.6087L83.1369 16.1516Z" fill="#2CABE3"/>
<path fill-rule="evenodd" clip-rule="evenodd" d="M102.952 16.2L116.376 16.2398L116.363 20.1973L107.296 20.17L107.283 23.7974L115.851 23.8239L115.841 27.7809L107.273 27.755L107.261 31.7125L116.832 31.7418L116.819 35.6988L102.893 35.6566L102.952 16.2Z" fill="#2CABE3"/>
<path fill-rule="evenodd" clip-rule="evenodd" d="M132.35 21.0466C131.925 20.5336 131.403 20.1392 130.783 19.8634C130.161 19.5877 129.443 19.4479 128.627 19.4455C127.811 19.4431 127.054 19.5958 126.359 19.9047C125.661 20.2131 125.057 20.6455 124.544 21.2008C124.033 21.7567 123.631 22.4177 123.342 23.1834C123.052 23.9506 122.905 24.7812 122.902 25.6762C122.9 26.5899 123.042 27.4258 123.327 28.1844C123.612 28.9434 124.004 29.6025 124.503 30.1612C125.002 30.7194 125.589 31.1552 126.267 31.4679C126.943 31.7806 127.669 31.9382 128.448 31.9401C129.339 31.943 130.128 31.7629 130.816 31.3992C131.503 31.0355 132.071 30.5258 132.518 29.8696L136.128 32.5382C135.288 33.6869 134.229 34.5328 132.948 35.0771C131.665 35.6209 130.347 35.8914 128.993 35.8876C127.453 35.8832 126.035 35.6411 124.738 35.1626C123.44 34.6842 122.32 33.9996 121.377 33.1104C120.434 32.2221 119.7 31.146 119.175 29.884C118.651 28.6225 118.391 27.2159 118.396 25.6623C118.4 24.1101 118.668 22.704 119.202 21.4449C119.734 20.1862 120.475 19.1154 121.424 18.232C122.373 17.3495 123.497 16.6726 124.797 16.2009C126.097 15.7305 127.517 15.4966 129.057 15.5009C129.613 15.5028 130.192 15.5552 130.795 15.657C131.398 15.7598 131.991 15.9213 132.574 16.1427C133.159 16.3627 133.719 16.6568 134.255 17.0238C134.792 17.3918 135.272 17.84 135.697 18.3708L132.35 21.0466Z" fill="white"/>
<path fill-rule="evenodd" clip-rule="evenodd" d="M137.75 16.0226L142.09 16.0361L142.068 23.2699L150.499 23.2954L150.522 16.061L154.863 16.0745L154.804 35.4744L150.463 35.461L150.488 27.0766L142.057 27.0516L142.031 35.436L137.691 35.423L137.75 16.0226Z" fill="white"/>
<path fill-rule="evenodd" clip-rule="evenodd" d="M173.559 28.056C173.557 29.2071 173.377 30.2658 173.02 31.2324C172.666 32.1999 172.14 33.0387 171.441 33.7487C170.743 34.4592 169.875 35.0136 168.835 35.4123C167.795 35.8111 166.597 36.0085 165.243 36.0047C163.869 36.0004 162.665 35.7952 161.628 35.3912C160.59 34.9862 159.725 34.4261 159.031 33.7113C158.339 32.9969 157.816 32.1557 157.466 31.1858C157.118 30.2164 156.945 29.1571 156.947 28.0061L156.984 16.0864L161.325 16.0994L161.289 27.8543C161.287 28.4576 161.383 29.0144 161.577 29.527C161.77 30.0386 162.041 30.4835 162.393 30.8577C162.744 31.2338 163.165 31.5279 163.657 31.7392C164.147 31.9501 164.68 32.0573 165.255 32.0592C165.83 32.0611 166.359 31.9568 166.842 31.7488C167.326 31.5403 167.743 31.2487 168.098 30.8755C168.45 30.5022 168.726 30.0602 168.923 29.5491C169.119 29.0384 169.218 28.4812 169.22 27.8783L169.256 16.1229L173.596 16.1364L173.559 28.056Z" fill="white"/>
<mask id="mask0" mask-type="alpha" maskUnits="userSpaceOnUse" x="175" y="16" width="23" height="20">
<path fill-rule="evenodd" clip-rule="evenodd" d="M175.681 16.1479H198V35.615H175.681V16.1479Z" fill="white"/>
</mask>
<g mask="url(#mask0)">
<path fill-rule="evenodd" clip-rule="evenodd" d="M175.74 16.1479L182.307 16.168L186.805 28.8409L186.86 28.8414L191.462 16.1959L198 16.2156L197.941 35.615L193.6 35.6021L193.646 20.7236H193.59L188.37 35.5862L185.058 35.5761L180.122 20.6828H180.067L180.021 35.5612L175.681 35.5482L175.74 16.1479Z" fill="white"/>
</g>
<mask id="mask1" mask-type="alpha" maskUnits="userSpaceOnUse" x="0" y="6" width="38" height="34">
<path fill-rule="evenodd" clip-rule="evenodd" d="M0.100098 6.1579H37.2763V39.8418H0.100098V6.1579Z" fill="white"/>
</mask>
<g mask="url(#mask1)">
<path fill-rule="evenodd" clip-rule="evenodd" d="M18.6438 9.36597C18.5916 9.36597 18.5493 9.40639 18.5493 9.45439C18.5493 9.51165 18.6177 9.53186 18.6213 9.5327L18.6438 9.5386L18.6663 9.5327C18.6699 9.53186 18.7383 9.51165 18.7383 9.45439C18.7383 9.40639 18.696 9.36597 18.6438 9.36597ZM14.8593 14.2485C13.9944 14.2485 13.1376 14.4295 12.3645 14.7773C11.3709 15.2237 9.88317 15.9378 8.43237 16.806C6.92397 17.7079 5.47137 18.875 4.51827 19.6952C3.90537 20.2241 3.54627 20.9761 3.53457 21.7592C3.50757 23.622 3.54807 27.1883 4.12227 30.1525C4.33917 31.2691 4.99707 32.2502 5.97627 32.9138C6.62877 33.3559 10.0488 35.6102 13.2681 36.4961C13.7712 36.635 14.304 36.6679 14.7981 36.5988C17.5926 36.214 27.0633 34.8026 31.7973 32.8068C32.1852 32.6434 32.475 32.3133 32.5704 31.9243C33.0834 29.8418 34.2228 24.5062 33.7287 19.9588C33.6783 19.4906 33.3867 19.0788 32.9502 18.8565C31.116 17.915 26.1237 15.6253 19.4016 14.6603L18.4917 14.5306L17.5044 14.4329C16.6017 14.342 15.8484 14.2864 15.1329 14.2552C15.0411 14.251 14.9502 14.2485 14.8593 14.2485ZM14.2806 39.8417C13.6128 39.8417 12.9459 39.7516 12.3006 39.574C8.63578 38.5668 4.99348 36.2097 3.96388 35.5108C2.26558 34.3588 1.12348 32.6594 0.749078 30.7243C0.122679 27.4956 0.0776785 23.6944 0.106479 21.7154C0.130779 20.0531 0.893078 18.4573 2.19718 17.334C3.25108 16.4279 4.86748 15.1302 6.58648 14.1028C8.18128 13.1479 9.80128 12.3697 10.8795 11.8855C12.2457 11.2716 13.7784 10.9811 15.294 11.0502C15.3823 11.0534 15.4706 11.0583 15.5597 11.0632L15.5676 11.0636L21.2268 11.6952C27.8292 12.8287 32.7243 15.0822 34.5972 16.0422C36.0237 16.7723 36.9741 18.1154 37.1397 19.6346C37.686 24.6569 36.4629 30.4068 35.9112 32.646C35.5764 34.006 34.5639 35.1596 33.2049 35.7323C28.0686 37.8982 18.2028 39.3719 15.3021 39.771C14.97 39.8182 14.6253 39.8417 14.2806 39.8417Z" fill="white"/>
</g>
<path fill-rule="evenodd" clip-rule="evenodd" d="M15.0033 37.2525C18.0102 36.8356 27.3315 35.4302 32.0898 33.4243C32.6883 33.1716 33.1266 32.6731 33.2742 32.0744C33.7944 29.959 34.9509 24.5409 34.4469 19.8942C34.3722 19.2053 33.9429 18.5948 33.2949 18.2613C30.8964 17.0335 24.3714 14.1106 15.7719 13.6112C14.4552 13.5346 13.1448 13.8369 12.018 14.4803C10.308 15.4554 7.48107 17.223 4.10877 19.9245C3.37977 20.5081 2.93337 21.3409 2.85687 22.2361C2.67057 24.4196 3.15927 28.1451 4.21047 32.2824C4.39047 32.9897 4.91967 33.5742 5.63967 33.8487C7.56927 34.5838 9.73917 36.407 13.1052 37.1742C13.7262 37.3156 14.3706 37.3401 15.0033 37.2525Z" fill="white"/>
<path fill-rule="evenodd" clip-rule="evenodd" d="M12.222 16.273C12.447 16.1795 12.6819 16.3859 12.5955 16.6023C12.0483 17.9682 10.8513 21.6869 11.2644 27.2877C11.5443 31.0974 12.1977 33.3736 12.7485 34.6722C13.1427 35.5993 14.1048 36.2048 15.1713 36.2048H19.0728L14.175 37.3029C14.175 37.3029 5.5485 35.0082 5.1534 34.0381C4.4829 30.7126 4.4217 26.2553 4.6359 22.8928C4.743 21.2002 4.6692 20.7345 6.9354 19.1631C8.8848 17.8099 11.1447 16.7227 12.222 16.273Z" fill="#D5E4EC"/>
<path fill-rule="evenodd" clip-rule="evenodd" d="M34.4465 26.6562L11.3588 24.6301L2.73051 26.327L2.52621 25.4175L11.3012 23.6912L34.5392 25.7316L34.4465 26.6562Z" fill="#89A1B1"/>
<path fill-rule="evenodd" clip-rule="evenodd" d="M13.9983 16.3462C13.2045 18.6098 11.1849 25.7534 13.8894 33.75C14.1027 34.3791 14.7624 34.7791 15.4626 34.7024C18.591 34.3622 27.1266 33.3391 31.1541 31.9142C31.317 31.8569 31.4358 31.7273 31.4736 31.5681C31.7913 30.2089 33.2421 23.6767 32.6562 20.2881C32.6031 19.9816 32.397 19.7197 32.0982 19.5866C30.4494 18.8473 24.369 16.3866 15.1017 15.6616C14.6094 15.6228 14.1522 15.9066 13.9983 16.3462Z" fill="#343A4C"/>
<path fill-rule="evenodd" clip-rule="evenodd" d="M14.8596 14.5025C14.0352 14.5025 13.218 14.6743 12.4818 15.0061C11.4963 15.4482 10.0194 16.1572 8.57854 17.0187C7.08724 17.9113 5.64724 19.0684 4.70224 19.8827C4.14334 20.3627 3.81574 21.0482 3.80584 21.7623C3.77884 23.6149 3.81844 27.1627 4.38904 30.1067C4.59334 31.1593 5.21344 32.0831 6.13504 32.7079C8.00884 33.9787 10.887 35.577 13.344 36.2524C13.8102 36.3804 14.2881 36.4132 14.7633 36.3467C17.5443 35.9635 26.9844 34.5581 31.6851 32.5757C31.9974 32.4444 32.2296 32.1791 32.3061 31.8675C32.8164 29.7968 33.9486 24.4941 33.459 19.9846C33.4167 19.6006 33.1782 19.2612 32.82 19.0785C30.3855 17.8313 23.7885 14.8907 15.1197 14.5084C15.0333 14.5042 14.946 14.5025 14.8596 14.5025ZM14.28 38.2389C13.7769 38.2389 13.2765 38.1698 12.7851 38.0351C9.38764 37.1012 5.94424 34.873 4.97044 34.212C3.63124 33.305 2.73124 31.9644 2.43604 30.4385C1.83484 27.3404 1.79254 23.657 1.82044 21.737L2.81314 21.7496L1.82044 21.737C1.83844 20.5151 2.39914 19.3404 3.35764 18.5151C4.36114 17.6511 5.89654 16.4183 7.50934 15.4541C9.03304 14.5421 10.5873 13.796 11.6223 13.3311C12.732 12.8326 13.974 12.5976 15.2133 12.6524C24.2952 13.0532 31.2189 16.1395 33.7731 17.4482C34.7046 17.9248 35.3256 18.8031 35.4336 19.7968C35.9538 24.5825 34.773 30.1244 34.2411 32.2844C34.026 33.1585 33.3753 33.9004 32.5014 34.2692C27.5658 36.3509 17.898 37.7926 15.0522 38.185C14.7948 38.2204 14.5374 38.2389 14.28 38.2389Z" fill="#28313B"/>
<path fill-rule="evenodd" clip-rule="evenodd" d="M18.5537 25.0625C18.6833 27.5896 19.235 29.6402 20.027 29.6334C20.819 29.6275 21.2627 27.5678 21.422 25.0414C21.5822 22.4899 21.206 20.4595 19.9487 20.4696C18.6914 20.4789 18.4214 22.4671 18.5537 25.0625Z" fill="#2FA9E0"/>
<path fill-rule="evenodd" clip-rule="evenodd" d="M27.101 25.5288C27.0074 27.4673 27.2738 29.069 27.8786 29.117C28.4834 29.165 28.9793 27.6214 29.2925 25.7031C29.6084 23.7671 29.4752 22.1915 28.5149 22.1149C27.5537 22.0391 27.1964 23.5397 27.101 25.5288Z" fill="#2FA9E0"/>
<path fill-rule="evenodd" clip-rule="evenodd" d="M9.86258 25.0378C9.90128 27.0664 8.82668 28.7296 7.46228 28.7523C6.09788 28.7742 4.96028 27.149 4.92158 25.1203C4.88378 23.0909 5.95838 21.4285 7.32278 21.4058C8.68718 21.3822 9.82388 23.0092 9.86258 25.0378Z" fill="#29313C"/>
<path fill-rule="evenodd" clip-rule="evenodd" d="M19.7912 13.5995H17.4971L18.1586 10.9157H19.1297L19.7912 13.5995Z" fill="#28313B"/>
<path d="M21.25 5.70271L21.25 12.6216L6.84999 14.3514C6.84999 13.6595 5.64999 10.3153 5.04999 8.72974C2.79999 7.43244 3.69999 4.83784 5.49999 4.40541C7.3 3.97298 8.64999 4.83784 8.64999 7.00001L10.45 8.2973L10.9 4.83784C9.09999 4.40541 9.09998 0.513519 12.25 0.513519C15.4 0.513519 15.4 3.54055 14.5 4.40541C14.5 5.0973 15.4 6.71172 15.85 7.43244L17.2 5.27028C15.85 3.97298 17.65 1.0901 19.9 1.81082C22.15 2.53154 22.15 4.83784 21.25 5.70271Z" fill="white"/>
<path d="M18.9972 13.9017C16.617 15.9288 9.04152 15.795 9.04152 15.795C9.04152 15.795 8.12433 12.7142 8.02321 11.3942C7.95573 10.5133 7.19573 8.8584 6.69759 7.85496C6.48093 7.54276 6.32804 7.25558 6.26608 7.01652C6.26608 7.01652 6.44931 7.35483 6.69759 7.85496C7.65832 9.23937 9.87277 11.1158 10.9705 11.4703C12.3159 11.9048 12.2522 5.7214 12.69 3.30217C13.2708 5.59463 14.5237 11.0219 15.3791 10.8295C16.2345 10.637 18.1186 6.74173 18.4848 5.09918C18.4848 5.09918 18.8729 9.82597 18.91 10.9074C18.9472 11.9889 18.9972 13.9017 18.9972 13.9017Z" fill="#FFDB31"/>
<path d="M9.1596 15.9849L8.74584 13.6704L6.58131 7.54754C6.9179 8.84636 10.047 10.5225 11.392 10.9569C12.737 11.3912 12.3164 6.63098 12.7541 4.21234C13.3346 6.50424 14.7072 10.5406 15.5624 10.3482C16.4176 10.1557 18.8729 6.54939 19.239 4.90725L19.2039 11.6416C19.2039 11.6416 19.2021 11.7811 19.5303 13.9879C17.9316 14.9868 16.1183 15.5487 14.422 15.8409C12.2378 16.2171 10.2477 16.1461 9.1596 15.9849Z" stroke="#28313B" stroke-width="1.5"/>
<path d="M13.9648 3.64671C13.6005 4.46351 12.6274 4.85266 11.7913 4.5159C10.9552 4.17914 10.5728 3.24399 10.9371 2.42719C11.3014 1.61039 12.2746 1.22125 13.1107 1.55801C13.9467 1.89477 14.3292 2.82991 13.9648 3.64671Z" fill="#28313B"/>
<ellipse rx="1.38082" ry="1.3701" transform="matrix(0.927688 0.373657 -0.407414 0.913374 19.2493 4.2602)" fill="#28313B"/>
<ellipse rx="1.38082" ry="1.3701" transform="matrix(0.927688 0.373656 -0.407414 0.913373 6.23215 6.57941)" fill="#28313B"/>
<path d="M12.9485 12.7173L13.6918 11.0388L14.8729 12.4096L14.1971 13.9355L12.9485 12.7173Z" fill="#94EDB8" stroke="#28313B" stroke-width="0.8"/>
<path d="M17.8843 11.8136L17.4097 12.8622L16.8134 11.784L17.6242 10.7369L17.8843 11.8136Z" fill="#97E2FC" stroke="#28313B" stroke-width="0.5"/>
<path d="M10.0588 13.2596L10.0347 12.1205L11.0484 12.8534L10.7653 14.127L10.0588 13.2596Z" fill="#97E2FC" stroke="#28313B" stroke-width="0.5"/>
</svg>
