<svg width="40" height="44" viewBox="0 0 40 44" fill="none" xmlns="http://www.w3.org/2000/svg">
<path fill-rule="evenodd" clip-rule="evenodd" d="M15.3874 42.8036C18.8954 42.2973 29.7694 40.5905 35.3224 38.1553C36.0204 37.8495 36.5314 37.2439 36.7024 36.5166C37.3104 33.9489 38.6594 27.3717 38.0714 21.7292C37.9844 20.8938 37.4844 20.1509 36.7274 19.7478C33.9294 18.2571 26.3164 14.708 16.2834 14.1014C14.7474 14.0089 13.2184 14.376 11.9044 15.1559C9.9084 16.3408 6.6114 18.4859 2.6764 21.7662C1.8254 22.4741 1.3054 23.4867 1.2164 24.5724C0.999398 27.2237 1.5694 31.7465 2.7954 36.7697C3.0044 37.6285 3.6224 38.3383 4.4624 38.6713C6.7134 39.5642 9.2444 41.7764 13.1724 42.7082C13.8974 42.8806 14.6494 42.9098 15.3874 42.8036Z" fill="#FEFEFE"/>
<path fill-rule="evenodd" clip-rule="evenodd" d="M12.1423 17.3328C12.4053 17.2189 12.6783 17.4701 12.5773 17.733C11.9393 19.3912 10.5423 23.9052 11.0243 30.7054C11.3523 35.3294 12.1143 38.0937 12.7563 39.6701C13.2163 40.7967 14.3393 41.5318 15.5833 41.5318H20.1343L14.4203 42.8648C14.4203 42.8648 4.3573 40.0781 3.8953 38.8999C3.1133 34.863 3.0423 29.4513 3.2913 25.3706C3.4163 23.3142 3.3303 22.7494 5.9743 20.841C8.2493 19.1994 10.8853 17.8791 12.1423 17.3328Z" fill="#D5E4EC"/>
<path fill-rule="evenodd" clip-rule="evenodd" d="M38.071 29.9389L11.134 27.4784L1.06899 29.5387L0.830994 28.4356L11.068 26.3402L38.178 28.8163L38.071 29.9389Z" fill="#89A1B1"/>
<path fill-rule="evenodd" clip-rule="evenodd" d="M14.2146 17.4213C13.2886 20.1701 10.9326 28.8427 14.0876 38.5513C14.3366 39.3146 15.1056 39.8005 15.9226 39.708C19.5726 39.2942 29.5306 38.0518 34.2306 36.3235C34.4196 36.2534 34.5586 36.0947 34.6026 35.9028C34.9726 34.2515 36.6656 26.3218 35.9826 22.207C35.9206 21.836 35.6796 21.5176 35.3316 21.356C33.4076 20.4583 26.3136 17.47 15.5016 16.5898C14.9276 16.5431 14.3946 16.8887 14.2146 17.4213Z" fill="#343A4C"/>
<mask id="mask0" mask-type="alpha" maskUnits="userSpaceOnUse" x="0" y="12" width="40" height="32">
<path fill-rule="evenodd" clip-rule="evenodd" d="M0 12.9278H39.3734V43.9996H0V12.9278Z" fill="white"/>
</mask>
<g mask="url(#mask0)">
<path fill-rule="evenodd" clip-rule="evenodd" d="M15.2194 15.1834C14.2574 15.1834 13.3044 15.3928 12.4454 15.7939C11.2954 16.3324 9.5724 17.1921 7.8914 18.2388C6.1514 19.3216 4.4714 20.7266 3.3684 21.7149C2.7164 22.2991 2.3354 23.1306 2.3234 23.9972C2.2914 26.2464 2.3384 30.554 3.0034 34.1284C3.2414 35.4059 3.9654 36.5276 5.0404 37.2861C7.2274 38.8293 10.5844 40.7699 13.4514 41.5897C13.9954 41.7455 14.5524 41.7835 15.1064 41.7037C18.3514 41.2382 29.3654 39.5323 34.8494 37.1254C35.2134 36.9657 35.4844 36.6444 35.5734 36.2656C36.1684 33.7526 37.4904 27.3136 36.9184 21.8395C36.8694 21.3722 36.5914 20.9613 36.1734 20.7383C33.3334 19.2242 25.6374 15.6547 15.5234 15.1902C15.4214 15.1854 15.3204 15.1834 15.2194 15.1834ZM14.5434 43.9996C13.9564 43.9996 13.3724 43.9178 12.7984 43.7533C8.8354 42.6199 4.8184 39.914 3.6814 39.1127C2.1194 38.0105 1.0704 36.3834 0.724402 34.5305C0.0244017 30.7692 -0.0255983 26.298 0.00740173 23.967L1.1654 23.9826L0.00740173 23.967C0.0284017 22.4831 0.682402 21.0567 1.8004 20.0548C2.9714 19.0061 4.7624 17.5105 6.6444 16.3392C8.4224 15.2321 10.2354 14.3266 11.4424 13.7618C12.7374 13.1562 14.1864 12.8709 15.6314 12.9371C26.2284 13.424 34.3044 17.1717 37.2854 18.7598C38.3724 19.3391 39.0964 20.4053 39.2224 21.6107C39.8294 27.4207 38.4514 34.1498 37.8304 36.7719C37.5794 37.8333 36.8214 38.7339 35.8014 39.1818C30.0434 41.7085 18.7644 43.4592 15.4444 43.9353C15.1444 43.9782 14.8434 43.9996 14.5434 43.9996Z" fill="#28313B"/>
</g>
<path fill-rule="evenodd" clip-rule="evenodd" d="M19.529 28.0034C19.679 31.0725 20.324 33.5612 21.248 33.5534C22.172 33.5466 22.69 31.0452 22.875 27.9781C23.062 24.8808 22.624 22.4164 21.157 22.4272C19.69 22.4388 19.375 24.8536 19.529 28.0034Z" fill="#2FA9E0"/>
<path fill-rule="evenodd" clip-rule="evenodd" d="M29.5017 28.5702C29.3927 30.9236 29.7027 32.8681 30.4077 32.9265C31.1137 32.9849 31.6917 31.1106 32.0577 28.7815C32.4257 26.431 32.2717 24.5187 31.1497 24.4262C30.0297 24.3337 29.6127 26.1555 29.5017 28.5702Z" fill="#2FA9E0"/>
<path fill-rule="evenodd" clip-rule="evenodd" d="M9.3894 27.9739C9.4344 30.4374 8.1804 32.4568 6.5884 32.484C4.9974 32.5113 3.6704 30.5367 3.6254 28.0742C3.5804 25.6108 4.8344 23.5914 6.4264 23.5641C8.0184 23.5369 9.3444 25.5105 9.3894 27.9739Z" fill="#28313C"/>
<path d="M20.0674 15.0292C17.4361 17.3369 8.98537 17.0996 8.98537 17.0996C8.98537 17.0996 7.9268 13.5425 7.79877 12.0216C7.71332 11.0066 6.84653 9.09299 6.27935 7.93222C6.0341 7.57039 5.86025 7.23807 5.78839 6.96216C5.78839 6.96216 5.99665 7.35367 6.27935 7.93222C7.36688 9.5367 9.85841 11.7214 11.0869 12.1417C12.5924 12.6567 12.45 5.53685 12.9103 2.75633C13.5845 5.40209 15.0446 11.6645 15.9965 11.4523C16.9483 11.2401 19.0047 6.77609 19.3941 4.889C19.3941 4.889 19.8816 10.3354 19.9356 11.5809C19.9895 12.8264 20.0674 15.0292 20.0674 15.0292Z" fill="#FFDB31"/>
<path d="M9.11539 17.3154L8.62704 14.6455L6.14152 7.5705C6.53204 9.06994 10.0422 11.0346 11.5478 11.5496C13.0533 12.0646 12.529 6.57804 12.9893 3.79751C13.6635 6.44327 15.2413 11.1067 16.1932 10.8945C17.145 10.6823 19.8424 6.55618 20.2319 4.66908L20.2707 12.4241C20.2707 12.4241 20.2702 12.5846 20.6619 15.1297C18.8899 16.2624 16.8735 16.8896 14.9845 17.2075C12.5521 17.6167 10.3311 17.5131 9.11539 17.3154Z" stroke="#28313B" stroke-width="2"/>
<path d="M14.4194 3.13667C14.0224 4.07341 12.9411 4.51092 12.0044 4.11386C11.0676 3.71679 10.6301 2.63553 11.0272 1.69879C11.4242 0.762043 12.5055 0.324542 13.4422 0.721603C14.379 1.11866 14.8165 2.19993 14.4194 3.13667Z" fill="#28313B"/>
<circle cx="20.277" cy="3.83208" r="1.55879" transform="rotate(22.9708 20.277 3.83208)" fill="#28313B"/>
<circle cx="5.81353" cy="6.51369" r="1.55879" transform="rotate(22.9708 5.81353 6.51369)" fill="#28313B"/>
<path d="M13.2711 13.5992L14.0833 11.6699L15.4206 13.2653L14.6822 15.0192L13.2711 13.5992Z" fill="#94EDB8" stroke="#28313B"/>
<path d="M18.76 12.5698L18.2455 13.7781L17.5713 12.5238L18.4589 11.3208L18.76 12.5698Z" fill="#97E2FC" stroke="#28313B" stroke-width="0.5"/>
<path d="M10.0657 14.2333L10.0256 12.9206L11.164 13.7761L10.8632 15.2406L10.0657 14.2333Z" fill="#97E2FC" stroke="#28313B" stroke-width="0.5"/>
</svg>
