<svg width="195" height="41" viewBox="0 0 195 41" fill="none" xmlns="http://www.w3.org/2000/svg">
<path fill-rule="evenodd" clip-rule="evenodd" d="M53.4032 18.1203C52.9773 17.6058 52.4544 17.2099 51.8324 16.9332C51.2079 16.657 50.4869 16.5167 49.6697 16.5143C48.8521 16.5119 48.091 16.6656 47.3954 16.975C46.6938 17.2844 46.0894 17.7177 45.5742 18.275C45.061 18.8317 44.66 19.4952 44.3697 20.2638C44.0775 21.0324 43.9316 21.8659 43.9287 22.7633C43.9263 23.6799 44.0677 24.5182 44.3551 25.2792C44.64 26.0401 45.0342 26.7007 45.5342 27.2613C46.0347 27.8214 46.6221 28.2586 47.3036 28.5723C47.9798 28.8855 48.7082 29.0436 49.4912 29.0455C50.3834 29.0484 51.1762 28.8682 51.865 28.5031C52.5534 28.1385 53.1232 27.6273 53.572 26.9692L57.1919 29.6455C56.3518 30.7975 55.2888 31.6464 54.0028 32.1921C52.7173 32.7378 51.3943 33.0088 50.0366 33.0044C48.493 33.0006 47.0709 32.758 45.7698 32.2776C44.4668 31.7977 43.3443 31.1117 42.3978 30.2201C41.4538 29.3284 40.7152 28.2495 40.1903 26.9841C39.6649 25.7182 39.4024 24.3078 39.4078 22.7499C39.4122 21.1929 39.6825 19.7824 40.2176 18.52C40.7499 17.2575 41.4934 16.1838 42.4447 15.297C43.396 14.4116 44.5239 13.7328 45.8294 13.2606C47.1324 12.7883 48.5569 12.5539 50.1005 12.5582C50.6581 12.5601 51.2401 12.6125 51.845 12.7153C52.4495 12.8181 53.0442 12.98 53.6286 13.202C54.216 13.4229 54.7755 13.7179 55.3136 14.0859C55.8532 14.4544 56.3342 14.9045 56.7606 15.4368L53.4032 18.1203Z" fill="#2CABE3"/>
<path fill-rule="evenodd" clip-rule="evenodd" d="M61.7133 22.7469C61.7104 23.6635 61.8519 24.5023 62.1392 25.2628C62.4241 26.0247 62.8359 26.6852 63.373 27.2454C63.9111 27.806 64.5575 28.2432 65.3107 28.5569C66.0615 28.8711 66.9016 29.0286 67.8329 29.0315C68.7618 29.0344 69.6068 28.8816 70.36 28.5722C71.1157 28.2633 71.7626 27.8295 72.305 27.2723C72.8446 26.7155 73.2612 26.0574 73.5539 25.2983C73.8432 24.5383 73.9896 23.701 73.992 22.7844C73.995 21.887 73.8535 21.0531 73.5686 20.2825C73.2812 19.5124 72.8695 18.8466 72.3324 18.286C71.7943 17.7263 71.1503 17.2891 70.3971 16.9745C69.6438 16.6613 68.8013 16.5027 67.8724 16.4994C66.9411 16.497 66.0986 16.6512 65.3454 16.9596C64.5921 17.269 63.9428 17.7023 63.4003 18.2591C62.8608 18.8163 62.4441 19.4798 62.1539 20.2474C61.8621 21.0165 61.7158 21.85 61.7133 22.7469ZM57.1915 22.734C57.1964 21.1765 57.4666 19.7665 58.0018 18.5045C58.534 17.2411 59.278 16.1679 60.2293 15.2816C61.1806 14.3957 62.308 13.7169 63.6135 13.2442C64.9166 12.772 66.3411 12.538 67.8846 12.5423C69.4282 12.5471 70.8503 12.7897 72.1514 13.2696C73.4544 13.7505 74.577 14.4361 75.5234 15.3272C76.4698 16.2193 77.2055 17.2973 77.7309 18.5636C78.2558 19.8295 78.5188 21.2404 78.5139 22.7974C78.509 24.3558 78.2388 25.7648 77.7036 27.0278C77.1713 28.2898 76.4274 29.3639 75.4761 30.2498C74.5248 31.1356 73.3973 31.8149 72.0919 32.2872C70.7888 32.7594 69.3643 32.9933 67.8207 32.9885C66.2767 32.9847 64.8546 32.7416 63.554 32.2617C62.251 31.7818 61.1284 31.0953 60.182 30.2042C59.238 29.3125 58.4999 28.2336 57.9745 26.9687C57.4495 25.7019 57.1866 24.2914 57.1915 22.734Z" fill="#2CABE3"/>
<path fill-rule="evenodd" clip-rule="evenodd" d="M84.4426 28.6641L86.7024 28.6713C87.7078 28.6742 88.642 28.5762 89.507 28.3769C90.3739 28.178 91.1247 27.8465 91.7589 27.381C92.3907 26.9155 92.8912 26.3039 93.2551 25.544C93.622 24.7854 93.8054 23.8554 93.8079 22.7562C93.8128 21.8041 93.6347 20.9739 93.2732 20.2673C92.9107 19.5616 92.4253 18.9779 91.8136 18.5181C91.2013 18.0589 90.4807 17.7135 89.6534 17.4819C88.8255 17.2494 87.9556 17.1322 87.0443 17.1298L84.4773 17.1221L84.4426 28.6641ZM80.1369 13.1516L86.6677 13.1713C88.2484 13.1761 89.75 13.3548 91.172 13.707C92.5941 14.0596 93.8352 14.6264 94.8933 15.408C95.951 16.1906 96.7886 17.2052 97.4077 18.4528C98.0273 19.7009 98.3346 21.2127 98.3298 22.9892C98.3244 24.5659 98.0175 25.9523 97.4102 27.1509C96.8008 28.349 95.9832 29.3545 94.9577 30.1659C93.9318 30.9782 92.7497 31.5936 91.4072 32.0106C90.0666 32.4281 88.662 32.6346 87.1931 32.6303L80.0774 32.6087L80.1369 13.1516Z" fill="#2CABE3"/>
<path fill-rule="evenodd" clip-rule="evenodd" d="M99.9523 13.2L113.376 13.2398L113.363 17.1973L104.296 17.17L104.283 20.7974L112.851 20.8239L112.841 24.7809L104.273 24.755L104.261 28.7125L113.832 28.7418L113.819 32.6988L99.8928 32.6566L99.9523 13.2Z" fill="#2CABE3"/>
<path fill-rule="evenodd" clip-rule="evenodd" d="M129.35 18.0466C128.925 17.5336 128.403 17.1392 127.783 16.8634C127.161 16.5877 126.443 16.4479 125.627 16.4455C124.811 16.4431 124.054 16.5958 123.359 16.9047C122.661 17.2131 122.057 17.6455 121.544 18.2008C121.033 18.7567 120.631 19.4177 120.342 20.1834C120.052 20.9506 119.905 21.7812 119.902 22.6762C119.9 23.5899 120.042 24.4258 120.327 25.1844C120.612 25.9434 121.004 26.6025 121.503 27.1612C122.002 27.7194 122.589 28.1552 123.267 28.4679C123.943 28.7806 124.669 28.9382 125.448 28.9401C126.339 28.943 127.128 28.7629 127.816 28.3992C128.503 28.0355 129.071 27.5258 129.518 26.8696L133.128 29.5382C132.288 30.6869 131.229 31.5328 129.948 32.0771C128.665 32.6209 127.347 32.8914 125.993 32.8876C124.453 32.8832 123.035 32.6411 121.738 32.1626C120.44 31.6842 119.32 30.9996 118.377 30.1104C117.434 29.2221 116.7 28.146 116.175 26.884C115.651 25.6225 115.391 24.2159 115.396 22.6623C115.4 21.1101 115.668 19.704 116.202 18.4449C116.734 17.1862 117.475 16.1154 118.424 15.232C119.373 14.3495 120.497 13.6726 121.797 13.2009C123.097 12.7305 124.517 12.4966 126.057 12.5009C126.613 12.5028 127.192 12.5552 127.795 12.657C128.398 12.7598 128.991 12.9213 129.574 13.1427C130.159 13.3627 130.719 13.6568 131.255 14.0238C131.792 14.3918 132.272 14.84 132.697 15.3708L129.35 18.0466Z" fill="#28313B"/>
<path fill-rule="evenodd" clip-rule="evenodd" d="M134.75 13.0226L139.09 13.0361L139.068 20.2699L147.499 20.2954L147.522 13.061L151.863 13.0745L151.804 32.4744L147.463 32.461L147.488 24.0766L139.057 24.0516L139.031 32.436L134.691 32.423L134.75 13.0226Z" fill="#28313B"/>
<path fill-rule="evenodd" clip-rule="evenodd" d="M170.559 25.056C170.557 26.2071 170.377 27.2658 170.02 28.2324C169.666 29.1999 169.14 30.0387 168.441 30.7487C167.743 31.4592 166.875 32.0136 165.835 32.4123C164.795 32.8111 163.597 33.0085 162.243 33.0047C160.869 33.0004 159.665 32.7952 158.628 32.3912C157.59 31.9862 156.725 31.4261 156.031 30.7113C155.339 29.9969 154.816 29.1557 154.466 28.1858C154.118 27.2164 153.945 26.1571 153.947 25.0061L153.984 13.0864L158.325 13.0994L158.289 24.8543C158.287 25.4576 158.383 26.0144 158.577 26.527C158.77 27.0386 159.041 27.4835 159.393 27.8577C159.744 28.2338 160.165 28.5279 160.657 28.7392C161.147 28.9501 161.68 29.0573 162.255 29.0592C162.83 29.0611 163.359 28.9568 163.842 28.7488C164.326 28.5403 164.743 28.2487 165.098 27.8755C165.45 27.5022 165.726 27.0602 165.923 26.5491C166.119 26.0384 166.218 25.4812 166.22 24.8783L166.256 13.1229L170.596 13.1364L170.559 25.056Z" fill="#28313B"/>
<mask id="mask0" mask-type="alpha" maskUnits="userSpaceOnUse" x="172" y="13" width="23" height="20">
<path fill-rule="evenodd" clip-rule="evenodd" d="M172.681 13.1479H195V32.615H172.681V13.1479Z" fill="white"/>
</mask>
<g mask="url(#mask0)">
<path fill-rule="evenodd" clip-rule="evenodd" d="M172.74 13.1479L179.307 13.168L183.805 25.8409L183.86 25.8414L188.462 13.1959L195 13.2156L194.941 32.615L190.6 32.6021L190.646 17.7236H190.59L185.37 32.5862L182.058 32.5761L177.122 17.6828H177.067L177.021 32.5612L172.681 32.5482L172.74 13.1479Z" fill="#28313B"/>
</g>
<path fill-rule="evenodd" clip-rule="evenodd" d="M12.6946 35.03C15.5887 34.6195 24.5598 33.2355 29.141 31.261C29.7168 31.0131 30.1384 30.5221 30.2795 29.9324C30.7811 27.8505 31.894 22.5176 31.4089 17.9426C31.3371 17.2652 30.9246 16.6629 30.3001 16.336C27.9918 15.1274 21.711 12.2497 13.4338 11.7579C12.1666 11.6829 10.9052 11.9805 9.82113 12.6129C8.17443 13.5737 5.4544 15.3129 2.20803 17.9726C1.50595 18.5466 1.07695 19.3676 1.00353 20.2479C0.824502 22.3976 1.29475 26.0647 2.3062 30.1376C2.47863 30.8339 2.98848 31.4095 3.68148 31.6795C5.53855 32.4034 7.62663 34.1971 10.8672 34.9526C11.4654 35.0924 12.0858 35.116 12.6946 35.03Z" fill="#FEFEFE"/>
<path fill-rule="evenodd" clip-rule="evenodd" d="M10.0174 14.378C10.2344 14.2856 10.4596 14.4893 10.3763 14.7025C9.84992 16.0469 8.69739 19.7069 9.09504 25.2206C9.36564 28.9698 9.99429 31.2111 10.5239 32.4893C10.9034 33.4027 11.8299 33.9988 12.8562 33.9988H16.6108L11.8967 35.0796C11.8967 35.0796 3.59477 32.8201 3.21362 31.8648C2.56847 28.5917 2.50989 24.2038 2.71532 20.8951C2.81844 19.2277 2.74749 18.7698 4.92879 17.2225C6.80567 15.8914 8.98037 14.8209 10.0174 14.378Z" fill="#D5E4EC"/>
<path fill-rule="evenodd" clip-rule="evenodd" d="M31.4086 24.5991L9.18555 22.6041L0.881927 24.2747L0.685577 23.3802L9.1311 21.6812L31.4969 23.6889L31.4086 24.5991Z" fill="#89A1B1"/>
<path fill-rule="evenodd" clip-rule="evenodd" d="M11.727 14.4498C10.9631 16.6784 9.0194 23.7103 11.6223 31.5821C11.8277 32.2011 12.4621 32.595 13.1361 32.52C16.1474 32.1845 24.3628 31.1771 28.2403 29.7758C28.3962 29.719 28.5109 29.5903 28.5472 29.4348C28.8524 28.0958 30.2491 21.6663 29.6857 18.33C29.6345 18.0292 29.4357 17.7711 29.1486 17.64C27.5613 16.9121 21.7087 14.4892 12.7888 13.7755C12.3153 13.7377 11.8755 14.0179 11.727 14.4498Z" fill="#343A4C"/>
<mask id="mask1" mask-type="alpha" maskUnits="userSpaceOnUse" x="0" y="10" width="33" height="26">
<path fill-rule="evenodd" clip-rule="evenodd" d="M0 10.8063H32.4831V35.9997H0V10.8063Z" fill="white"/>
</mask>
<g mask="url(#mask1)">
<path fill-rule="evenodd" clip-rule="evenodd" d="M12.556 12.6352C11.7624 12.6352 10.9761 12.805 10.2675 13.1302C9.31871 13.5668 7.89723 14.2639 6.51041 15.1126C5.07491 15.9905 3.68891 17.1297 2.77893 17.931C2.24103 18.4047 1.92671 19.0789 1.91681 19.7815C1.89041 21.6052 1.92918 25.0979 2.47781 27.996C2.67416 29.0318 3.27146 29.9413 4.15833 30.5563C5.96261 31.8076 8.73213 33.381 11.0974 34.0458C11.5462 34.1721 12.0057 34.2029 12.4628 34.1381C15.1399 33.7608 24.2265 32.3776 28.7508 30.426C29.0511 30.2965 29.2746 30.036 29.3481 29.7289C29.8389 27.6913 30.9296 22.4705 30.4577 18.0321C30.4173 17.6531 30.1879 17.32 29.8431 17.1392C27.5001 15.9115 21.1509 13.0173 12.8068 12.6408C12.7227 12.6368 12.6393 12.6352 12.556 12.6352ZM11.9983 35.9997C11.514 35.9997 11.0322 35.9334 10.5587 35.8C7.2892 34.881 3.97518 32.6871 3.03715 32.0373C1.7485 31.1436 0.883076 29.8244 0.597626 28.3221C0.0201261 25.2723 -0.0211239 21.6471 0.00610109 19.7571L0.961451 19.7697L0.00610109 19.7571C0.0234261 18.5539 0.562976 17.3973 1.48533 16.585C2.4514 15.7347 3.92898 14.5221 5.48163 13.5723C6.94848 12.6747 8.4442 11.9405 9.43998 11.4826C10.5084 10.9915 11.7038 10.7602 12.8959 10.8139C21.6384 11.2086 28.3011 14.2473 30.7605 15.535C31.6572 16.0047 32.2545 16.8692 32.3585 17.8465C32.8593 22.5573 31.7224 28.0134 31.2101 30.1394C31.003 31 30.3777 31.7302 29.5362 32.0934C24.7858 34.1421 15.4806 35.5615 12.7416 35.9476C12.4941 35.9823 12.2458 35.9997 11.9983 35.9997Z" fill="#28313B"/>
</g>
<path fill-rule="evenodd" clip-rule="evenodd" d="M16.1114 23.0298C16.2352 25.5182 16.7673 27.5361 17.5296 27.5298C18.2919 27.5243 18.7193 25.4961 18.8719 23.0093C19.0262 20.498 18.6648 18.4998 17.4545 18.5085C16.2443 18.518 15.9844 20.4759 16.1114 23.0298Z" fill="#2FA9E0"/>
<path fill-rule="evenodd" clip-rule="evenodd" d="M24.3389 23.4894C24.249 25.3975 24.5047 26.9741 25.0864 27.0215C25.6688 27.0689 26.1457 25.5491 26.4476 23.6607C26.7512 21.7549 26.6242 20.2044 25.6985 20.1294C24.7745 20.0544 24.4305 21.5315 24.3389 23.4894Z" fill="#2FA9E0"/>
<path fill-rule="evenodd" clip-rule="evenodd" d="M7.74626 23.0059C7.78338 25.0033 6.74883 26.6406 5.43543 26.6627C4.12286 26.6848 3.02808 25.0838 2.99096 23.0872C2.95383 21.0898 3.98838 19.4525 5.30178 19.4304C6.61518 19.4083 7.70913 21.0085 7.74626 23.0059Z" fill="#28313C"/>
<path d="M16.5302 12.4928C14.3546 14.3767 7.3948 14.2134 7.3948 14.2134C7.3948 14.2134 6.53569 11.3275 6.43571 10.0924C6.36899 9.26822 5.66193 7.71669 5.19894 6.77572C4.99823 6.48264 4.85624 6.21329 4.79804 5.9894C4.79804 5.9894 4.96817 6.30672 5.19894 6.77572C6.08893 8.07532 8.13327 9.84139 9.14362 10.1785C10.3818 10.5916 10.2901 4.80829 10.6793 2.54792C11.2251 4.69486 12.4052 9.77702 13.19 9.60133C13.9748 9.42564 15.6846 5.79211 16.0122 4.25776C16.0122 4.25776 16.3941 8.68043 16.4341 9.69205C16.474 10.7037 16.5302 12.4928 16.5302 12.4928Z" fill="#FFDB31"/>
<path d="M7.50249 14.3897L7.10991 12.2227L5.08834 6.48463C5.40457 7.70121 8.28845 9.28478 9.52652 9.69786C10.7646 10.1109 10.3525 5.65619 10.7417 3.39606C11.2874 5.54277 12.5701 9.32517 13.3548 9.1495C14.1395 8.97382 16.3759 5.61291 16.7034 4.07873L16.7074 10.3777C16.7074 10.3777 16.7065 10.5081 17.0199 12.574C15.5564 13.5003 13.8935 14.0168 12.3366 14.2815C10.3319 14.6225 8.50302 14.546 7.50249 14.3897Z" stroke="#28313B" stroke-width="1.5"/>
<path d="M11.891 2.86267C11.5606 3.6249 10.6686 3.98402 9.89854 3.66479C9.12852 3.34556 8.77211 2.46886 9.10248 1.70662C9.43285 0.944393 10.3249 0.585271 11.0949 0.904503C11.8649 1.22373 12.2213 2.10043 11.891 2.86267Z" fill="#28313B"/>
<ellipse rx="1.27708" ry="1.27276" transform="matrix(0.923781 0.382978 -0.397686 0.917546 16.7285 3.43141)" fill="#28313B"/>
<ellipse rx="1.27708" ry="1.27276" transform="matrix(0.923781 0.382978 -0.397686 0.917546 4.79616 5.6057)" fill="#28313B"/>
<path d="M10.9505 11.3547L11.6255 9.78641L12.7198 11.0763L12.1061 12.502L10.9505 11.3547Z" fill="#94EDB8" stroke="#28313B" stroke-width="0.8"/>
<path d="M15.4772 10.5146L15.048 11.4958L14.496 10.4815L15.2331 9.50335L15.4772 10.5146Z" fill="#97E2FC" stroke="#28313B" stroke-width="0.5"/>
<path d="M8.30408 11.8664L8.27579 10.8005L9.21061 11.4913L8.95752 12.6816L8.30408 11.8664Z" fill="#97E2FC" stroke="#28313B" stroke-width="0.5"/>
</svg>
