<svg width="210" height="120" viewBox="0 0 210 120" fill="none" xmlns="http://www.w3.org/2000/svg">
<mask id="mask0" mask-type="alpha" maskUnits="userSpaceOnUse" x="0" y="92" width="24" height="28">
<path fill-rule="evenodd" clip-rule="evenodd" d="M0 92.0718H23.9211V120H0V92.0718Z" fill="white"/>
</mask>
<g mask="url(#mask0)">
<path fill-rule="evenodd" clip-rule="evenodd" d="M18.8261 99.6689C18.2531 98.9659 17.5501 98.4259 16.7131 98.0479C15.8731 97.6699 14.9031 97.4789 13.8041 97.4749C12.7041 97.4719 11.6801 97.6819 10.7441 98.1049C9.8011 98.5269 8.9881 99.1189 8.2951 99.8799C7.6051 100.641 7.0651 101.547 6.6761 102.597C6.2821 103.647 6.0861 104.785 6.0821 106.011C6.0791 107.263 6.2681 108.409 6.6551 109.447C7.0381 110.487 7.5681 111.39 8.2411 112.155C8.9151 112.92 9.7051 113.518 10.6211 113.946C11.5311 114.374 12.5111 114.59 13.5631 114.592C14.7641 114.596 15.8301 114.35 16.7561 113.852C17.6821 113.353 18.4491 112.655 19.0531 111.756L23.9211 115.412C22.7921 116.985 21.3621 118.145 19.6321 118.89C17.9021 119.635 16.1231 120.006 14.2971 120C12.2211 119.994 10.3071 119.663 8.5581 119.007C6.8051 118.351 5.2961 117.414 4.0221 116.196C2.7531 114.979 1.7601 113.505 1.0541 111.776C0.347102 110.047 -0.00689819 108.12 0.000101808 105.993C0.00710181 103.865 0.370102 101.94 1.0901 100.215C1.8061 98.4899 2.8061 97.0239 4.0861 95.8129C5.3651 94.6039 6.8821 93.6759 8.6381 93.0299C10.3911 92.3859 12.3071 92.0659 14.3841 92.0719C15.1341 92.0739 15.9161 92.1459 16.7291 92.2859C17.5431 92.4259 18.3431 92.6479 19.1291 92.9509C19.9191 93.2519 20.6721 93.6549 21.3951 94.1579C22.1221 94.6619 22.7681 95.2759 23.3421 96.0029L18.8261 99.6689Z" fill="#2FA9E0"/>
</g>
<path fill-rule="evenodd" clip-rule="evenodd" d="M30.0027 105.989C29.9997 107.241 30.1897 108.387 30.5757 109.426C30.9597 110.467 31.5127 111.368 32.2357 112.134C32.9587 112.899 33.8287 113.496 34.8417 113.925C35.8517 114.354 36.9817 114.57 38.2337 114.573C39.4837 114.577 40.6207 114.368 41.6337 113.946C42.6497 113.524 43.5207 112.931 44.2497 112.17C44.9767 111.409 45.5357 110.51 45.9297 109.473C46.3187 108.436 46.5167 107.292 46.5197 106.04C46.5227 104.814 46.3327 103.675 45.9487 102.622C45.5637 101.57 45.0097 100.661 44.2867 99.8946C43.5637 99.1306 42.6967 98.5326 41.6837 98.1036C40.6707 97.6756 39.5377 97.4586 38.2877 97.4546C37.0347 97.4516 35.9017 97.6616 34.8887 98.0826C33.8757 98.5056 33.0027 99.0976 32.2727 99.8586C31.5457 100.62 30.9857 101.526 30.5967 102.575C30.2027 103.625 30.0067 104.763 30.0027 105.989ZM23.9217 105.971C23.9277 103.843 24.2907 101.917 25.0107 100.194C25.7277 98.4676 26.7277 97.0016 28.0067 95.7906C29.2867 94.5816 30.8027 93.6546 32.5597 93.0086C34.3127 92.3636 36.2287 92.0436 38.3047 92.0496C40.3807 92.0556 42.2937 92.3876 44.0427 93.0436C45.7957 93.6996 47.3057 94.6356 48.5787 95.8536C49.8517 97.0726 50.8417 98.5446 51.5477 100.275C52.2547 102.003 52.6077 103.931 52.6017 106.058C52.5947 108.186 52.2317 110.112 51.5117 111.836C50.7947 113.56 49.7947 115.028 48.5157 116.238C47.2357 117.447 45.7197 118.375 43.9637 119.02C42.2107 119.665 40.2937 119.985 38.2177 119.978C36.1417 119.972 34.2297 119.641 32.4797 118.985C30.7267 118.329 29.2167 117.392 27.9427 116.175C26.6737 114.957 25.6807 113.483 24.9747 111.755C24.2677 110.026 23.9147 108.098 23.9217 105.971Z" fill="#2FA9E0"/>
<path fill-rule="evenodd" clip-rule="evenodd" d="M60.5761 114.071L63.6151 114.08C64.9691 114.085 66.2241 113.951 67.3881 113.679C68.5551 113.407 69.5641 112.954 70.4171 112.318C71.2671 111.682 71.9401 110.847 72.4301 109.809C72.9241 108.772 73.1701 107.503 73.1741 106.001C73.1801 104.7 72.9401 103.567 72.4531 102.601C71.9671 101.637 71.3131 100.84 70.4901 100.212C69.6681 99.5853 68.6981 99.1133 67.5851 98.7973C66.4721 98.4793 65.3021 98.3193 64.0751 98.3163L60.6231 98.3053L60.5761 114.071ZM54.7841 92.8823L63.5691 92.9083C65.6951 92.9153 67.7151 93.1593 69.6281 93.6403C71.5401 94.1223 73.2101 94.8963 74.6331 95.9643C76.0551 97.0323 77.1821 98.4193 78.0151 100.123C78.8481 101.827 79.2621 103.893 79.2551 106.32C79.2491 108.472 78.8351 110.367 78.0181 112.003C77.1991 113.64 76.0991 115.013 74.7201 116.122C73.3401 117.232 71.7501 118.072 69.9441 118.642C68.1411 119.213 66.2521 119.494 64.2751 119.488L54.7041 119.459L54.7841 92.8823Z" fill="#2FA9E0"/>
<path fill-rule="evenodd" clip-rule="evenodd" d="M81.4384 92.9475L99.4944 93.0025L99.4774 98.4075L87.2804 98.3705L87.2634 103.326L98.7874 103.362L98.7744 108.767L87.2504 108.732L87.2334 114.137L100.107 114.177L100.09 119.583L81.3584 119.525L81.4384 92.9475Z" fill="#2FA9E0"/>
<path fill-rule="evenodd" clip-rule="evenodd" d="M120.98 99.5682C120.409 98.8672 119.706 98.3292 118.872 97.9512C118.035 97.5752 117.069 97.3842 115.972 97.3802C114.875 97.3782 113.856 97.5872 112.92 98.0082C111.982 98.4292 111.169 99.0202 110.48 99.7792C109.792 100.537 109.252 101.44 108.864 102.487C108.473 103.534 108.275 104.669 108.272 105.891C108.269 107.14 108.459 108.282 108.843 109.318C109.226 110.355 109.754 111.254 110.425 112.018C111.096 112.78 111.885 113.376 112.797 113.803C113.707 114.23 114.683 114.445 115.732 114.447C116.929 114.451 117.991 114.206 118.917 113.709C119.84 113.212 120.605 112.516 121.206 111.62L126.06 115.265C124.932 116.833 123.507 117.989 121.784 118.733C120.058 119.476 118.286 119.845 116.464 119.839C114.393 119.834 112.485 119.503 110.741 118.849C108.995 118.195 107.49 117.261 106.22 116.047C104.953 114.833 103.964 113.363 103.258 111.64C102.553 109.916 102.203 107.994 102.209 105.873C102.216 103.752 102.577 101.832 103.294 100.112C104.01 98.3932 105.007 96.9302 106.284 95.7232C107.559 94.5172 109.071 93.5932 110.821 92.9492C112.569 92.3062 114.479 91.9872 116.55 91.9932C117.298 91.9952 118.078 92.0672 118.888 92.2062C119.699 92.3472 120.497 92.5672 121.281 92.8692C122.068 93.1702 122.821 93.5722 123.542 94.0732C124.264 94.5752 124.911 95.1882 125.482 95.9132L120.98 99.5682Z" fill="#28313B"/>
<path fill-rule="evenodd" clip-rule="evenodd" d="M128.243 92.7058L134.082 92.7238L134.052 102.605L145.392 102.639L145.423 92.7578L151.262 92.7758L151.182 119.276L145.343 119.257L145.378 107.805L134.037 107.77L134.002 119.223L128.164 119.205L128.243 92.7058Z" fill="#28313B"/>
<path fill-rule="evenodd" clip-rule="evenodd" d="M176.41 109.143C176.406 110.714 176.164 112.161 175.685 113.481C175.209 114.803 174.501 115.949 173.56 116.918C172.622 117.889 171.454 118.647 170.055 119.191C168.656 119.735 167.045 120.005 165.223 120C163.376 119.994 161.757 119.714 160.361 119.162C158.966 118.608 157.801 117.844 156.869 116.868C155.936 115.892 155.234 114.743 154.764 113.417C154.295 112.093 154.062 110.646 154.066 109.075L154.116 92.793L159.954 92.81L159.905 108.867C159.902 109.691 160.032 110.452 160.293 111.151C160.552 111.851 160.918 112.458 161.39 112.97C161.863 113.483 162.43 113.884 163.091 114.173C163.75 114.462 164.466 114.608 165.24 114.61C166.013 114.613 166.725 114.471 167.375 114.187C168.025 113.902 168.587 113.504 169.063 112.994C169.538 112.484 169.909 111.88 170.173 111.182C170.437 110.484 170.57 109.724 170.573 108.899L170.622 92.843L176.46 92.861L176.41 109.143Z" fill="#28313B"/>
<path fill-rule="evenodd" clip-rule="evenodd" d="M179.344 92.8767L188.177 92.9037L194.226 110.214L194.301 110.215L200.49 92.9417L209.285 92.9687L209.205 119.468L203.367 119.45L203.429 99.1267H203.354L196.331 119.429L191.877 119.415L185.239 99.0707H185.163L185.102 119.395L179.264 119.376L179.344 92.8767Z" fill="#28313B"/>
<path fill-rule="evenodd" clip-rule="evenodd" d="M96.1093 72.9691C103.071 71.9371 124.65 68.4581 135.668 63.4951C137.053 62.8711 138.068 61.6361 138.409 60.1551C139.614 54.9221 142.292 41.5171 141.124 30.0181C140.951 28.3141 139.959 26.8021 138.456 25.9801C132.904 22.9421 117.797 15.7081 97.8903 14.4731C94.8403 14.2831 91.8063 15.0311 89.1973 16.6231C85.2403 19.0361 78.6953 23.4081 70.8863 30.0931C69.2003 31.5371 68.1663 33.5991 67.9903 35.8131C67.5593 41.2161 68.6893 50.4331 71.1233 60.6711C71.5393 62.4221 72.7643 63.8671 74.4313 64.5461C78.8983 66.3661 83.9213 70.8751 91.7143 72.7741C93.1533 73.1251 94.6453 73.1861 96.1093 72.9691Z" fill="#FEFEFE"/>
<path fill-rule="evenodd" clip-rule="evenodd" d="M89.6708 21.059C90.1928 20.826 90.7338 21.338 90.5338 21.873C89.2678 25.253 86.4968 34.454 87.4518 48.313C88.1028 57.737 89.6138 63.37 90.8908 66.583C91.8028 68.877 94.0298 70.376 96.4998 70.376H105.531L94.1918 73.093C94.1918 73.093 74.2218 67.415 73.3058 65.013C71.7538 56.787 71.6138 45.757 72.1078 37.439C72.3568 33.249 72.1858 32.098 77.4318 28.208C81.9458 24.862 87.1778 22.172 89.6708 21.059Z" fill="#D5E4EC"/>
<path fill-rule="evenodd" clip-rule="evenodd" d="M141.123 46.7503L87.6719 41.7363L67.6959 45.9353L67.2239 43.6863L87.5399 39.4153L141.338 44.4623L141.123 46.7503Z" fill="#89A1B1"/>
<path fill-rule="evenodd" clip-rule="evenodd" d="M93.783 21.2391C91.946 26.8421 87.269 44.5171 93.532 64.3021C94.025 65.8581 95.552 66.8471 97.173 66.6591C104.416 65.8171 124.177 63.2841 133.503 59.7601C133.878 59.6181 134.154 59.2961 134.24 58.9041C134.974 55.5391 138.335 39.3781 136.978 30.9921C136.856 30.2361 136.378 29.5871 135.687 29.2571C131.87 27.4281 117.793 21.3391 96.337 19.5451C95.197 19.4491 94.139 20.1521 93.783 21.2391Z" fill="#343A4C"/>
<path fill-rule="evenodd" clip-rule="evenodd" d="M95.7773 16.6777C93.8683 16.6777 91.9773 17.1047 90.2723 17.9237C87.9913 19.0187 84.5713 20.7727 81.2363 22.9057C77.7833 25.1127 74.4493 27.9757 72.2603 29.9887C70.9663 31.1787 70.2113 32.8747 70.1863 34.6417C70.1243 39.2257 70.2153 48.0027 71.5373 55.2877C72.0083 57.8917 73.4443 60.1777 75.5783 61.7237C79.9183 64.8687 86.5813 68.8237 92.2693 70.4947C93.3483 70.8117 94.4533 70.8897 95.5523 70.7277C101.992 69.7797 123.847 66.3027 134.731 61.3967C135.454 61.0717 135.991 60.4167 136.168 59.6447C137.348 54.5217 139.971 41.4007 138.837 30.2427C138.74 29.2917 138.187 28.4527 137.358 27.9987C131.722 24.9147 116.45 17.6387 96.3803 16.6917C96.1783 16.6827 95.9773 16.6777 95.7773 16.6777ZM94.4353 75.4067C93.2713 75.4067 92.1133 75.2397 90.9733 74.9047C83.1093 72.5947 75.1373 67.0807 72.8813 65.4467C69.7833 63.2007 67.6993 59.8847 67.0143 56.1087C65.6243 48.4427 65.5253 39.3287 65.5903 34.5787L67.8883 34.6107L65.5903 34.5787C65.6313 31.5537 66.9283 28.6477 69.1493 26.6057C71.4723 24.4687 75.0263 21.4197 78.7593 19.0327C82.2893 16.7767 85.8863 14.9307 88.2823 13.7797C90.8513 12.5467 93.7273 11.9657 96.5953 12.1007C117.623 13.0927 133.65 20.7297 139.565 23.9667C141.721 25.1477 143.159 27.3197 143.409 29.7777C144.614 41.6177 141.879 55.3307 140.647 60.6777C140.149 62.8397 138.643 64.6747 136.62 65.5867C125.194 70.7377 102.811 74.3047 96.2233 75.2757C95.6273 75.3637 95.0303 75.4067 94.4353 75.4067Z" fill="#28313B"/>
<path fill-rule="evenodd" clip-rule="evenodd" d="M104.33 42.806C104.629 49.06 105.906 54.131 107.74 54.117C109.573 54.102 110.601 49.004 110.969 42.753C111.34 36.443 110.47 31.419 107.559 31.442C104.648 31.465 104.023 36.386 104.33 42.806Z" fill="#2FA9E0"/>
<path fill-rule="evenodd" clip-rule="evenodd" d="M124.118 43.9607C123.901 48.7567 124.517 52.7187 125.918 52.8377C127.318 52.9577 128.466 49.1377 129.19 44.3917C129.922 39.6007 129.614 35.7037 127.39 35.5147C125.166 35.3257 124.34 39.0377 124.118 43.9607Z" fill="#2FA9E0"/>
<path fill-rule="evenodd" clip-rule="evenodd" d="M84.2089 42.7454C84.2979 47.7654 81.8099 51.8804 78.6509 51.9364C75.4919 51.9924 72.8589 47.9684 72.7709 42.9494C72.6819 37.9294 75.1699 33.8144 78.3279 33.7584C81.4859 33.7024 84.1189 37.7254 84.2089 42.7454Z" fill="#28313C"/>
<mask id="mask1" mask-type="alpha" maskUnits="userSpaceOnUse" x="100" y="0" width="9" height="9">
<path fill-rule="evenodd" clip-rule="evenodd" d="M100.351 0H108.727V8.3759H100.351V0Z" fill="white"/>
</mask>
<g mask="url(#mask1)">
<path fill-rule="evenodd" clip-rule="evenodd" d="M108.727 4.188C108.727 1.875 106.852 0 104.539 0C102.226 0 100.351 1.875 100.351 4.188C100.351 6.501 102.226 8.376 104.539 8.376C106.852 8.376 108.727 6.501 108.727 4.188Z" fill="#28313B"/>
</g>
<path fill-rule="evenodd" clip-rule="evenodd" d="M107.194 14.4442H101.882L103.415 7.80518H105.662L107.194 14.4442Z" fill="#28313B"/>
</svg>
