<svg width="904" height="810" viewBox="0 0 904 810" fill="none" xmlns="http://www.w3.org/2000/svg">
<g opacity="0.1">
<path fill-rule="evenodd" clip-rule="evenodd" d="M348.031 196.003C327.329 196.003 306.809 200.491 288.322 209.159C263.575 220.709 226.488 239.233 190.306 261.739C152.857 285.059 116.697 315.287 92.9674 336.561C78.9328 349.101 70.7064 367.009 70.4578 385.665C69.7798 434.065 70.7742 526.751 85.1026 603.663C90.2328 631.163 105.804 655.296 128.947 671.62C176 704.818 248.275 746.574 309.973 764.218C321.679 767.562 333.68 768.42 345.613 766.682C415.447 756.672 652.498 719.954 770.538 668.166C778.38 664.734 784.211 657.805 786.132 649.664C798.946 595.566 827.377 457.033 815.083 339.223C814.02 329.191 808.031 320.325 799.036 315.551C737.904 282.969 572.246 206.145 354.562 196.157C352.393 196.047 350.201 196.003 348.031 196.003ZM333.477 816.117C320.843 816.117 308.278 814.313 295.938 810.793C210.623 786.395 124.155 728.183 99.7022 710.913C66.0734 687.219 43.4734 652.195 36.0606 612.331C20.9638 531.393 19.9016 435.165 20.6022 385.005L45.53 385.335L20.6022 385.005C21.0542 353.083 35.134 322.393 59.203 300.833C84.402 278.261 122.958 246.053 163.457 220.863C201.719 197.037 240.749 177.545 266.739 165.401C294.605 152.377 325.793 146.239 356.913 147.669C584.969 158.141 758.831 238.771 822.97 272.959C846.361 285.411 861.955 308.357 864.667 334.317C877.73 459.343 848.079 604.125 834.722 660.555C829.321 683.391 812.981 702.773 791.036 712.409C667.098 766.792 424.329 804.457 352.867 814.708C346.404 815.633 339.94 816.117 333.477 816.117Z" fill="#28313B"/>
<path fill-rule="evenodd" clip-rule="evenodd" d="M326.403 244.169C306.47 303.305 255.755 489.931 323.668 698.843C329.024 715.277 345.59 725.727 363.173 723.725C441.731 714.837 656.069 688.107 757.204 650.883C761.295 649.387 764.278 645.999 765.227 641.841C773.205 606.333 809.636 435.679 794.923 347.151C793.59 339.143 788.415 332.301 780.911 328.825C739.508 309.509 586.823 245.225 354.11 226.283C341.748 225.271 330.267 232.685 326.403 244.169ZM440.793 471.882C444.047 537.904 457.901 591.474 477.789 591.298C497.677 591.144 508.819 537.332 512.819 471.332C516.842 404.672 507.395 351.63 475.823 351.894C444.25 352.136 437.47 404.078 440.793 471.882ZM674.951 577.806C659.764 576.552 653.074 534.708 655.425 484.064C657.82 432.1 666.793 392.896 690.929 394.876C715.044 396.878 718.388 438.04 710.456 488.618C702.591 538.734 690.138 579.06 674.951 577.806Z" fill="#343A4C"/>
<path fill-rule="evenodd" clip-rule="evenodd" d="M222.549 471.238C223.521 524.236 196.536 567.686 162.275 568.28C128.013 568.852 99.4468 526.392 98.475 473.394C97.5258 420.374 124.51 376.946 158.772 376.352C193.033 375.736 221.577 418.24 222.549 471.238Z" fill="#29313C"/>
<path fill-rule="evenodd" clip-rule="evenodd" d="M488.485 64.13C488.485 39.71 468.145 19.888 443.059 19.888C417.973 19.888 397.633 39.71 397.633 64.13C397.633 88.528 417.973 108.35 443.059 108.35C468.145 108.35 488.485 88.528 488.485 64.13Z" fill="#28313B"/>
<path fill-rule="evenodd" clip-rule="evenodd" d="M471.868 172.412H414.26L430.871 102.298H455.257L471.868 172.412Z" fill="#28313B"/>
</g>
</svg>
