<svg width="491" height="200" viewBox="0 0 491 200" fill="none" xmlns="http://www.w3.org/2000/svg">
<path fill-rule="evenodd" clip-rule="evenodd" d="M345.208 123.955L144.847 123.576L144.859 117.402L345.22 117.781L345.208 123.955Z" fill="#89A1B1"/>
<path fill-rule="evenodd" clip-rule="evenodd" d="M324.216 167.951C323.275 171.591 320.242 174.35 316.466 175.05C307.569 176.702 290.72 179.215 245.623 179.129C200.162 179.043 182.706 176.423 173.524 174.739C169.695 174.037 166.658 171.196 165.746 167.496C163.942 160.178 161.467 149.178 161.519 121.859C161.571 94.1915 164.152 83.1683 165.989 75.9624C166.915 72.3286 169.918 69.5492 173.68 68.838C182.403 67.1884 198.984 64.8198 245.84 64.9087C292.194 64.9963 308.237 67.3753 316.7 69.0549C320.434 69.7957 323.4 72.5554 324.333 76.1649C326.136 83.1444 328.596 93.8413 328.542 122.175C328.489 150.216 326.04 160.891 324.216 167.951Z" fill="#343A4C"/>
<mask id="mask0" mask-type="alpha" maskUnits="userSpaceOnUse" x="141" y="38" width="208" height="161">
<path fill-rule="evenodd" clip-rule="evenodd" d="M141.485 38.2593H348.581V198.984H141.485V38.2593Z" fill="white"/>
</mask>
<g mask="url(#mask0)">
<path fill-rule="evenodd" clip-rule="evenodd" d="M243.903 50.6066C202.943 50.6066 184.188 52.9633 172.401 55.0294C165.188 56.2938 159.559 61.7381 158.061 68.8983C156.16 77.9851 153.883 94.3148 153.833 120.506C153.785 145.685 155.858 158.057 157.805 167.678C159.248 174.806 164.817 180.259 171.994 181.57C184.686 183.887 204.535 186.557 245.706 186.635C286.394 186.699 305.71 184.17 317.994 181.946C325.188 180.643 330.778 175.199 332.234 168.077C334.143 158.74 336.184 146.622 336.233 120.851C336.283 94.1119 334.15 77.9785 332.351 69.1526C330.889 61.9747 325.275 56.4958 318.047 55.1928C306.438 53.1003 287.753 50.6877 245.963 50.6086C245.272 50.6074 244.581 50.6066 243.903 50.6066ZM247.501 198.984C246.897 198.984 246.295 198.984 245.682 198.982C203.531 198.903 182.975 196.126 169.776 193.716C157.602 191.493 148.153 182.234 145.703 170.127C143.637 159.914 141.436 146.813 141.486 120.482C141.537 93.2451 143.956 76.0219 145.975 66.3696C148.514 54.2346 158.05 45.0095 170.269 42.8677C182.549 40.7152 202.002 38.2593 243.916 38.2593C244.602 38.2593 245.288 38.2601 245.987 38.2613C288.744 38.3424 308.128 40.8584 320.238 43.0414C332.469 45.2462 341.973 54.5277 344.451 66.6873C347.194 80.1496 348.622 98.8874 348.58 120.875C348.529 147.787 346.36 160.627 344.332 170.55C341.858 182.646 332.383 191.888 320.193 194.095C307.585 196.378 287.944 198.984 247.501 198.984Z" fill="#28313B"/>
</g>
<mask id="mask1" mask-type="alpha" maskUnits="userSpaceOnUse" x="239" y="0" width="23" height="23">
<path fill-rule="evenodd" clip-rule="evenodd" d="M239.02 0.411133H261.519V22.9104H239.02V0.411133Z" fill="white"/>
</mask>
<g mask="url(#mask1)">
<path fill-rule="evenodd" clip-rule="evenodd" d="M261.519 11.6822C261.531 5.46902 256.504 0.423088 250.291 0.411153C244.078 0.399628 239.032 5.42663 239.02 11.6394C239.008 17.8525 244.036 22.8989 250.248 22.9104C256.462 22.9228 261.508 17.8953 261.519 11.6822Z" fill="#28313B"/>
</g>
<path fill-rule="evenodd" clip-rule="evenodd" d="M257.351 39.2267L243.083 39.1995L247.233 21.3721L253.269 21.3836L257.351 39.2267Z" fill="#28313B"/>
<path fill-rule="evenodd" clip-rule="evenodd" d="M269.62 124.012L265.254 119.647L279.336 105.565C281.207 103.694 282.24 101.204 282.243 98.5538C282.24 95.9098 281.207 93.4197 279.336 91.5483C275.469 87.6815 269.179 87.6799 265.314 91.5442L251.234 105.625L246.868 101.26L260.949 87.179C267.22 80.9074 277.427 80.9082 283.701 87.1827C286.737 90.2185 288.411 94.2565 288.416 98.5538C288.411 102.857 286.737 106.895 283.702 109.931L269.62 124.012Z" fill="white"/>
<path fill-rule="evenodd" clip-rule="evenodd" d="M228.08 158.881C223.961 158.881 219.842 157.313 216.706 154.178C210.433 147.904 210.431 137.697 216.702 131.426L230.784 117.344L235.149 121.71L221.068 135.791C217.203 139.655 217.205 145.946 221.072 149.813C224.937 153.677 231.224 153.677 235.089 149.812L249.17 135.731L253.536 140.096L239.455 154.178C236.319 157.313 232.199 158.881 228.08 158.881Z" fill="white"/>
<path fill-rule="evenodd" clip-rule="evenodd" d="M277.823 151.208L268.197 141.582L271.107 138.672L280.733 148.298L277.823 151.208Z" fill="#E8D738"/>
<mask id="mask2" mask-type="alpha" maskUnits="userSpaceOnUse" x="0" y="0" width="491" height="199">
<path fill-rule="evenodd" clip-rule="evenodd" d="M0 198.984H490.066V0.411133H0V198.984Z" fill="white"/>
</mask>
<g mask="url(#mask2)">
<path fill-rule="evenodd" clip-rule="evenodd" d="M276.429 133.098H290.042V128.982H276.429V133.098Z" fill="#E8D738"/>
<path fill-rule="evenodd" clip-rule="evenodd" d="M258.506 160.518H262.622V146.905H258.506V160.518Z" fill="#E8D738"/>
<path fill-rule="evenodd" clip-rule="evenodd" d="M229.299 102.684L219.673 93.0583L222.583 90.1484L232.208 99.7744L229.299 102.684Z" fill="#E8D738"/>
<path fill-rule="evenodd" clip-rule="evenodd" d="M237.783 94.4523H241.899V80.8394H237.783V94.4523Z" fill="#E8D738"/>
<path fill-rule="evenodd" clip-rule="evenodd" d="M210.364 112.375H223.977V108.259H210.364V112.375Z" fill="#E8D738"/>
</g>
<path fill-rule="evenodd" clip-rule="evenodd" d="M69.2659 83.2045H68.8173L33.6242 137.9H69.2659V83.2045ZM69.2659 166.144H3.05176e-05V137.9L64.7822 39.269H101.545V137.9H121.944V166.144H101.545V197.975H69.2659V166.144Z" fill="#E5E8EB"/>
<path fill-rule="evenodd" clip-rule="evenodd" d="M437.388 83.2045H436.94L401.747 137.9H437.388V83.2045ZM437.388 166.144H368.123V137.9L432.905 39.269H469.668V137.9H490.066V166.144H469.668V197.975H437.388V166.144Z" fill="#E5E8EB"/>
</svg>
