<svg width="140" height="140" viewBox="0 0 140 140" fill="none" xmlns="http://www.w3.org/2000/svg">
<path fill-rule="evenodd" clip-rule="evenodd" d="M70 140C108.66 140 140 108.66 140 70C140 31.3401 108.66 0 70 0C31.3401 0 0 31.3401 0 70C0 108.66 31.3401 140 70 140Z" fill="#F0F1F3"/>
<mask id="mask0" mask-type="alpha" maskUnits="userSpaceOnUse" x="0" y="0" width="140" height="140">
<path fill-rule="evenodd" clip-rule="evenodd" d="M70 140C108.66 140 140 108.66 140 70C140 31.3401 108.66 0 70 0C31.3401 0 0 31.3401 0 70C0 108.66 31.3401 140 70 140Z" fill="white"/>
</mask>
<g mask="url(#mask0)">
<path d="M47.4121 63.672H49.9081V72.696H54.5321V75H47.4121V63.672ZM55.3018 69.336C55.3018 68.4293 55.4511 67.608 55.7498 66.872C56.0591 66.136 56.4858 65.512 57.0298 65C57.5738 64.4773 58.2191 64.0773 58.9658 63.8C59.7125 63.5227 60.5285 63.384 61.4138 63.384C62.2991 63.384 63.1151 63.5227 63.8618 63.8C64.6085 64.0773 65.2538 64.4773 65.7978 65C66.3418 65.512 66.7631 66.136 67.0618 66.872C67.3711 67.608 67.5258 68.4293 67.5258 69.336C67.5258 70.2427 67.3711 71.064 67.0618 71.8C66.7631 72.536 66.3418 73.1653 65.7978 73.688C65.2538 74.2 64.6085 74.5947 63.8618 74.872C63.1151 75.1493 62.2991 75.288 61.4138 75.288C60.5285 75.288 59.7125 75.1493 58.9658 74.872C58.2191 74.5947 57.5738 74.2 57.0298 73.688C56.4858 73.1653 56.0591 72.536 55.7498 71.8C55.4511 71.064 55.3018 70.2427 55.3018 69.336ZM57.8938 69.336C57.8938 69.8693 57.9738 70.36 58.1338 70.808C58.3045 71.2453 58.5445 71.6293 58.8538 71.96C59.1631 72.28 59.5311 72.5307 59.9578 72.712C60.3951 72.8933 60.8805 72.984 61.4138 72.984C61.9471 72.984 62.4271 72.8933 62.8538 72.712C63.2911 72.5307 63.6645 72.28 63.9738 71.96C64.2831 71.6293 64.5178 71.2453 64.6778 70.808C64.8485 70.36 64.9338 69.8693 64.9338 69.336C64.9338 68.8133 64.8485 68.328 64.6778 67.88C64.5178 67.432 64.2831 67.048 63.9738 66.728C63.6645 66.3973 63.2911 66.1413 62.8538 65.96C62.4271 65.7787 61.9471 65.688 61.4138 65.688C60.8805 65.688 60.3951 65.7787 59.9578 65.96C59.5311 66.1413 59.1631 66.3973 58.8538 66.728C58.5445 67.048 58.3045 67.432 58.1338 67.88C57.9738 68.328 57.8938 68.8133 57.8938 69.336ZM79.4783 74.2C78.7423 74.584 77.9743 74.8613 77.1743 75.032C76.3743 75.2027 75.5583 75.288 74.7263 75.288C73.841 75.288 73.025 75.1493 72.2783 74.872C71.5316 74.5947 70.8863 74.2 70.3423 73.688C69.7983 73.1653 69.3716 72.536 69.0623 71.8C68.7636 71.064 68.6143 70.2427 68.6143 69.336C68.6143 68.4293 68.7636 67.608 69.0623 66.872C69.3716 66.136 69.7983 65.512 70.3423 65C70.8863 64.4773 71.5316 64.0773 72.2783 63.8C73.025 63.5227 73.841 63.384 74.7263 63.384C75.633 63.384 76.465 63.496 77.2223 63.72C77.9903 63.9333 78.6623 64.3067 79.2383 64.84L77.4783 66.76C77.137 66.408 76.753 66.1413 76.3263 65.96C75.8996 65.7787 75.3663 65.688 74.7263 65.688C74.193 65.688 73.7076 65.7787 73.2703 65.96C72.8436 66.1413 72.4756 66.3973 72.1663 66.728C71.857 67.048 71.617 67.432 71.4463 67.88C71.2863 68.328 71.2063 68.8133 71.2063 69.336C71.2063 69.8693 71.2863 70.36 71.4463 70.808C71.617 71.2453 71.857 71.6293 72.1663 71.96C72.4756 72.28 72.8436 72.5307 73.2703 72.712C73.7076 72.8933 74.193 72.984 74.7263 72.984C75.2703 72.984 75.7396 72.9253 76.1343 72.808C76.529 72.68 76.8436 72.552 77.0783 72.424V70.584H75.0463V68.28H79.4783V74.2ZM81.0674 69.336C81.0674 68.4293 81.2168 67.608 81.5154 66.872C81.8248 66.136 82.2514 65.512 82.7954 65C83.3394 64.4773 83.9848 64.0773 84.7314 63.8C85.4781 63.5227 86.2941 63.384 87.1794 63.384C88.0648 63.384 88.8808 63.5227 89.6274 63.8C90.3741 64.0773 91.0194 64.4773 91.5634 65C92.1074 65.512 92.5288 66.136 92.8274 66.872C93.1368 67.608 93.2914 68.4293 93.2914 69.336C93.2914 70.2427 93.1368 71.064 92.8274 71.8C92.5288 72.536 92.1074 73.1653 91.5634 73.688C91.0194 74.2 90.3741 74.5947 89.6274 74.872C88.8808 75.1493 88.0648 75.288 87.1794 75.288C86.2941 75.288 85.4781 75.1493 84.7314 74.872C83.9848 74.5947 83.3394 74.2 82.7954 73.688C82.2514 73.1653 81.8248 72.536 81.5154 71.8C81.2168 71.064 81.0674 70.2427 81.0674 69.336ZM83.6594 69.336C83.6594 69.8693 83.7394 70.36 83.8994 70.808C84.0701 71.2453 84.3101 71.6293 84.6194 71.96C84.9288 72.28 85.2968 72.5307 85.7234 72.712C86.1608 72.8933 86.6461 72.984 87.1794 72.984C87.7128 72.984 88.1928 72.8933 88.6194 72.712C89.0568 72.5307 89.4301 72.28 89.7394 71.96C90.0488 71.6293 90.2834 71.2453 90.4434 70.808C90.6141 70.36 90.6994 69.8693 90.6994 69.336C90.6994 68.8133 90.6141 68.328 90.4434 67.88C90.2834 67.432 90.0488 67.048 89.7394 66.728C89.4301 66.3973 89.0568 66.1413 88.6194 65.96C88.1928 65.7787 87.7128 65.688 87.1794 65.688C86.6461 65.688 86.1608 65.7787 85.7234 65.96C85.2968 66.1413 84.9288 66.3973 84.6194 66.728C84.3101 67.048 84.0701 67.432 83.8994 67.88C83.7394 68.328 83.6594 68.8133 83.6594 69.336Z" fill="#D4D6D8"/>
</g>
</svg>
