<svg width="270" height="169" viewBox="0 0 270 169" fill="none" xmlns="http://www.w3.org/2000/svg">
<path d="M0 0H270V169H0V0Z" fill="#2FA9E0"/>
<g opacity="0.15">
<path fill-rule="evenodd" clip-rule="evenodd" d="M121.964 57.6797C119.468 57.6797 116.994 58.2219 114.764 59.2691C111.781 60.6645 107.309 62.9025 102.946 65.6215C98.4308 68.4389 94.0708 72.0908 91.2096 74.661C89.5173 76.176 88.5254 78.3395 88.4955 80.5934C88.4137 86.4408 88.5336 97.6385 90.2613 106.931C90.8798 110.253 92.7574 113.169 95.5478 115.141C101.221 119.151 109.936 124.196 117.375 126.328C118.787 126.732 120.234 126.835 121.672 126.625C130.093 125.416 158.675 120.98 172.908 114.723C173.853 114.309 174.556 113.472 174.788 112.488C176.333 105.952 179.761 89.2156 178.279 74.9826C178.151 73.7706 177.429 72.6995 176.344 72.1227C168.973 68.1864 148.999 58.905 122.751 57.6983C122.49 57.685 122.226 57.6797 121.964 57.6797ZM120.209 132.598C118.686 132.598 117.171 132.38 115.683 131.955C105.396 129.007 94.9701 121.974 92.0216 119.888C87.9668 117.025 85.2418 112.794 84.348 107.978C82.5277 98.1993 82.3996 86.5737 82.4841 80.5137L85.4898 80.5536L82.4841 80.5137C82.5386 76.6571 84.2363 72.9493 87.1384 70.3446C90.1768 67.6176 94.8256 63.7264 99.7088 60.6831C104.322 57.8046 109.028 55.4497 112.162 53.9826C115.522 52.4091 119.283 51.6676 123.035 51.8403C150.533 53.1055 171.496 62.8467 179.23 66.977C182.05 68.4814 183.93 71.2536 184.257 74.3899C185.832 89.4947 182.257 106.986 180.647 113.804C179.996 116.563 178.025 118.904 175.379 120.068C160.435 126.639 131.164 131.189 122.547 132.428C121.768 132.539 120.988 132.598 120.209 132.598Z" fill="#3D3E40"/>
<path fill-rule="evenodd" clip-rule="evenodd" d="M119.356 63.4989C116.953 70.6433 110.838 93.1902 119.026 118.43C119.672 120.415 121.67 121.678 123.79 121.436C133.262 120.362 159.106 117.133 171.3 112.635C171.793 112.455 172.153 112.045 172.267 111.543C173.229 107.253 177.622 86.6359 175.848 75.9405C175.687 74.973 175.063 74.1464 174.159 73.7265C169.166 71.3928 150.756 63.6265 122.697 61.338C121.206 61.2157 119.822 62.1115 119.356 63.4989ZM133.149 91.0097C133.541 98.986 135.211 105.458 137.609 105.437C140.007 105.418 141.351 98.9169 141.833 90.9432C142.318 82.8898 141.179 76.4816 137.372 76.5135C133.566 76.5428 132.748 82.8181 133.149 91.0097ZM161.382 103.807C159.551 103.655 158.745 98.5998 159.028 92.4814C159.317 86.2034 160.399 81.4671 163.309 81.7063C166.217 81.9481 166.62 86.9211 165.663 93.0316C164.715 99.0862 163.214 103.958 161.382 103.807Z" fill="#3D3E40"/>
<path fill-rule="evenodd" clip-rule="evenodd" d="M106.834 90.9318C106.951 97.3347 103.697 102.584 99.5663 102.656C95.4352 102.725 91.9908 97.5952 91.8736 91.1923C91.7592 84.7868 95.0128 79.5401 99.1439 79.4683C103.275 79.3939 106.717 84.529 106.834 90.9318Z" fill="#3D3E40"/>
<path fill-rule="evenodd" clip-rule="evenodd" d="M138.899 41.7478C138.899 38.7975 136.447 36.4027 133.422 36.4027C130.397 36.4027 127.945 38.7975 127.945 41.7478C127.945 44.6954 130.397 47.0901 133.422 47.0901C136.447 47.0901 138.899 44.6954 138.899 41.7478Z" fill="#3D3E40"/>
<path fill-rule="evenodd" clip-rule="evenodd" d="M136.896 54.8296H129.95L131.952 46.3589H134.893L136.896 54.8296Z" fill="#3D3E40"/>
</g>
</svg>
