<svg width="1440" height="482" viewBox="0 0 1440 482" fill="none" xmlns="http://www.w3.org/2000/svg">
<g opacity="0.2">
<g opacity="0.5">
<path d="M-10 396.514C12.9479 338.322 78.0415 219.289 154.833 208.692C231.624 198.094 295.599 65.815 317.987 1" stroke="#F6F9FB" stroke-width="5"/>
<path d="M474.477 16.0059C454.586 81.9597 395.696 219.642 319.268 242.742C223.733 271.617 229.056 333.626 215.328 368.181C201.6 402.735 162.657 453.858 105.224 453.858" stroke="#F6F9FB" stroke-width="5"/>
<path d="M657.764 5.28711C628.592 44.1678 562.956 146.485 533.785 244.71C497.32 367.491 462.819 417.548 405.879 446.354" stroke="#F6F9FB" stroke-width="5"/>
<path d="M803 10.6465C776.866 83.5234 722.608 204.825 679.43 243.181C646.927 272.054 608.128 396.127 595.061 465.648" stroke="#F6F9FB" stroke-width="5"/>
</g>
<g opacity="0.5">
<path d="M656 411.514C678.948 353.322 744.042 234.289 820.833 223.692C897.624 213.094 961.599 80.815 983.987 16" stroke="#F6F9FB" stroke-width="5"/>
<path d="M1140.48 31.0059C1120.59 96.9597 1061.7 234.642 985.268 257.742C889.733 286.617 895.056 348.626 881.328 383.181C867.6 417.735 828.657 468.858 771.224 468.858" stroke="#F6F9FB" stroke-width="5"/>
<path d="M1323.76 20.2871C1294.59 59.1678 1228.96 161.485 1199.78 259.71C1163.32 382.491 1128.82 432.548 1071.88 461.354" stroke="#F6F9FB" stroke-width="5"/>
<path d="M1469 25.6465C1442.87 98.5234 1388.61 219.825 1345.43 258.181C1312.93 287.054 1274.13 411.127 1261.06 480.648" stroke="#F6F9FB" stroke-width="5"/>
</g>
</g>
</svg>
