<svg width="316" height="171" viewBox="0 0 316 171" fill="none" xmlns="http://www.w3.org/2000/svg">
<path d="M0 0H316V154.5C316 154.5 221 119.5 161.5 130.5C102 141.5 120 179 0 169V0Z" fill="url(#paint0_linear)"/>
<g opacity="0.6">
<path d="M13.8696 25.4735C13.8696 27.3918 12.3124 28.947 10.3914 28.947C8.47036 28.947 6.91309 27.3918 6.91309 25.4735C6.91309 23.5551 8.47036 22 10.3914 22C12.3124 22 13.8696 23.5551 13.8696 25.4735Z" fill="url(#paint1_linear)"/>
<path d="M13.8696 39.3675C13.8696 41.2858 12.3124 42.8409 10.3914 42.8409C8.47036 42.8409 6.91309 41.2858 6.91309 39.3675C6.91309 37.4491 8.47036 35.894 10.3914 35.894C12.3124 35.894 13.8696 37.4491 13.8696 39.3675Z" fill="url(#paint2_linear)"/>
<path d="M13.8696 53.2614C13.8696 55.1798 12.3124 56.7349 10.3914 56.7349C8.47036 56.7349 6.91309 55.1798 6.91309 53.2614C6.91309 51.3431 8.47036 49.7879 10.3914 49.7879C12.3124 49.7879 13.8696 51.3431 13.8696 53.2614Z" fill="url(#paint3_linear)"/>
<path d="M13.8696 67.1554C13.8696 69.0737 12.3124 70.6289 10.3914 70.6289C8.47036 70.6289 6.91309 69.0737 6.91309 67.1554C6.91309 65.237 8.47036 63.6819 10.3914 63.6819C12.3124 63.6819 13.8696 65.237 13.8696 67.1554Z" fill="url(#paint4_linear)"/>
<path d="M13.8696 81.0493C13.8696 82.9677 12.3124 84.5228 10.3914 84.5228C8.47036 84.5228 6.91309 82.9677 6.91309 81.0493C6.91309 79.131 8.47036 77.5758 10.3914 77.5758C12.3124 77.5758 13.8696 79.131 13.8696 81.0493Z" fill="url(#paint5_linear)"/>
<path d="M13.8696 94.9433C13.8696 96.8617 12.3124 98.4168 10.3914 98.4168C8.47036 98.4168 6.91309 96.8617 6.91309 94.9433C6.91309 93.0249 8.47036 91.4698 10.3914 91.4698C12.3124 91.4698 13.8696 93.0249 13.8696 94.9433Z" fill="url(#paint6_linear)"/>
<path d="M13.8696 108.837C13.8696 110.756 12.3124 112.311 10.3914 112.311C8.47036 112.311 6.91309 110.756 6.91309 108.837C6.91309 106.919 8.47036 105.364 10.3914 105.364C12.3124 105.364 13.8696 106.919 13.8696 108.837Z" fill="url(#paint7_linear)"/>
<path d="M13.8696 122.731C13.8696 124.65 12.3124 126.205 10.3914 126.205C8.47036 126.205 6.91309 124.65 6.91309 122.731C6.91309 120.813 8.47036 119.258 10.3914 119.258C12.3124 119.258 13.8696 120.813 13.8696 122.731Z" fill="url(#paint8_linear)"/>
<path d="M27.7828 25.4735C27.7828 27.3918 26.2255 28.947 24.3045 28.947C22.3835 28.947 20.8262 27.3918 20.8262 25.4735C20.8262 23.5551 22.3835 22 24.3045 22C26.2255 22 27.7828 23.5551 27.7828 25.4735Z" fill="url(#paint9_linear)"/>
<path d="M27.7828 39.3675C27.7828 41.2858 26.2255 42.8409 24.3045 42.8409C22.3835 42.8409 20.8262 41.2858 20.8262 39.3675C20.8262 37.4491 22.3835 35.894 24.3045 35.894C26.2255 35.894 27.7828 37.4491 27.7828 39.3675Z" fill="url(#paint10_linear)"/>
<path d="M27.7828 53.2614C27.7828 55.1798 26.2255 56.7349 24.3045 56.7349C22.3835 56.7349 20.8262 55.1798 20.8262 53.2614C20.8262 51.3431 22.3835 49.7879 24.3045 49.7879C26.2255 49.7879 27.7828 51.3431 27.7828 53.2614Z" fill="url(#paint11_linear)"/>
<path d="M27.7828 67.1554C27.7828 69.0737 26.2255 70.6289 24.3045 70.6289C22.3835 70.6289 20.8262 69.0737 20.8262 67.1554C20.8262 65.237 22.3835 63.6819 24.3045 63.6819C26.2255 63.6819 27.7828 65.237 27.7828 67.1554Z" fill="url(#paint12_linear)"/>
<path d="M27.7828 81.0493C27.7828 82.9677 26.2255 84.5228 24.3045 84.5228C22.3835 84.5228 20.8262 82.9677 20.8262 81.0493C20.8262 79.131 22.3835 77.5758 24.3045 77.5758C26.2255 77.5758 27.7828 79.131 27.7828 81.0493Z" fill="url(#paint13_linear)"/>
<path d="M27.7828 94.9433C27.7828 96.8617 26.2255 98.4168 24.3045 98.4168C22.3835 98.4168 20.8262 96.8617 20.8262 94.9433C20.8262 93.0249 22.3835 91.4698 24.3045 91.4698C26.2255 91.4698 27.7828 93.0249 27.7828 94.9433Z" fill="url(#paint14_linear)"/>
<path d="M27.7828 108.837C27.7828 110.756 26.2255 112.311 24.3045 112.311C22.3835 112.311 20.8262 110.756 20.8262 108.837C20.8262 106.919 22.3835 105.364 24.3045 105.364C26.2255 105.364 27.7828 106.919 27.7828 108.837Z" fill="url(#paint15_linear)"/>
<path d="M27.7828 122.731C27.7828 124.65 26.2255 126.205 24.3045 126.205C22.3835 126.205 20.8262 124.65 20.8262 122.731C20.8262 120.813 22.3835 119.258 24.3045 119.258C26.2255 119.258 27.7828 120.813 27.7828 122.731Z" fill="url(#paint16_linear)"/>
<path d="M41.6959 25.4735C41.6959 27.3918 40.1386 28.947 38.2176 28.947C36.2966 28.947 34.7393 27.3918 34.7393 25.4735C34.7393 23.5551 36.2966 22 38.2176 22C40.1386 22 41.6959 23.5551 41.6959 25.4735Z" fill="url(#paint17_linear)"/>
<path d="M41.6959 39.3675C41.6959 41.2858 40.1386 42.8409 38.2176 42.8409C36.2966 42.8409 34.7393 41.2858 34.7393 39.3675C34.7393 37.4491 36.2966 35.894 38.2176 35.894C40.1386 35.894 41.6959 37.4491 41.6959 39.3675Z" fill="url(#paint18_linear)"/>
<path d="M41.6959 53.2614C41.6959 55.1798 40.1386 56.7349 38.2176 56.7349C36.2966 56.7349 34.7393 55.1798 34.7393 53.2614C34.7393 51.3431 36.2966 49.7879 38.2176 49.7879C40.1386 49.7879 41.6959 51.3431 41.6959 53.2614Z" fill="url(#paint19_linear)"/>
<path d="M41.6959 67.1554C41.6959 69.0737 40.1386 70.6289 38.2176 70.6289C36.2966 70.6289 34.7393 69.0737 34.7393 67.1554C34.7393 65.237 36.2966 63.6819 38.2176 63.6819C40.1386 63.6819 41.6959 65.237 41.6959 67.1554Z" fill="url(#paint20_linear)"/>
<path d="M41.6959 81.0493C41.6959 82.9677 40.1386 84.5228 38.2176 84.5228C36.2966 84.5228 34.7393 82.9677 34.7393 81.0493C34.7393 79.131 36.2966 77.5758 38.2176 77.5758C40.1386 77.5758 41.6959 79.131 41.6959 81.0493Z" fill="url(#paint21_linear)"/>
<path d="M41.6959 94.9433C41.6959 96.8617 40.1386 98.4168 38.2176 98.4168C36.2966 98.4168 34.7393 96.8617 34.7393 94.9433C34.7393 93.0249 36.2966 91.4698 38.2176 91.4698C40.1386 91.4698 41.6959 93.0249 41.6959 94.9433Z" fill="url(#paint22_linear)"/>
<path d="M41.6959 108.837C41.6959 110.756 40.1386 112.311 38.2176 112.311C36.2966 112.311 34.7393 110.756 34.7393 108.837C34.7393 106.919 36.2966 105.364 38.2176 105.364C40.1386 105.364 41.6959 106.919 41.6959 108.837Z" fill="url(#paint23_linear)"/>
<path d="M41.6959 122.731C41.6959 124.65 40.1386 126.205 38.2176 126.205C36.2966 126.205 34.7393 124.65 34.7393 122.731C34.7393 120.813 36.2966 119.258 38.2176 119.258C40.1386 119.258 41.6959 120.813 41.6959 122.731Z" fill="url(#paint24_linear)"/>
<path d="M55.609 25.4735C55.609 27.3918 54.0517 28.947 52.1307 28.947C50.2097 28.947 48.6524 27.3918 48.6524 25.4735C48.6524 23.5551 50.2097 22 52.1307 22C54.0517 22 55.609 23.5551 55.609 25.4735Z" fill="url(#paint25_linear)"/>
<path d="M55.609 39.3675C55.609 41.2858 54.0517 42.8409 52.1307 42.8409C50.2097 42.8409 48.6524 41.2858 48.6524 39.3675C48.6524 37.4491 50.2097 35.894 52.1307 35.894C54.0517 35.894 55.609 37.4491 55.609 39.3675Z" fill="url(#paint26_linear)"/>
<path d="M55.609 53.2614C55.609 55.1798 54.0517 56.7349 52.1307 56.7349C50.2097 56.7349 48.6524 55.1798 48.6524 53.2614C48.6524 51.3431 50.2097 49.7879 52.1307 49.7879C54.0517 49.7879 55.609 51.3431 55.609 53.2614Z" fill="url(#paint27_linear)"/>
<path d="M55.609 67.1554C55.609 69.0737 54.0517 70.6289 52.1307 70.6289C50.2097 70.6289 48.6524 69.0737 48.6524 67.1554C48.6524 65.237 50.2097 63.6819 52.1307 63.6819C54.0517 63.6819 55.609 65.237 55.609 67.1554Z" fill="url(#paint28_linear)"/>
<path d="M55.609 81.0493C55.609 82.9677 54.0517 84.5228 52.1307 84.5228C50.2097 84.5228 48.6524 82.9677 48.6524 81.0493C48.6524 79.131 50.2097 77.5758 52.1307 77.5758C54.0517 77.5758 55.609 79.131 55.609 81.0493Z" fill="url(#paint29_linear)"/>
<path d="M55.609 94.9433C55.609 96.8617 54.0517 98.4168 52.1307 98.4168C50.2097 98.4168 48.6524 96.8617 48.6524 94.9433C48.6524 93.0249 50.2097 91.4698 52.1307 91.4698C54.0517 91.4698 55.609 93.0249 55.609 94.9433Z" fill="url(#paint30_linear)"/>
<path d="M55.609 108.837C55.609 110.756 54.0517 112.311 52.1307 112.311C50.2097 112.311 48.6524 110.756 48.6524 108.837C48.6524 106.919 50.2097 105.364 52.1307 105.364C54.0517 105.364 55.609 106.919 55.609 108.837Z" fill="url(#paint31_linear)"/>
<path d="M55.609 122.731C55.609 124.65 54.0517 126.205 52.1307 126.205C50.2097 126.205 48.6524 124.65 48.6524 122.731C48.6524 120.813 50.2097 119.258 52.1307 119.258C54.0517 119.258 55.609 120.813 55.609 122.731Z" fill="url(#paint32_linear)"/>
<path d="M69.5221 25.4735C69.5221 27.3918 67.9648 28.947 66.0438 28.947C64.1228 28.947 62.5655 27.3918 62.5655 25.4735C62.5655 23.5551 64.1228 22 66.0438 22C67.9648 22 69.5221 23.5551 69.5221 25.4735Z" fill="url(#paint33_linear)"/>
<path d="M69.5221 39.3675C69.5221 41.2858 67.9648 42.8409 66.0438 42.8409C64.1228 42.8409 62.5655 41.2858 62.5655 39.3675C62.5655 37.4491 64.1228 35.894 66.0438 35.894C67.9648 35.894 69.5221 37.4491 69.5221 39.3675Z" fill="url(#paint34_linear)"/>
<path d="M69.5221 53.2614C69.5221 55.1798 67.9648 56.7349 66.0438 56.7349C64.1228 56.7349 62.5655 55.1798 62.5655 53.2614C62.5655 51.3431 64.1228 49.7879 66.0438 49.7879C67.9648 49.7879 69.5221 51.3431 69.5221 53.2614Z" fill="url(#paint35_linear)"/>
<path d="M69.5221 67.1554C69.5221 69.0737 67.9648 70.6289 66.0438 70.6289C64.1228 70.6289 62.5655 69.0737 62.5655 67.1554C62.5655 65.237 64.1228 63.6819 66.0438 63.6819C67.9648 63.6819 69.5221 65.237 69.5221 67.1554Z" fill="url(#paint36_linear)"/>
<path d="M69.5221 81.0493C69.5221 82.9677 67.9648 84.5228 66.0438 84.5228C64.1228 84.5228 62.5655 82.9677 62.5655 81.0493C62.5655 79.131 64.1228 77.5758 66.0438 77.5758C67.9648 77.5758 69.5221 79.131 69.5221 81.0493Z" fill="url(#paint37_linear)"/>
<path d="M69.5221 94.9433C69.5221 96.8617 67.9648 98.4168 66.0438 98.4168C64.1228 98.4168 62.5655 96.8617 62.5655 94.9433C62.5655 93.0249 64.1228 91.4698 66.0438 91.4698C67.9648 91.4698 69.5221 93.0249 69.5221 94.9433Z" fill="url(#paint38_linear)"/>
<path d="M69.5221 108.837C69.5221 110.756 67.9648 112.311 66.0438 112.311C64.1228 112.311 62.5655 110.756 62.5655 108.837C62.5655 106.919 64.1228 105.364 66.0438 105.364C67.9648 105.364 69.5221 106.919 69.5221 108.837Z" fill="url(#paint39_linear)"/>
<path d="M69.5221 122.731C69.5221 124.65 67.9648 126.205 66.0438 126.205C64.1228 126.205 62.5655 124.65 62.5655 122.731C62.5655 120.813 64.1228 119.258 66.0438 119.258C67.9648 119.258 69.5221 120.813 69.5221 122.731Z" fill="url(#paint40_linear)"/>
<path d="M83.4352 25.4735C83.4352 27.3918 81.8779 28.947 79.9569 28.947C78.0359 28.947 76.4787 27.3918 76.4787 25.4735C76.4787 23.5551 78.0359 22 79.9569 22C81.8779 22 83.4352 23.5551 83.4352 25.4735Z" fill="url(#paint41_linear)"/>
<path d="M83.4352 39.3675C83.4352 41.2858 81.8779 42.8409 79.9569 42.8409C78.0359 42.8409 76.4787 41.2858 76.4787 39.3675C76.4787 37.4491 78.0359 35.894 79.9569 35.894C81.8779 35.894 83.4352 37.4491 83.4352 39.3675Z" fill="url(#paint42_linear)"/>
<path d="M83.4352 53.2614C83.4352 55.1798 81.8779 56.7349 79.9569 56.7349C78.0359 56.7349 76.4787 55.1798 76.4787 53.2614C76.4787 51.3431 78.0359 49.7879 79.9569 49.7879C81.8779 49.7879 83.4352 51.3431 83.4352 53.2614Z" fill="url(#paint43_linear)"/>
<path d="M83.4352 67.1554C83.4352 69.0737 81.8779 70.6289 79.9569 70.6289C78.0359 70.6289 76.4787 69.0737 76.4787 67.1554C76.4787 65.237 78.0359 63.6819 79.9569 63.6819C81.8779 63.6819 83.4352 65.237 83.4352 67.1554Z" fill="url(#paint44_linear)"/>
<path d="M83.4352 81.0493C83.4352 82.9677 81.8779 84.5228 79.9569 84.5228C78.0359 84.5228 76.4787 82.9677 76.4787 81.0493C76.4787 79.131 78.0359 77.5758 79.9569 77.5758C81.8779 77.5758 83.4352 79.131 83.4352 81.0493Z" fill="url(#paint45_linear)"/>
<path d="M83.4352 94.9433C83.4352 96.8617 81.8779 98.4168 79.9569 98.4168C78.0359 98.4168 76.4787 96.8617 76.4787 94.9433C76.4787 93.0249 78.0359 91.4698 79.9569 91.4698C81.8779 91.4698 83.4352 93.0249 83.4352 94.9433Z" fill="url(#paint46_linear)"/>
<path d="M83.4352 108.837C83.4352 110.756 81.8779 112.311 79.9569 112.311C78.0359 112.311 76.4787 110.756 76.4787 108.837C76.4787 106.919 78.0359 105.364 79.9569 105.364C81.8779 105.364 83.4352 106.919 83.4352 108.837Z" fill="url(#paint47_linear)"/>
<path d="M83.4352 122.731C83.4352 124.65 81.8779 126.205 79.9569 126.205C78.0359 126.205 76.4787 124.65 76.4787 122.731C76.4787 120.813 78.0359 119.258 79.9569 119.258C81.8779 119.258 83.4352 120.813 83.4352 122.731Z" fill="url(#paint48_linear)"/>
<path d="M97.3483 25.4735C97.3483 27.3918 95.791 28.947 93.87 28.947C91.949 28.947 90.3918 27.3918 90.3918 25.4735C90.3918 23.5551 91.949 22 93.87 22C95.791 22 97.3483 23.5551 97.3483 25.4735Z" fill="url(#paint49_linear)"/>
<path d="M97.3483 39.3675C97.3483 41.2858 95.791 42.8409 93.87 42.8409C91.949 42.8409 90.3918 41.2858 90.3918 39.3675C90.3918 37.4491 91.949 35.894 93.87 35.894C95.791 35.894 97.3483 37.4491 97.3483 39.3675Z" fill="url(#paint50_linear)"/>
<path d="M97.3483 53.2614C97.3483 55.1798 95.791 56.7349 93.87 56.7349C91.949 56.7349 90.3918 55.1798 90.3918 53.2614C90.3918 51.3431 91.949 49.7879 93.87 49.7879C95.791 49.7879 97.3483 51.3431 97.3483 53.2614Z" fill="url(#paint51_linear)"/>
<path d="M97.3483 67.1554C97.3483 69.0737 95.791 70.6289 93.87 70.6289C91.949 70.6289 90.3918 69.0737 90.3918 67.1554C90.3918 65.237 91.949 63.6819 93.87 63.6819C95.791 63.6819 97.3483 65.237 97.3483 67.1554Z" fill="url(#paint52_linear)"/>
<path d="M97.3483 81.0493C97.3483 82.9677 95.791 84.5228 93.87 84.5228C91.949 84.5228 90.3918 82.9677 90.3918 81.0493C90.3918 79.131 91.949 77.5758 93.87 77.5758C95.791 77.5758 97.3483 79.131 97.3483 81.0493Z" fill="url(#paint53_linear)"/>
<path d="M97.3483 94.9433C97.3483 96.8617 95.791 98.4168 93.87 98.4168C91.949 98.4168 90.3918 96.8617 90.3918 94.9433C90.3918 93.0249 91.949 91.4698 93.87 91.4698C95.791 91.4698 97.3483 93.0249 97.3483 94.9433Z" fill="url(#paint54_linear)"/>
<path d="M97.3483 108.837C97.3483 110.756 95.791 112.311 93.87 112.311C91.949 112.311 90.3918 110.756 90.3918 108.837C90.3918 106.919 91.949 105.364 93.87 105.364C95.791 105.364 97.3483 106.919 97.3483 108.837Z" fill="url(#paint55_linear)"/>
<path d="M97.3483 122.731C97.3483 124.65 95.791 126.205 93.87 126.205C91.949 126.205 90.3918 124.65 90.3918 122.731C90.3918 120.813 91.949 119.258 93.87 119.258C95.791 119.258 97.3483 120.813 97.3483 122.731Z" fill="url(#paint56_linear)"/>
</g>
<path opacity="0.5" d="M260 40L267.571 32L275.143 40L282.714 32L290.286 40L297.857 32L305.429 40L313 32" stroke="url(#paint57_linear)" stroke-width="4" stroke-linecap="round" stroke-linejoin="round"/>
<circle opacity="0.6" cx="247.5" cy="133.5" r="19.5" fill="url(#paint58_linear)"/>
<defs>
<linearGradient id="paint0_linear" x1="163.5" y1="1.1864e-08" x2="163.5" y2="209.5" gradientUnits="userSpaceOnUse">
<stop stop-color="#8357FF"/>
<stop offset="0.796066" stop-color="#F2E4FF"/>
</linearGradient>
<linearGradient id="paint1_linear" x1="45.1742" y1="22" x2="45.1742" y2="126.205" gradientUnits="userSpaceOnUse">
<stop stop-color="white"/>
<stop offset="1" stop-color="white" stop-opacity="0"/>
</linearGradient>
<linearGradient id="paint2_linear" x1="45.1742" y1="22" x2="45.1742" y2="126.205" gradientUnits="userSpaceOnUse">
<stop stop-color="white"/>
<stop offset="1" stop-color="white" stop-opacity="0"/>
</linearGradient>
<linearGradient id="paint3_linear" x1="45.1742" y1="22" x2="45.1742" y2="126.205" gradientUnits="userSpaceOnUse">
<stop stop-color="white"/>
<stop offset="1" stop-color="white" stop-opacity="0"/>
</linearGradient>
<linearGradient id="paint4_linear" x1="45.1742" y1="22" x2="45.1742" y2="126.205" gradientUnits="userSpaceOnUse">
<stop stop-color="white"/>
<stop offset="1" stop-color="white" stop-opacity="0"/>
</linearGradient>
<linearGradient id="paint5_linear" x1="45.1742" y1="22" x2="45.1742" y2="126.205" gradientUnits="userSpaceOnUse">
<stop stop-color="white"/>
<stop offset="1" stop-color="white" stop-opacity="0"/>
</linearGradient>
<linearGradient id="paint6_linear" x1="45.1742" y1="22" x2="45.1742" y2="126.205" gradientUnits="userSpaceOnUse">
<stop stop-color="white"/>
<stop offset="1" stop-color="white" stop-opacity="0"/>
</linearGradient>
<linearGradient id="paint7_linear" x1="45.1742" y1="22" x2="45.1742" y2="126.205" gradientUnits="userSpaceOnUse">
<stop stop-color="white"/>
<stop offset="1" stop-color="white" stop-opacity="0"/>
</linearGradient>
<linearGradient id="paint8_linear" x1="45.1742" y1="22" x2="45.1742" y2="126.205" gradientUnits="userSpaceOnUse">
<stop stop-color="white"/>
<stop offset="1" stop-color="white" stop-opacity="0"/>
</linearGradient>
<linearGradient id="paint9_linear" x1="45.1742" y1="22" x2="45.1742" y2="126.205" gradientUnits="userSpaceOnUse">
<stop stop-color="white"/>
<stop offset="1" stop-color="white" stop-opacity="0"/>
</linearGradient>
<linearGradient id="paint10_linear" x1="45.1742" y1="22" x2="45.1742" y2="126.205" gradientUnits="userSpaceOnUse">
<stop stop-color="white"/>
<stop offset="1" stop-color="white" stop-opacity="0"/>
</linearGradient>
<linearGradient id="paint11_linear" x1="45.1742" y1="22" x2="45.1742" y2="126.205" gradientUnits="userSpaceOnUse">
<stop stop-color="white"/>
<stop offset="1" stop-color="white" stop-opacity="0"/>
</linearGradient>
<linearGradient id="paint12_linear" x1="45.1742" y1="22" x2="45.1742" y2="126.205" gradientUnits="userSpaceOnUse">
<stop stop-color="white"/>
<stop offset="1" stop-color="white" stop-opacity="0"/>
</linearGradient>
<linearGradient id="paint13_linear" x1="45.1742" y1="22" x2="45.1742" y2="126.205" gradientUnits="userSpaceOnUse">
<stop stop-color="white"/>
<stop offset="1" stop-color="white" stop-opacity="0"/>
</linearGradient>
<linearGradient id="paint14_linear" x1="45.1742" y1="22" x2="45.1742" y2="126.205" gradientUnits="userSpaceOnUse">
<stop stop-color="white"/>
<stop offset="1" stop-color="white" stop-opacity="0"/>
</linearGradient>
<linearGradient id="paint15_linear" x1="45.1742" y1="22" x2="45.1742" y2="126.205" gradientUnits="userSpaceOnUse">
<stop stop-color="white"/>
<stop offset="1" stop-color="white" stop-opacity="0"/>
</linearGradient>
<linearGradient id="paint16_linear" x1="45.1742" y1="22" x2="45.1742" y2="126.205" gradientUnits="userSpaceOnUse">
<stop stop-color="white"/>
<stop offset="1" stop-color="white" stop-opacity="0"/>
</linearGradient>
<linearGradient id="paint17_linear" x1="45.1742" y1="22" x2="45.1742" y2="126.205" gradientUnits="userSpaceOnUse">
<stop stop-color="white"/>
<stop offset="1" stop-color="white" stop-opacity="0"/>
</linearGradient>
<linearGradient id="paint18_linear" x1="45.1742" y1="22" x2="45.1742" y2="126.205" gradientUnits="userSpaceOnUse">
<stop stop-color="white"/>
<stop offset="1" stop-color="white" stop-opacity="0"/>
</linearGradient>
<linearGradient id="paint19_linear" x1="45.1742" y1="22" x2="45.1742" y2="126.205" gradientUnits="userSpaceOnUse">
<stop stop-color="white"/>
<stop offset="1" stop-color="white" stop-opacity="0"/>
</linearGradient>
<linearGradient id="paint20_linear" x1="45.1742" y1="22" x2="45.1742" y2="126.205" gradientUnits="userSpaceOnUse">
<stop stop-color="white"/>
<stop offset="1" stop-color="white" stop-opacity="0"/>
</linearGradient>
<linearGradient id="paint21_linear" x1="45.1742" y1="22" x2="45.1742" y2="126.205" gradientUnits="userSpaceOnUse">
<stop stop-color="white"/>
<stop offset="1" stop-color="white" stop-opacity="0"/>
</linearGradient>
<linearGradient id="paint22_linear" x1="45.1742" y1="22" x2="45.1742" y2="126.205" gradientUnits="userSpaceOnUse">
<stop stop-color="white"/>
<stop offset="1" stop-color="white" stop-opacity="0"/>
</linearGradient>
<linearGradient id="paint23_linear" x1="45.1742" y1="22" x2="45.1742" y2="126.205" gradientUnits="userSpaceOnUse">
<stop stop-color="white"/>
<stop offset="1" stop-color="white" stop-opacity="0"/>
</linearGradient>
<linearGradient id="paint24_linear" x1="45.1742" y1="22" x2="45.1742" y2="126.205" gradientUnits="userSpaceOnUse">
<stop stop-color="white"/>
<stop offset="1" stop-color="white" stop-opacity="0"/>
</linearGradient>
<linearGradient id="paint25_linear" x1="45.1742" y1="22" x2="45.1742" y2="126.205" gradientUnits="userSpaceOnUse">
<stop stop-color="white"/>
<stop offset="1" stop-color="white" stop-opacity="0"/>
</linearGradient>
<linearGradient id="paint26_linear" x1="45.1742" y1="22" x2="45.1742" y2="126.205" gradientUnits="userSpaceOnUse">
<stop stop-color="white"/>
<stop offset="1" stop-color="white" stop-opacity="0"/>
</linearGradient>
<linearGradient id="paint27_linear" x1="45.1742" y1="22" x2="45.1742" y2="126.205" gradientUnits="userSpaceOnUse">
<stop stop-color="white"/>
<stop offset="1" stop-color="white" stop-opacity="0"/>
</linearGradient>
<linearGradient id="paint28_linear" x1="45.1742" y1="22" x2="45.1742" y2="126.205" gradientUnits="userSpaceOnUse">
<stop stop-color="white"/>
<stop offset="1" stop-color="white" stop-opacity="0"/>
</linearGradient>
<linearGradient id="paint29_linear" x1="45.1742" y1="22" x2="45.1742" y2="126.205" gradientUnits="userSpaceOnUse">
<stop stop-color="white"/>
<stop offset="1" stop-color="white" stop-opacity="0"/>
</linearGradient>
<linearGradient id="paint30_linear" x1="45.1742" y1="22" x2="45.1742" y2="126.205" gradientUnits="userSpaceOnUse">
<stop stop-color="white"/>
<stop offset="1" stop-color="white" stop-opacity="0"/>
</linearGradient>
<linearGradient id="paint31_linear" x1="45.1742" y1="22" x2="45.1742" y2="126.205" gradientUnits="userSpaceOnUse">
<stop stop-color="white"/>
<stop offset="1" stop-color="white" stop-opacity="0"/>
</linearGradient>
<linearGradient id="paint32_linear" x1="45.1742" y1="22" x2="45.1742" y2="126.205" gradientUnits="userSpaceOnUse">
<stop stop-color="white"/>
<stop offset="1" stop-color="white" stop-opacity="0"/>
</linearGradient>
<linearGradient id="paint33_linear" x1="45.1742" y1="22" x2="45.1742" y2="126.205" gradientUnits="userSpaceOnUse">
<stop stop-color="white"/>
<stop offset="1" stop-color="white" stop-opacity="0"/>
</linearGradient>
<linearGradient id="paint34_linear" x1="45.1742" y1="22" x2="45.1742" y2="126.205" gradientUnits="userSpaceOnUse">
<stop stop-color="white"/>
<stop offset="1" stop-color="white" stop-opacity="0"/>
</linearGradient>
<linearGradient id="paint35_linear" x1="45.1742" y1="22" x2="45.1742" y2="126.205" gradientUnits="userSpaceOnUse">
<stop stop-color="white"/>
<stop offset="1" stop-color="white" stop-opacity="0"/>
</linearGradient>
<linearGradient id="paint36_linear" x1="45.1742" y1="22" x2="45.1742" y2="126.205" gradientUnits="userSpaceOnUse">
<stop stop-color="white"/>
<stop offset="1" stop-color="white" stop-opacity="0"/>
</linearGradient>
<linearGradient id="paint37_linear" x1="45.1742" y1="22" x2="45.1742" y2="126.205" gradientUnits="userSpaceOnUse">
<stop stop-color="white"/>
<stop offset="1" stop-color="white" stop-opacity="0"/>
</linearGradient>
<linearGradient id="paint38_linear" x1="45.1742" y1="22" x2="45.1742" y2="126.205" gradientUnits="userSpaceOnUse">
<stop stop-color="white"/>
<stop offset="1" stop-color="white" stop-opacity="0"/>
</linearGradient>
<linearGradient id="paint39_linear" x1="45.1742" y1="22" x2="45.1742" y2="126.205" gradientUnits="userSpaceOnUse">
<stop stop-color="white"/>
<stop offset="1" stop-color="white" stop-opacity="0"/>
</linearGradient>
<linearGradient id="paint40_linear" x1="45.1742" y1="22" x2="45.1742" y2="126.205" gradientUnits="userSpaceOnUse">
<stop stop-color="white"/>
<stop offset="1" stop-color="white" stop-opacity="0"/>
</linearGradient>
<linearGradient id="paint41_linear" x1="45.1742" y1="22" x2="45.1742" y2="126.205" gradientUnits="userSpaceOnUse">
<stop stop-color="white"/>
<stop offset="1" stop-color="white" stop-opacity="0"/>
</linearGradient>
<linearGradient id="paint42_linear" x1="45.1742" y1="22" x2="45.1742" y2="126.205" gradientUnits="userSpaceOnUse">
<stop stop-color="white"/>
<stop offset="1" stop-color="white" stop-opacity="0"/>
</linearGradient>
<linearGradient id="paint43_linear" x1="45.1742" y1="22" x2="45.1742" y2="126.205" gradientUnits="userSpaceOnUse">
<stop stop-color="white"/>
<stop offset="1" stop-color="white" stop-opacity="0"/>
</linearGradient>
<linearGradient id="paint44_linear" x1="45.1742" y1="22" x2="45.1742" y2="126.205" gradientUnits="userSpaceOnUse">
<stop stop-color="white"/>
<stop offset="1" stop-color="white" stop-opacity="0"/>
</linearGradient>
<linearGradient id="paint45_linear" x1="45.1742" y1="22" x2="45.1742" y2="126.205" gradientUnits="userSpaceOnUse">
<stop stop-color="white"/>
<stop offset="1" stop-color="white" stop-opacity="0"/>
</linearGradient>
<linearGradient id="paint46_linear" x1="45.1742" y1="22" x2="45.1742" y2="126.205" gradientUnits="userSpaceOnUse">
<stop stop-color="white"/>
<stop offset="1" stop-color="white" stop-opacity="0"/>
</linearGradient>
<linearGradient id="paint47_linear" x1="45.1742" y1="22" x2="45.1742" y2="126.205" gradientUnits="userSpaceOnUse">
<stop stop-color="white"/>
<stop offset="1" stop-color="white" stop-opacity="0"/>
</linearGradient>
<linearGradient id="paint48_linear" x1="45.1742" y1="22" x2="45.1742" y2="126.205" gradientUnits="userSpaceOnUse">
<stop stop-color="white"/>
<stop offset="1" stop-color="white" stop-opacity="0"/>
</linearGradient>
<linearGradient id="paint49_linear" x1="45.1742" y1="22" x2="45.1742" y2="126.205" gradientUnits="userSpaceOnUse">
<stop stop-color="white"/>
<stop offset="1" stop-color="white" stop-opacity="0"/>
</linearGradient>
<linearGradient id="paint50_linear" x1="45.1742" y1="22" x2="45.1742" y2="126.205" gradientUnits="userSpaceOnUse">
<stop stop-color="white"/>
<stop offset="1" stop-color="white" stop-opacity="0"/>
</linearGradient>
<linearGradient id="paint51_linear" x1="45.1742" y1="22" x2="45.1742" y2="126.205" gradientUnits="userSpaceOnUse">
<stop stop-color="white"/>
<stop offset="1" stop-color="white" stop-opacity="0"/>
</linearGradient>
<linearGradient id="paint52_linear" x1="45.1742" y1="22" x2="45.1742" y2="126.205" gradientUnits="userSpaceOnUse">
<stop stop-color="white"/>
<stop offset="1" stop-color="white" stop-opacity="0"/>
</linearGradient>
<linearGradient id="paint53_linear" x1="45.1742" y1="22" x2="45.1742" y2="126.205" gradientUnits="userSpaceOnUse">
<stop stop-color="white"/>
<stop offset="1" stop-color="white" stop-opacity="0"/>
</linearGradient>
<linearGradient id="paint54_linear" x1="45.1742" y1="22" x2="45.1742" y2="126.205" gradientUnits="userSpaceOnUse">
<stop stop-color="white"/>
<stop offset="1" stop-color="white" stop-opacity="0"/>
</linearGradient>
<linearGradient id="paint55_linear" x1="45.1742" y1="22" x2="45.1742" y2="126.205" gradientUnits="userSpaceOnUse">
<stop stop-color="white"/>
<stop offset="1" stop-color="white" stop-opacity="0"/>
</linearGradient>
<linearGradient id="paint56_linear" x1="45.1742" y1="22" x2="45.1742" y2="126.205" gradientUnits="userSpaceOnUse">
<stop stop-color="white"/>
<stop offset="1" stop-color="white" stop-opacity="0"/>
</linearGradient>
<linearGradient id="paint57_linear" x1="286.5" y1="32" x2="286.5" y2="40" gradientUnits="userSpaceOnUse">
<stop stop-color="#9C79FF"/>
<stop offset="1" stop-color="#DA9EFF"/>
</linearGradient>
<linearGradient id="paint58_linear" x1="247.5" y1="114" x2="247.5" y2="153" gradientUnits="userSpaceOnUse">
<stop stop-color="#9C79FF"/>
<stop offset="1" stop-color="#D5ABFF"/>
</linearGradient>
</defs>
</svg>
